<svg xmlns="http://www.w3.org/2000/svg" xmlns:xlink="http://www.w3.org/1999/xlink" viewBox="0 0 98 100"><defs><style>.cls-1,.cls-2,.cls-3,.cls-4,.cls-5,.cls-6,.cls-7,.cls-8,.cls-9{fill-rule:evenodd;}.cls-1{fill:url(#New_Gradient_Swatch_2);}.cls-2{fill:#9d9d9c;}.cls-3{fill:url(#New_Gradient_Swatch_2-2);}.cls-4{fill:url(#New_Gradient_Swatch_2-3);}.cls-5{fill:url(#New_Gradient_Swatch_2-4);}.cls-6{fill:url(#New_Gradient_Swatch_2-5);}.cls-7{fill:url(#New_Gradient_Swatch_2-6);}.cls-8{fill:url(#New_Gradient_Swatch_2-7);}.cls-9{fill:url(#New_Gradient_Swatch_2-8);}.cls-10{fill:url(#New_Gradient_Swatch_1);}.cls-11{fill:url(#New_Gradient_Swatch_1-2);}.cls-12{fill:#1a1a1a;}.cls-13{fill:#fefe98;}.cls-14{fill:#fff;}</style><linearGradient id="New_Gradient_Swatch_2" x1="49" y1="0.59" x2="49" y2="99.51" gradientUnits="userSpaceOnUse"><stop offset="0" stop-color="#4c4c4c"/><stop offset="1" stop-color="#1a1a1a"/></linearGradient><linearGradient id="New_Gradient_Swatch_2-2" x1="12.86" y1="0.32" x2="12.86" y2="99.89" xlink:href="#New_Gradient_Swatch_2"/><linearGradient id="New_Gradient_Swatch_2-3" x1="49" y1="0.32" x2="49" y2="99.89" xlink:href="#New_Gradient_Swatch_2"/><linearGradient id="New_Gradient_Swatch_2-4" x1="8.61" y1="0.32" x2="8.61" y2="99.89" xlink:href="#New_Gradient_Swatch_2"/><linearGradient id="New_Gradient_Swatch_2-5" x1="7.24" y1="0.32" x2="7.24" y2="99.89" xlink:href="#New_Gradient_Swatch_2"/><linearGradient id="New_Gradient_Swatch_2-6" x1="85.14" y1="0.32" x2="85.14" y2="99.89" xlink:href="#New_Gradient_Swatch_2"/><linearGradient id="New_Gradient_Swatch_2-7" x1="89.39" y1="0.32" x2="89.39" y2="99.89" xlink:href="#New_Gradient_Swatch_2"/><linearGradient id="New_Gradient_Swatch_2-8" x1="90.76" y1="0.32" x2="90.76" y2="99.89" xlink:href="#New_Gradient_Swatch_2"/><linearGradient id="New_Gradient_Swatch_1" x1="53.25" y1="1.09" x2="53.25" y2="98.67" gradientUnits="userSpaceOnUse"><stop offset="0" stop-color="#fefe98"/><stop offset="1" stop-color="#9e9159"/></linearGradient><linearGradient id="New_Gradient_Swatch_1-2" x1="44.74" y1="1.3" x2="44.74" y2="99.03" xlink:href="#New_Gradient_Swatch_1"/></defs><title>KO_icon</title><g id="icon_3"><path class="cls-1" d="M96.33,53a12,12,0,0,1-.74-3,12,12,0,0,1,.74-3c1-3,1.84-5.77,1.63-9a13.43,13.43,0,0,0-.66-3.44c-1.46-4.42-4.56-6.85-8.21-9.5a12.61,12.61,0,0,1-2.39-2,12.13,12.13,0,0,1-1.21-2.87c-1-3-2-5.74-4-8.22a14.39,14.39,0,0,0-2.59-2.4C75,6.82,71.07,6.65,66.54,6.61a12.16,12.16,0,0,1-3.14-.24,12.18,12.18,0,0,1-2.69-1.62c-2.61-1.84-5-3.51-8.18-4.31A14.47,14.47,0,0,0,49,0c-4.72,0-8,2.15-11.71,4.75A12.18,12.18,0,0,1,34.6,6.37a12.16,12.16,0,0,1-3.14.24c-3.22,0-6.15.07-9.19,1.26a14,14,0,0,0-3.12,1.68c-3.82,2.73-5.21,6.38-6.64,10.62A12.13,12.13,0,0,1,11.3,23a12.61,12.61,0,0,1-2.39,2C6.32,26.93,4,28.66,2.22,31.38A13.8,13.8,0,0,0,.7,34.55C-.76,39,.3,42.74,1.67,47a12,12,0,0,1,.74,3,12,12,0,0,1-.74,3C.7,56-.17,58.79,0,62A13.43,13.43,0,0,0,.7,65.45,14.16,14.16,0,0,0,4.11,71a8.92,8.92,0,0,0,1.3,1.23c1.07.94,2.25,1.82,3.5,2.72a12.61,12.61,0,0,1,2.39,2,12.13,12.13,0,0,1,1.21,2.87c1,3,2,5.74,4,8.22a14.39,14.39,0,0,0,2.59,2.4c3.82,2.73,7.78,2.9,12.31,2.94a12.16,12.16,0,0,1,3.14.24,12.18,12.18,0,0,1,2.69,1.62c2.61,1.84,5,3.51,8.18,4.31A14.47,14.47,0,0,0,49,100c4.72,0,8-2.15,11.71-4.75a12.18,12.18,0,0,1,2.69-1.62,12.16,12.16,0,0,1,3.14-.24c3.22,0,6.15-.07,9.19-1.26a14,14,0,0,0,3.12-1.68c3.82-2.73,5.21-6.38,6.64-10.62A12.13,12.13,0,0,1,86.7,77a12.61,12.61,0,0,1,2.39-2c2.59-1.88,4.94-3.61,6.69-6.33a13.8,13.8,0,0,0,1.52-3.17C98.76,61,97.7,57.26,96.33,53Z"/><path class="cls-2" d="M85.15,60.83a48.38,48.38,0,0,1-8.33-3.7L76.48,57h.38a48,48,0,0,1,9.12.7,12.59,12.59,0,0,1,2.89.9l-.12-.47a14,14,0,0,0-2.7-.79,51.46,51.46,0,0,0-9.84-.72h0c-1.27-.68-2.54-1.38-3.8-2.08l-.25-.14.28,0c1.46-.2,2.92-.39,4.39-.56h0a50.77,50.77,0,0,0,9.42,2.89,15.53,15.53,0,0,0,2.15.23l-.12-.37a16.26,16.26,0,0,1-2-.22,48.42,48.42,0,0,1-8.72-2.64l-.36-.13.38-.05a48.82,48.82,0,0,1,9.12-.42l.52,0-.09-.38-.4,0a51.53,51.53,0,0,0-9.85.5h-.05c-1.37-.52-2.74-1.07-4.11-1.61l-.26-.11.28-.07c1.4-.37,2.81-.74,4.23-1.09h0A51.84,51.84,0,0,0,86.75,52H87a2.5,2.5,0,0,1-.06-.38h-.19a48.27,48.27,0,0,1-9-1.54L77.4,50h0l.37-.09a48.27,48.27,0,0,1,9-1.54H87A2.5,2.5,0,0,1,87,48l-.27,0A51,51,0,0,0,77,49.71h0c-1.42-.35-2.83-.72-4.23-1.09l-.28-.07.26-.11,4.1-1.61h0a50.77,50.77,0,0,0,9.85.5l.41,0,.09-.38-.53,0a48,48,0,0,1-9.12-.42l-.38,0,.36-.14a48.52,48.52,0,0,1,8.73-2.64,16.26,16.26,0,0,1,2-.22l.12-.37a15.67,15.67,0,0,0-2.16.23,51.24,51.24,0,0,0-9.42,2.89h0l-4.38-.56-.28,0,.25-.14c1.26-.69,2.52-1.39,3.8-2.07h0a51.51,51.51,0,0,0,9.85-.72,14,14,0,0,0,2.7-.81c0-.15.09-.31.13-.46a12.83,12.83,0,0,1-2.9.9,48.79,48.79,0,0,1-9.12.71h-.38l.34-.17a47.75,47.75,0,0,1,8.33-3.71,10.43,10.43,0,0,1,4.07-.55l0-.38a11,11,0,0,0-4.15.58,51.39,51.39,0,0,0-9,4h0c-1.45,0-2.9,0-4.35,0h-.28l.23-.16c1.18-.87,2.36-1.73,3.56-2.57l0,0h0a51.13,51.13,0,0,0,9.67-1.93,11,11,0,0,0,3.66-1.91L88.38,36l0-.06a10.42,10.42,0,0,1-3.58,1.88,48.58,48.58,0,0,1-8.94,1.83l-.38.05.31-.22a48.57,48.57,0,0,1,7.79-4.7,12.12,12.12,0,0,1,2.82-.93L86,33.54a13.46,13.46,0,0,0-2.61.91A50.68,50.68,0,0,0,75,39.56h0c-1.46.19-2.92.36-4.38.53l-.28,0,.2-.19c1.06-1,2.12-2,3.2-3v0h0a51.29,51.29,0,0,0,9.35-3.11A15.22,15.22,0,0,0,85,32.78l-.32-.24a14.06,14.06,0,0,1-1.74,1,48.24,48.24,0,0,1-8.64,2.91l-.37.1.28-.26a47.58,47.58,0,0,1,7.13-5.61l.47-.28-.3-.26-.36.22a49.19,49.19,0,0,0-7.68,6.11h0l-4.26,1.06-.28.06.18-.21c.91-1.11,1.83-2.22,2.76-3.31l0,0h0a50.61,50.61,0,0,0,8.88-4.24l.24-.16-.27-.26-.17.11a47.75,47.75,0,0,1-8.21,4l-.35.14.24-.28a48,48,0,0,1,6.36-6.47l.17-.12-.18-.34-.22.17a50.43,50.43,0,0,0-6.84,7l0,0h0c-1.34.54-2.7,1.05-4,1.56l-.26.1.15-.23c.77-1.23,1.55-2.46,2.34-3.67l0,0h0A49.88,49.88,0,0,0,77.93,26l.32-.27-.16-.36c-.13.12-.26.24-.4.35a47.41,47.41,0,0,1-7.63,4.94l-.33.19.21-.32a47.09,47.09,0,0,1,5.48-7.19A15.36,15.36,0,0,1,76.88,22l-.12-.37a13.79,13.79,0,0,0-1.61,1.44,50.67,50.67,0,0,0-5.89,7.8v0h0L65.36,33l-.25.13.12-.26q.92-2,1.86-3.93v0h0a50.38,50.38,0,0,0,7.53-6.28,13.54,13.54,0,0,0,1.68-2.17L76.15,20a12.45,12.45,0,0,1-1.78,2.37,47.91,47.91,0,0,1-6.94,5.84l-.31.23.17-.34a46.66,46.66,0,0,1,4.52-7.81,10.09,10.09,0,0,1,2.93-2.78l-.25-.29a10.51,10.51,0,0,0-3,2.85,48.89,48.89,0,0,0-4.85,8.46v0h0c-1.18.86-2.38,1.7-3.57,2.54l-.23.16.08-.27c.44-1.37.88-2.75,1.34-4.12v0h0A49.62,49.62,0,0,0,71,19.68,10.53,10.53,0,0,0,72.79,16l-.29-.11-.07,0a10.16,10.16,0,0,1-1.78,3.61,48.35,48.35,0,0,1-6.15,6.65l-.28.26.12-.36a46.33,46.33,0,0,1,3.51-8.31,11.94,11.94,0,0,1,1.74-2.4l-.49,0a13,13,0,0,0-1.58,2.25,48.74,48.74,0,0,0-3.74,9v0l0,0q-1.59,1.49-3.21,3l-.21.19.05-.28c.26-1.4.52-2.81.8-4.21v0a49.2,49.2,0,0,0,5.71-7.93,14.86,14.86,0,0,0,.91-2h-.4a13.06,13.06,0,0,1-.84,1.82,47,47,0,0,1-5.25,7.37l-.24.29.07-.37a46.56,46.56,0,0,1,2.41-8.68c.08-.17.15-.35.23-.52l-.39,0a3.79,3.79,0,0,0-.18.42,49.26,49.26,0,0,0-2.57,9.39v0l0,0c-.92,1.11-1.85,2.2-2.79,3.29l-.18.21,0-.27c.07-1.44.16-2.88.26-4.31v-.05a48.66,48.66,0,0,0,4.65-8.57L62.7,15,62.32,15l-.06.16A46.44,46.44,0,0,1,58,23.08l-.2.32,0-.37a46.13,46.13,0,0,1,1.28-8.91l0-.17-.35-.17-.06.25a49.55,49.55,0,0,0-1.35,9.62v.05c-.78,1.22-1.57,2.42-2.36,3.63l-.16.23,0-.27c-.1-1.45-.21-2.9-.29-4.35v-.05a49.5,49.5,0,0,0,3.52-9.07l.09-.38-.34-.2-.12.5a45.86,45.86,0,0,1-3.22,8.41l-.16.34,0-.38a46.45,46.45,0,0,1,.15-9,13.76,13.76,0,0,1,.39-1.91L54.52,11a16.36,16.36,0,0,0-.44,2.08A50,50,0,0,0,54,22.78v0c-.62,1.32-1.26,2.63-1.9,3.94l-.12.25,0-.28c-.29-1.4-.57-2.81-.84-4.22v-.05A48.12,48.12,0,0,0,53.4,13a13.31,13.31,0,0,0,.06-2.75l-.4-.26a12.3,12.3,0,0,1,0,3,46.57,46.57,0,0,1-2.14,8.75l-.11.36-.07-.37a46.55,46.55,0,0,1-1-8.94,9.9,9.9,0,0,1,.72-4,2.22,2.22,0,0,0-.37-.09,10.29,10.29,0,0,0-.72,4,49.17,49.17,0,0,0,1.12,9.66v0c-.45,1.37-.91,2.73-1.37,4.09l-.09.26-.09-.26c-.46-1.36-.92-2.72-1.37-4.09v0a49.17,49.17,0,0,0,1.12-9.66,10.37,10.37,0,0,0-.72-4l-.29.07-.09,0a9.79,9.79,0,0,1,.73,4,46.55,46.55,0,0,1-1,8.94l-.07.37-.11-.36A46.57,46.57,0,0,1,45,13a12.29,12.29,0,0,1,0-3l-.4.26A13.3,13.3,0,0,0,44.6,13,48.12,48.12,0,0,0,47,22.47v.05c-.27,1.41-.55,2.82-.84,4.22l0,.28-.12-.25c-.64-1.31-1.28-2.62-1.9-3.94v0a49.23,49.23,0,0,0-.12-9.71A14.77,14.77,0,0,0,43.48,11l-.33.23a14.06,14.06,0,0,1,.39,1.91,46.45,46.45,0,0,1,.15,9l0,.38-.16-.34a45.86,45.86,0,0,1-3.22-8.41l-.12-.5-.34.2.09.38a49.5,49.5,0,0,0,3.52,9.07v.05c-.08,1.45-.19,2.9-.29,4.35l0,.27L43,27.33c-.79-1.21-1.58-2.41-2.36-3.63v-.05A49.55,49.55,0,0,0,39.26,14l-.06-.25-.35.17c0,.06,0,.12,0,.17A46.13,46.13,0,0,1,40.18,23l0,.37-.2-.32a46.44,46.44,0,0,1-4.27-7.95L35.68,15,35.3,15l.09.23A48.66,48.66,0,0,0,40,23.83v.05c.1,1.43.18,2.87.26,4.31l0,.27-.18-.21c-.94-1.09-1.87-2.18-2.79-3.29l0,0v0a49.26,49.26,0,0,0-2.57-9.39,3.79,3.79,0,0,0-.18-.42l-.39,0c.08.17.15.35.23.52a46.56,46.56,0,0,1,2.41,8.68l.07.37-.24-.29a46.33,46.33,0,0,1-5.25-7.37,13.62,13.62,0,0,1-.84-1.82h-.4a14.86,14.86,0,0,0,.91,2,49.2,49.2,0,0,0,5.71,7.93v0c.28,1.4.54,2.81.8,4.21l.05.28-.21-.19q-1.62-1.47-3.21-3l0,0v0a48.74,48.74,0,0,0-3.74-9,13.58,13.58,0,0,0-1.58-2.25l-.49,0a11.94,11.94,0,0,1,1.74,2.4A45.57,45.57,0,0,1,33.65,26l.13.36-.28-.26a48.35,48.35,0,0,1-6.15-6.65,10.16,10.16,0,0,1-1.78-3.61l-.35.15a10.29,10.29,0,0,0,1.83,3.67,49.62,49.62,0,0,0,6.67,7.16h0v0c.47,1.37.91,2.75,1.35,4.12l.08.27-.23-.16c-1.19-.84-2.39-1.68-3.57-2.54h0v0a48.89,48.89,0,0,0-4.85-8.46,10.51,10.51,0,0,0-3-2.85c-.07.08-.14.15-.2.23l0,.06a10.22,10.22,0,0,1,2.93,2.78,46.66,46.66,0,0,1,4.52,7.81l.17.34-.31-.23a47.91,47.91,0,0,1-6.94-5.84A12.71,12.71,0,0,1,21.85,20l-.18.44a13.54,13.54,0,0,0,1.68,2.17,50.38,50.38,0,0,0,7.53,6.28h0v0q.94,2,1.86,3.93l.12.26L32.64,33l-3.87-2.08h0v0a50.67,50.67,0,0,0-5.89-7.8,14.76,14.76,0,0,0-1.61-1.44l-.12.37a15.36,15.36,0,0,1,1.46,1.33,47.09,47.09,0,0,1,5.48,7.19l.21.32-.33-.19a47,47,0,0,1-7.63-4.94c-.14-.11-.27-.23-.4-.35l-.16.36.32.27a49.88,49.88,0,0,0,8.26,5.31h0l0,0c.79,1.21,1.57,2.44,2.34,3.67l.15.23-.26-.1c-1.35-.51-2.71-1-4.05-1.56h0l0,0a50.43,50.43,0,0,0-6.84-7l-.22-.17-.18.34.17.12A48,48,0,0,1,25.8,33.3l.24.28-.35-.14a47.4,47.4,0,0,1-8.21-4l-.17-.11-.27.26.24.16A50.61,50.61,0,0,0,26.16,34h0l0,0c.93,1.09,1.85,2.2,2.76,3.31l.18.21-.28-.06L24.6,36.46h0a49.19,49.19,0,0,0-7.68-6.11l-.36-.22-.3.26.47.28a47.58,47.58,0,0,1,7.13,5.61l.28.26-.37-.1a48.24,48.24,0,0,1-8.64-2.91,14.06,14.06,0,0,1-1.74-1l-.33.23a14.87,14.87,0,0,0,1.9,1.07A51.29,51.29,0,0,0,24.27,37h0v0c1.08,1,2.14,2,3.2,3l.2.19-.28,0c-1.46-.17-2.92-.34-4.38-.53h0a50.68,50.68,0,0,0-8.39-5.11A13.46,13.46,0,0,0,12,33.54l-.37.3a12.63,12.63,0,0,1,2.82.94,48.57,48.57,0,0,1,7.79,4.7l.31.22-.38-.05a48.58,48.58,0,0,1-8.94-1.83,10.28,10.28,0,0,1-3.57-1.88l-.21.32a11,11,0,0,0,3.66,1.91,51.13,51.13,0,0,0,9.67,1.93h0l0,0c1.2.84,2.38,1.7,3.56,2.57l.23.16h-.28c-1.45,0-2.9,0-4.35,0h0a51.39,51.39,0,0,0-9-4,11,11,0,0,0-4.15-.58l0,.3v.08a10.43,10.43,0,0,1,4.07.55,47.75,47.75,0,0,1,8.33,3.71l.34.17h-.38A48.79,48.79,0,0,1,12,42.34a12.75,12.75,0,0,1-2.89-.9l.12.46a14,14,0,0,0,2.7.81,51.51,51.51,0,0,0,9.85.72h0c1.28.68,2.54,1.38,3.8,2.07l.25.14-.28,0-4.38.56h0a51.24,51.24,0,0,0-9.42-2.89,15.67,15.67,0,0,0-2.16-.23l.12.37a16.26,16.26,0,0,1,2,.22,48.52,48.52,0,0,1,8.73,2.64l.36.14-.38,0a48,48,0,0,1-9.12.42l-.53,0,.09.38.41,0a50.77,50.77,0,0,0,9.85-.5h.05l4.1,1.61.26.11-.28.07c-1.4.37-2.81.74-4.23,1.09h0A51,51,0,0,0,11.25,48L11,48a2.5,2.5,0,0,1,.06.38h.19a48.27,48.27,0,0,1,9,1.54l.37.09h0l-.37.09a48.27,48.27,0,0,1-9,1.54H11A2.5,2.5,0,0,1,11,52h.27A51.84,51.84,0,0,0,21,50.29h0c1.42.35,2.83.72,4.23,1.09l.28.07-.26.11c-1.37.54-2.74,1.09-4.11,1.61h0a51.53,51.53,0,0,0-9.85-.5l-.4,0-.09.38.52,0a48.82,48.82,0,0,1,9.12.42l.38.05-.36.13a48.42,48.42,0,0,1-8.72,2.64,16.26,16.26,0,0,1-2,.22l-.12.37a15.53,15.53,0,0,0,2.15-.23,50.77,50.77,0,0,0,9.42-2.89h0c1.47.17,2.93.36,4.39.56l.28,0-.25.14c-1.26.7-2.53,1.4-3.8,2.08h-.05A51.46,51.46,0,0,0,12,57.3a13.31,13.31,0,0,0-2.7.8c-.05.15-.09.3-.13.46a12.83,12.83,0,0,1,2.9-.9,48,48,0,0,1,9.12-.7h.38l-.34.18a48.38,48.38,0,0,1-8.33,3.7,10.43,10.43,0,0,1-4.07.55l0,.37A10.84,10.84,0,0,0,13,61.18a50.93,50.93,0,0,0,9-4h0c1.45,0,2.9,0,4.35,0h.28l-.23.16c-1.17.86-2.36,1.72-3.55,2.56h0a50.35,50.35,0,0,0-9.67,1.93,10.73,10.73,0,0,0-3.67,1.91l.16.26,0,.06a10.29,10.29,0,0,1,3.59-1.88,48.58,48.58,0,0,1,8.94-1.83l.38-.05-.31.22a48.13,48.13,0,0,1-7.79,4.7,12.19,12.19,0,0,1-2.83.93l.37.31a13.55,13.55,0,0,0,2.62-.91A51,51,0,0,0,23,60.44h0l4.37-.52.28,0-.2.19c-1.06,1-2.12,2-3.2,3v0h0a51.29,51.29,0,0,0-9.35,3.11A15.22,15.22,0,0,0,13,67.22l.32.24a14.06,14.06,0,0,1,1.74-1,48.24,48.24,0,0,1,8.64-2.91l.37-.1-.28.26a48.3,48.3,0,0,1-7.13,5.62l-.47.27.3.26.36-.22a49.72,49.72,0,0,0,7.68-6.1l0,0h0l4.26-1.06.28-.06-.18.21c-.91,1.11-1.83,2.22-2.76,3.31l0,0h0a50.61,50.61,0,0,0-8.88,4.24l-.24.16.27.26.17-.11a48.14,48.14,0,0,1,8.21-4l.35-.14-.24.28a48,48,0,0,1-6.36,6.47l-.17.12.18.34.22-.17a50.43,50.43,0,0,0,6.84-7h0c1.34-.54,2.7-1,4.05-1.56l.26-.1-.15.23c-.78,1.24-1.56,2.47-2.36,3.7v0h0A49.68,49.68,0,0,0,20.05,74l-.3.25c.06.12.11.24.16.36l.39-.33a48,48,0,0,1,7.62-4.94l.33-.18-.2.31a47.9,47.9,0,0,1-5.48,7.19A16.33,16.33,0,0,1,21.12,78l.12.37a14.46,14.46,0,0,0,1.6-1.43,49.12,49.12,0,0,0,5.88-7.79h0l0,0c1.29-.7,2.59-1.4,3.89-2.08l.25-.14-.12.26q-.91,2-1.86,3.93v0h0a50.92,50.92,0,0,0-7.53,6.27,13.6,13.6,0,0,0-1.69,2.17l.18.44a12.39,12.39,0,0,1,1.78-2.36,49.13,49.13,0,0,1,7-5.83l.31-.22-.17.33a46,46,0,0,1-4.53,7.81,10.28,10.28,0,0,1-2.93,2.76l.25.29a10.57,10.57,0,0,0,3-2.83,49.23,49.23,0,0,0,4.86-8.45v0h0c1.18-.86,2.38-1.7,3.57-2.54l.23-.16L35.1,69c-.44,1.36-.88,2.73-1.33,4.08v0h0a50.26,50.26,0,0,0-6.68,7.16A10.37,10.37,0,0,0,25.22,84l.28.11.07,0a10.05,10.05,0,0,1,1.8-3.63,48.35,48.35,0,0,1,6.15-6.65l.28-.26-.12.36a46.33,46.33,0,0,1-3.51,8.31,12.27,12.27,0,0,1-1.76,2.42l.48,0a13.33,13.33,0,0,0,1.61-2.27,48.78,48.78,0,0,0,3.75-9v0h0c1-1,2.12-2,3.19-2.93l.21-.19-.05.28c-.26,1.41-.53,2.83-.81,4.25v0l0,0a50.37,50.37,0,0,0-5.71,7.92,14.43,14.43,0,0,0-.9,2h.4A13.88,13.88,0,0,1,31.41,83a47.42,47.42,0,0,1,5.26-7.36l.24-.29-.08.37a45.73,45.73,0,0,1-2.42,8.67l-.21.49.39,0c.06-.13.12-.26.17-.39a48.25,48.25,0,0,0,2.57-9.38v0l0,0c.93-1.12,1.87-2.22,2.81-3.33l.18-.21v.28c-.08,1.44-.16,2.87-.26,4.31v0a49.43,49.43,0,0,0-4.66,8.57l-.09.23.38.06.06-.16a47.25,47.25,0,0,1,4.28-8l.2-.31,0,.37a46.83,46.83,0,0,1-1.29,8.9,1.09,1.09,0,0,0,0,.17l.34.17c0-.08,0-.16.07-.24a48.06,48.06,0,0,0,1.35-9.63v0l0,0c.77-1.22,1.57-2.43,2.36-3.64l.16-.23,0,.28c.1,1.43.2,2.87.29,4.31v0a48.83,48.83,0,0,0-3.53,9.07c0,.14-.07.28-.1.42l.34.2.12-.53a47.39,47.39,0,0,1,3.23-8.41l.16-.34,0,.37a45.11,45.11,0,0,1-.15,9,14.06,14.06,0,0,1-.4,1.93l.33.23a16.85,16.85,0,0,0,.45-2.11A48.56,48.56,0,0,0,44,77.18v0c.62-1.31,1.25-2.61,1.89-3.91l.12-.24,0,.27c.29,1.4.57,2.81.84,4.22v0A48.12,48.12,0,0,0,44.6,87a12.65,12.65,0,0,0-.06,2.75l.4.26a12.3,12.3,0,0,1,0-3,46.57,46.57,0,0,1,2.14-8.75l.11-.36.07.37a46.55,46.55,0,0,1,1,8.94,9.9,9.9,0,0,1-.72,4,2.22,2.22,0,0,0,.37.09,10.29,10.29,0,0,0,.72-4,49.17,49.17,0,0,0-1.12-9.66v0c.45-1.37.91-2.73,1.37-4.09l.09-.26.09.26c.46,1.36.92,2.72,1.37,4.09v0a49.17,49.17,0,0,0-1.12,9.66,10.37,10.37,0,0,0,.72,4l.29-.07.09,0a9.79,9.79,0,0,1-.73-4,46.55,46.55,0,0,1,1-8.94l.07-.37.11.36A46.57,46.57,0,0,1,53,87a12.29,12.29,0,0,1,0,3l.4-.26A13.31,13.31,0,0,0,53.4,87a48.12,48.12,0,0,0-2.35-9.44v0c.27-1.41.55-2.82.84-4.22l0-.27.12.24c.64,1.3,1.27,2.6,1.89,3.91v0a48.56,48.56,0,0,0,.11,9.72A15.23,15.23,0,0,0,54.52,89l.33-.23a14.06,14.06,0,0,1-.4-1.93,45.11,45.11,0,0,1-.15-9l0-.37.16.34a47.39,47.39,0,0,1,3.23,8.41l.12.53.34-.2c0-.14-.06-.28-.1-.42a48.83,48.83,0,0,0-3.53-9.07v0c.09-1.44.19-2.88.29-4.31l0-.28.16.23c.79,1.21,1.59,2.42,2.36,3.64l0,0v0A48.06,48.06,0,0,0,58.73,86c0,.08.05.16.07.24l.34-.17a1.09,1.09,0,0,0,0-.17A46.83,46.83,0,0,1,57.8,77l0-.37.2.31a47.25,47.25,0,0,1,4.28,8l.06.16.38-.06-.09-.23a49.74,49.74,0,0,0-4.66-8.57v0c-.1-1.44-.18-2.87-.26-4.31v-.28l.18.21c.94,1.11,1.88,2.21,2.81,3.33l0,0v0a48.25,48.25,0,0,0,2.57,9.38l.16.39.4,0-.21-.49a45.73,45.73,0,0,1-2.42-8.67l-.08-.37.24.29A47.42,47.42,0,0,1,66.59,83a14.53,14.53,0,0,1,.83,1.79h.4a14.43,14.43,0,0,0-.9-2,50.37,50.37,0,0,0-5.71-7.92l0,0v0c-.28-1.42-.55-2.84-.81-4.25l-.05-.28.21.19c1.07,1,2.13,1.94,3.19,2.93h0v0a48.78,48.78,0,0,0,3.75,9,13,13,0,0,0,1.61,2.27l.49,0a11.93,11.93,0,0,1-1.77-2.42A46.33,46.33,0,0,1,64.32,74l-.12-.36.28.26a48.35,48.35,0,0,1,6.15,6.65,10.05,10.05,0,0,1,1.8,3.63l.35-.15a10.41,10.41,0,0,0-1.84-3.69,50.26,50.26,0,0,0-6.68-7.16h0v0c-.45-1.35-.89-2.72-1.33-4.08l-.08-.27.23.16c1.19.84,2.39,1.68,3.57,2.54h0v0a49.23,49.23,0,0,0,4.86,8.45,10.61,10.61,0,0,0,3,2.83l.19-.22.06-.07a10.18,10.18,0,0,1-2.94-2.76,46,46,0,0,1-4.53-7.81l-.17-.33.31.22a49.13,49.13,0,0,1,7,5.83A12.39,12.39,0,0,1,76.15,80l.18-.44a13.6,13.6,0,0,0-1.69-2.17,50.92,50.92,0,0,0-7.53-6.27h0v0q-.94-2-1.86-3.93l-.12-.26.25.14c1.3.68,2.6,1.38,3.89,2.08l0,0h0a49.12,49.12,0,0,0,5.88,7.79,15.32,15.32,0,0,0,1.59,1.43c0-.12.09-.25.13-.37a16.33,16.33,0,0,1-1.45-1.31A47.9,47.9,0,0,1,70,69.49l-.2-.31.33.18A48,48,0,0,1,77.7,74.3l.39.33c0-.12.1-.24.16-.36L78,74a49.68,49.68,0,0,0-8.27-5.3h0v0c-.8-1.23-1.58-2.46-2.36-3.7l-.15-.23.26.1c1.35.51,2.71,1,4,1.56h0a50.43,50.43,0,0,0,6.84,7l.22.17.18-.34-.17-.12A48,48,0,0,1,72.2,66.7L72,66.42l.35.14a48.14,48.14,0,0,1,8.21,4l.17.11.27-.26-.24-.16A50.61,50.61,0,0,0,71.84,66h0l0,0c-.93-1.09-1.85-2.2-2.76-3.31l-.18-.21.28.06,4.26,1.06h0l0,0a49.72,49.72,0,0,0,7.68,6.1l.36.22.3-.26-.47-.27a48.3,48.3,0,0,1-7.13-5.62l-.28-.26.37.1a48.24,48.24,0,0,1,8.64,2.91,14.06,14.06,0,0,1,1.74,1l.33-.23a14.87,14.87,0,0,0-1.9-1.07,51.29,51.29,0,0,0-9.35-3.11h0l0,0c-1.07-1-2.13-2-3.19-3l-.2-.19.28,0,4.37.52h0a51,51,0,0,0,8.39,5.11,13.55,13.55,0,0,0,2.62.91l.38-.31a12.27,12.27,0,0,1-2.84-.93,48.13,48.13,0,0,1-7.79-4.7l-.31-.22.38.05a48.58,48.58,0,0,1,8.94,1.83,10.25,10.25,0,0,1,3.58,1.88c.07-.11.14-.21.2-.32a10.42,10.42,0,0,0-3.66-1.91A50.35,50.35,0,0,0,75.2,59.9h0c-1.19-.84-2.38-1.7-3.55-2.56l-.23-.16h.28c1.45,0,2.9,0,4.35,0h0a50.93,50.93,0,0,0,9,4,10.84,10.84,0,0,0,4.15.57l0-.29v-.08A10.45,10.45,0,0,1,85.15,60.83Zm-9-7.54.34.13-.37,0c-1.6.2-3.19.42-4.79.63h-.06c-1-.53-1.9-1.06-2.86-1.58l-.21-.11.23-.06,3.17-.83h.06ZM56.83,66.61l-1.65-1.56,0,0v0c0-.59.05-1.17.07-1.76V63l.15.12,1.43,1.08,0,0v0c.06.75.12,1.5.16,2.24l0,.24ZM57,69.92l-.18-.21L55.2,67.8l0,0v0c0-.62.08-1.24.11-1.85v-.2l.15.14,1.36,1.27,0,0v0L57,69.64ZM41.17,66.61l-.18.16,0-.24c0-.74.1-1.49.16-2.24v0l0,0,1.43-1.08.15-.12v.19c0,.59,0,1.17.07,1.76v0l0,0Zm1.65,1.16,0,0-1.62,1.91-.18.21v-.28c.05-.83.09-1.65.15-2.48v0l0,0,1.36-1.27.15-.14v.2c0,.61.07,1.23.11,1.85ZM41.15,33.38l1.66,1.56,0,0v0c0,.59-.05,1.18-.07,1.78V37l-.15-.11c-.47-.37-.95-.73-1.43-1.08l0,0v0c-.06-.75-.11-1.5-.16-2.26v-.23ZM41,30.09l.18.21c.55.63,1.09,1.27,1.62,1.9l0,0v0c0,.61-.07,1.22-.1,1.83l0,.2-.14-.14-1.37-1.27,0,0v0c0-.82-.1-1.64-.14-2.46Zm15.87,3.29.17-.16v.23c0,.76-.1,1.51-.17,2.26v0l0,0c-.48.35-1,.71-1.43,1.08l-.15.11v-.18c0-.6,0-1.19-.07-1.78v0l0,0Zm-1.66-1.15,0,0c.53-.63,1.07-1.27,1.62-1.9l.18-.21,0,.28c0,.82-.09,1.64-.14,2.46v0l0,0-1.37,1.27-.14.14,0-.2c0-.61-.06-1.22-.1-1.83Zm1.25,29.48L55.29,61l0,0v0c0-.37,0-.74,0-1.11v-.16l.14.07,1,.49.05,0v.05c.06.45.12.89.16,1.34l0,.19Zm.15,1.9-.17-.13-1-.74,0,0v0c0-.33,0-.65,0-1v-.17l.15.09.83.51,0,0v.05c0,.4.07.8.11,1.2Zm-1.22-5,.13,0,.48.18.05,0v0l.09.59,0,.17L56,59.62l-.54-.27-.05,0v0l0-.5Zm-1.26.23,0,0v0c0-.25,0-.49,0-.73v-.14l.13.06.68.28.06,0v.06c0,.28,0,.57.05.85v.16l-.14-.07Zm.75,1.65-.14-.1-.51-.33-.05,0V60c0-.17,0-.34,0-.5v-.15l.13.07.45.23.05,0v0c0,.21,0,.41,0,.62Zm-.57-3.34.13,0,.21.07.06,0v.06a2.46,2.46,0,0,1,0,.26l0,.16-.15-.06-.24-.11-.06,0v-.42Zm.42-.26c-.19,0-.37-.11-.56-.18l-.06,0v-.06c0-.17,0-.33,0-.5V56l.13,0c.16.05.32.08.49.12h.06v.07c0,.19,0,.38.08.57l0,.14Zm-1.45.41-.06,0v-.06c0-.17,0-.34,0-.5V56.6l.12,0,.48.17.06,0v.07c0,.19,0,.38,0,.57v.15l-.13-.07Zm.46.63V58a2.17,2.17,0,0,0,0,.26v.15l-.13-.08a1.71,1.71,0,0,1-.23-.13l-.06,0v-.06l0-.22,0-.13.12,0,.2.1Zm-.94.14-.49-.31,0,0v-.06c0-.17.07-.33.11-.49l0-.13.11.06.45.24.06,0v.06c0,.19,0,.38-.07.57v.14Zm.07,2.47c0-.17.08-.33.11-.5l0-.14.12.08.41.29,0,0v.06l-.06.6,0,.18L53.34,61l-.46-.39,0,0Zm-7.76-2.39V58c0-.19,0-.38-.07-.57V57.4l.06,0,.45-.24.11-.06,0,.13c0,.16.07.32.11.49v.06l0,0-.49.31Zm.07,2.44,0,0-.46.39-.14.12,0-.18-.06-.6v-.06l0,0,.41-.29.12-.08,0,.14c0,.17.07.33.11.5Zm-.94-3-.13.07v-.15c0-.19,0-.38,0-.57v-.07l.06,0,.48-.17.12,0v.13c0,.16,0,.33,0,.5v.06l-.06,0Zm.5.62-.06,0a1.71,1.71,0,0,1-.23.13l-.13.08v-.15c0-.09,0-.18,0-.26V58l.06,0,.2-.1.12,0,0,.13,0,.22Zm-1.6,1.09-.14.07v-.16c0-.28,0-.57.05-.85v-.06l.06,0,.68-.28.13-.06v.14c0,.24,0,.48,0,.73v0l0,0Zm.72.78-.05,0-.51.33-.15.1v-.17c0-.21,0-.41,0-.62v0l.05,0,.45-.23.13-.07v.15c0,.16,0,.33,0,.5Zm-.13-2.52v.06l-.06,0-.24.11-.15.06,0-.16a2.46,2.46,0,0,1,0-.26V57.3l.06,0,.21-.07.13,0v.36Zm.22-1.38c0,.17,0,.33,0,.5v.06l-.06,0c-.19.07-.37.13-.56.18l-.14.05,0-.14c0-.19,0-.38.08-.57v-.07h.06c.17,0,.33-.07.49-.12l.13,0Zm-1.29,3.57.14-.07v.16c0,.37,0,.74,0,1.11v0l0,0-1.15.71-.16.1,0-.19c0-.45.1-.89.16-1.34v-.05l.05,0Zm-.8,0,0-.17.09-.59v0l.05,0,.48-.18.13,0v.14l0,.5v0l-.05,0-.55.27Zm.74,3,0,0-1,.74-.17.13,0-.21c0-.4.07-.8.11-1.2v-.05l0,0,.83-.51.15-.09v.17c0,.32,0,.64,0,1Zm-1-24.42L42.7,39l0,0v0c0,.37,0,.74,0,1.11v.16l-.14-.07-1-.49,0,0v-.05c-.06-.45-.11-.89-.16-1.34l0-.18ZM41.4,36.4l.17.13,1,.73,0,0v.05c0,.32,0,.64,0,1v.16l-.15-.09-.83-.5,0,0v0c0-.4-.07-.8-.11-1.2Zm1.23,5-.14,0L42,41.14l0,0v0l-.09-.59,0-.18.16.08.55.27,0,0v.06c0,.16,0,.33,0,.5Zm1.26-.23,0,0v0c0,.25,0,.49,0,.73v.14L43.77,42l-.69-.28,0,0v-.06c0-.29,0-.57-.05-.85v-.16l.15.07Zm-.76-1.65.15.1.51.34.05,0v0c0,.17,0,.34,0,.51v.14l-.13-.07-.45-.24-.05,0v-.06c0-.2,0-.4,0-.6Zm.58,3.34-.13,0-.22-.07-.06,0v-.06l0-.27v-.15l.14.06.25.11.06,0v.42Zm-.42.26c.19,0,.37.11.56.18l.06,0v.06c0,.17,0,.33,0,.5V44l-.13,0-.49-.12h-.06v-.07c0-.19-.06-.38-.08-.57l0-.14Zm1.45-.41.06,0v.07c0,.16,0,.33,0,.49v.13l-.12,0-.48-.17-.06,0v-.07c0-.19,0-.38,0-.57v-.14l.13.06Zm-.46-.62V42c0-.08,0-.17,0-.26v-.15l.13.08.23.13.06,0v.06l0,.22,0,.13-.12,0-.2-.1Zm.94-.15.49.31,0,0v.06c0,.17-.07.33-.11.49l0,.13-.11-.06-.45-.24-.06,0v-.06c0-.19,0-.38.07-.57v-.14Zm-.08-2.46c0,.16-.07.33-.1.49l0,.14L44.89,40l-.41-.29,0,0v0l.06-.6,0-.18.13.12.46.39,0,0Zm7.77,2.38V42c0,.19,0,.38.07.57v.06l-.06,0-.45.24-.11.06,0-.13c0-.16-.07-.32-.11-.49v-.06l0,0,.49-.31Zm-.07-2.43,0,0,.46-.39.13-.12,0,.18.06.6v0l0,0-.41.29-.12.08,0-.14c0-.16-.07-.33-.1-.49Zm.94,3,.13-.06v.14c0,.19,0,.38,0,.57v.07l-.06,0-.48.17-.12,0v-.13c0-.16,0-.33,0-.49v-.07l.06,0Zm-.5-.62.06,0,.23-.13.13-.08v.15a2.17,2.17,0,0,0,0,.26v.07l-.06,0-.2.1-.12,0,0-.13,0-.22Zm1.6-1.09.15-.07v.16c0,.28,0,.56-.05.85v.06l0,0-.69.28-.13.06V42c0-.24,0-.48,0-.73v0l0,0ZM54.16,40l.05,0,.51-.34.15-.1v.18c0,.2,0,.4,0,.6v.06l-.05,0-.45.24-.13.07v-.14c0-.17,0-.34,0-.51Zm.13,2.51v-.06l.06,0,.25-.11.14-.06v.15l0,.27v.06l-.06,0-.22.07-.13,0v-.36Zm-.22,1.38c0-.17,0-.33,0-.5v-.06l.06,0c.19-.07.37-.13.56-.18l.14-.05,0,.14c0,.19,0,.38-.08.57v.07h-.06l-.49.12-.13,0Zm1.3-3.57-.14.07v-.16c0-.37,0-.74,0-1.11v0l0,0,1.15-.71.16-.09,0,.18c-.05.45-.1.89-.16,1.34v.05l0,0Zm.79,0,0,.18-.09.59v0l0,0-.48.18-.14,0v-.14c0-.17,0-.34,0-.5v-.06l0,0,.55-.27Zm-.73-3,0,0,1-.73.17-.13,0,.21c0,.4-.07.8-.11,1.2v0l0,0-.83.5-.15.09v-.16c0-.33,0-.65,0-1Zm1.64,19.1H57l0-.05-.24-.69,0-.13h.14l.74,0h.06l0,0q.2.39.36.78l.07.15-.16,0Zm.27,2.35-.17-.05-.58-.2-.05,0v-.06l-.09-.49,0-.14.15,0,.49.12h.06V58c.06.2.11.39.17.58Zm-1-4.35h-.06l0,0L56,53.88l0-.11.13,0,.5-.07h.06l0,.06c.1.16.19.33.28.49l.07.13h-.14Zm.21,1.74-.15,0-.27,0H56V56L56,55.78l0-.13h.13l.23,0h.06l0,.06.09.24Zm-3.18-.51-.06,0v-.06c0-.12,0-.23,0-.35v-.12l.12,0,.34.07.07,0v.06c0,.13,0,.26,0,.39v.14l-.13,0Zm.36.75-.13,0,0,0-.06,0v-.23l.12,0,0,0h.07v.26Zm0-2.71h-.06l0-.07-.07-.22,0-.12H54l0,.06.1.25,0,.13h-.41Zm-1.61,3.05-.34-.2-.05,0v-.06a3.38,3.38,0,0,0,.08-.34l0-.12L52,56l.31.16.06,0v.06l-.06.39,0,.13Zm.11,1.88a1.42,1.42,0,0,1,.05-.22l0-.13.11.07.19.12.05,0v.06c0,.09,0,.18,0,.27l0,.15-.12-.09-.21-.16,0,0Zm-6.47-1.81,0-.13-.06-.39V56.2l.06,0L46,56l.12-.06,0,.12a3.38,3.38,0,0,0,.08.34v.06l-.06,0-.33.2Zm0,1.87,0,0-.21.16-.13.09,0-.15c0-.09,0-.18,0-.27v-.06l.05,0,.19-.12.11-.07,0,.13a1.42,1.42,0,0,1,.05.22Zm-1.51-2.91-.13,0v-.14c0-.13,0-.26,0-.39v-.06l.07,0,.34-.07.12,0v.12c0,.12,0,.23,0,.35v.06l-.06,0Zm.26.54-.06,0,0,0-.13,0v-.26h.07l0,0,.12,0v.23Zm-.21-2.62h-.47l0-.13.1-.25,0-.06h.44l0,.12-.07.22Zm-3.22.7H41l.06-.13.29-.49,0-.06h.06l.5.07.13,0,0,.11-.21.46,0,0h-.06ZM41.53,56l.09-.24,0-.06h.06l.23,0h.13l0,.13L42,56v.06H41.9l-.27,0-.15,0Zm-1.46.51-.16,0,.07-.15q.17-.39.36-.78l0,0h.06l.74,0h.14l0,.13-.24.69,0,.05h-.06Zm.64,2.08c.06-.19.11-.38.17-.58v-.05H41l.49-.12.15,0,0,.14-.09.49v.06l-.05,0-.58.2-.17.05Zm.22-15H41l0,.05.24.69,0,.13h-.14l-.74,0h-.06l0,0L40,43.64l-.07-.14h.17Zm-.27-2.35.17.05.57.2.06,0v0c0,.17.05.34.08.5l0,.14-.14,0L41,42.07h-.06V42c-.06-.19-.11-.39-.17-.58Zm1,4.35h.06l0,0,.21.46,0,.11-.13,0-.5.07h-.06l0,0-.29-.5L41,45.65h.15Zm-.21-1.74.15,0,.27,0H42V44l.06.21,0,.13h-.42l0,0L41.53,44Zm3.18.51.06,0v.06c0,.12,0,.23,0,.35v.12l-.12,0-.34-.07-.07,0v-.06c0-.13,0-.26,0-.39v-.13l.13,0Zm-.36-.75.13,0,0,0,.06,0V44l-.12,0,0,0h-.07v-.26Zm0,2.71h.07l0,.07.07.22,0,.12H44l0-.06a2.6,2.6,0,0,0-.1-.25l0-.13h.4Zm1.62-3.05.33.2.06,0v.06a3.38,3.38,0,0,0-.08.34l0,.12L46,44l-.31-.16-.06,0v-.06l.06-.39,0-.13Zm-.11-1.88c0,.08,0,.15-.05.23l0,.12-.11-.07-.19-.12-.05,0v-.06a2.51,2.51,0,0,1,0-.27l0-.15.13.1.21.16,0,0Zm6.47,1.81,0,.13.06.39v.06l-.06,0L52,44l-.11.06,0-.12a3.38,3.38,0,0,0-.08-.34v-.06l.06,0,.33-.2Zm0-1.86,0,0,.21-.16.13-.1,0,.15a2.51,2.51,0,0,1,0,.27v.06l-.05,0-.19.12-.11.07,0-.12c0-.08,0-.15-.05-.23Zm1.51,2.9.13,0v.13c0,.13,0,.26,0,.39v.06l-.07,0-.34.07-.12,0v-.12c0-.12,0-.23,0-.35V44.4l.06,0Zm-.26-.54.06,0,0,0,.13,0v.26h-.07l0,0-.12,0v-.23Zm.21,2.62h.47l0,.13a2.6,2.6,0,0,0-.1.25l0,.06h-.43l0-.12.07-.22Zm3.22-.7H57l-.07.13c-.1.16-.19.33-.29.5l0,0h-.06l-.5-.07-.13,0,0-.11.21-.46,0,0h.06ZM56.47,44l-.09.25,0,0h-.42l0-.13L56,44V44h.06l.27,0,.15,0Zm1.46-.51h.17l-.07.14-.36.78,0,0h-.06l-.74,0H56.7l0-.13.24-.69,0-.05h.06Zm-.64-2.08c-.06.19-.11.39-.17.58v.05h-.06l-.49.12-.14,0,0-.14c0-.16.06-.33.08-.5v0l.05,0,.58-.2.17-.05ZM55.36,50l-.12.08-.22.14-.06,0-.05,0-.19-.15L54.61,50h0l.11-.08.19-.14.05,0,0,0,.23.14.12.08ZM44,51.18l.13-.13,0,0,.05,0,.15,0,.15.05-.11.1-.11.12,0,0-.05,0-.18-.05-.15,0Zm-.24-.53.13-.1.15-.11,0,0,0,0,.15.07.14.06-.12.09-.12.1,0,0,0,0-.17-.07Zm.43,1.14.11-.15,0,0h.06l.16,0,.15,0-.1.12-.09.13,0,0h-.06l-.18,0-.16,0Zm.06-1.71-.13.08-.05,0,0,0-.16-.09L43.73,50h0l.14-.08.16-.09,0,0,.05,0,.13.09.13.08h0ZM41.54,51.4l-.08.09,0,0,0,0-.06,0,0,0-.13-.05.1-.1,0,0,0,0,.06,0,0,0Zm-.09-.46.1-.09.3-.25,0-.05.06,0,.3.17.11.07-.09.08-.25.24,0,.05-.07,0L41.57,51ZM40,51.61l.12,0-.09.1-.15.16,0,0-.06,0-.25-.09-.15-.05.12-.1.2-.17,0,0,.06,0Zm-.13-.48L40,51l.45-.36,0,0,.06,0,.44.25.11.06-.09.09c-.13.11-.25.23-.37.35l0,0-.06,0L40,51.2Zm-.25,1.15.13,0-.09.1c-.17.18-.33.37-.49.56l0,0H39.1l-.83-.22-.16,0,.12-.12c.2-.2.41-.4.63-.59l0,0L39,52Zm-1.1,1,.14,0-.09.11-.32.39,0,0h-.06l-.59-.09-.18,0,.12-.13.43-.43,0,0,.05,0Zm-.1,1.22,0,0h0l.52.07.14,0-.08.12-.27.44,0,0h-.06l-.62,0H38l.11-.14C38.2,54.81,38.33,54.65,38.45,54.48Zm.25-.38-.16,0,.1-.12c.18-.23.37-.45.55-.67l0,0h.06l.73.17.13,0-.07.11-.42.61,0,0h-.06Zm1.43-1L39.86,53l-.15,0,.1-.12.18-.2,0,0,.06,0,.22.07.13,0-.08.1-.13.19,0,0Zm.12-.77-.14,0,.1-.1.4-.41,0,0,.06,0,.47.19.12.05-.08.09-.32.39,0,0-.06,0Zm1.08-1.74,0,0,0,0-.05,0,0,0L41,50.49l.12-.08,0,0,.06,0,.05,0,0,0,.1.07Zm0-.93-.05,0-.06,0,0,0L41,49.51l.13-.07,0,0,.05,0,0,0,0,0,.09.08-.1.07Zm-1-2.32-.22.07-.06,0,0,0-.18-.2-.1-.12.15,0,.27-.05.06,0,0,0,.14.19.08.1Zm.5.24.06,0,0,0,.32.39.08.1-.12,0-.47.2-.06,0,0,0-.4-.41-.1-.1.14,0Zm-.8-1-.72.17h-.06l0,0c-.18-.22-.37-.44-.55-.67l-.1-.12.16,0,.87-.11h.06l0,0,.41.61.08.11Zm-1-1.1-.51.07h0l0,0L38.08,45,38,44.89h.18l.62,0h0l0,0,.27.44.08.12Zm-.77.72.32.39.09.11-.14,0-.49.13-.05,0,0,0-.43-.43-.12-.12.18,0,.59-.1h.06Zm0,1L39.1,47h.06l0,0c.16.19.32.38.49.56l.09.1-.13,0L39,48l-.06,0,0,0c-.21-.19-.43-.39-.63-.59l-.12-.11Zm1.29.95.25-.09.06,0,0,0,.15.17.09.09-.11,0-.21.1-.06,0,0,0-.2-.18-.12-.1Zm.47.66c.18-.09.35-.17.53-.24l.06,0,0,.05.37.34.09.09-.11.06-.44.25-.06,0,0,0L40,49l-.11-.09Zm1.36-.14-.06,0,0,0,0,0-.1-.1.13-.05,0,0,.06,0,0,0,0,0,.08.09-.11,0Zm.18.33.35-.17.07,0,0,.05.25.24.09.09-.11.06-.3.17-.06,0,0-.05-.3-.25-.1-.09Zm.52-.45-.06,0-.05,0-.26-.29-.09-.1.13,0,.37-.13.06,0,0,.06.22.27.08.09-.12,0Zm-.43-.82,0,0-.06,0-.05-.05,0,0-.09-.11.14,0h0l.07,0,0,0,0,0,.07.1Zm-.17-.57-.49.13-.06,0,0-.05-.34-.47-.09-.11.14,0,.58-.1.06,0,0,.06.27.43.07.1Zm-.77-.91-.22,0h-.06l0,0L40.25,46l-.09-.13.16,0,.27,0h.06l0,.06.11.19.06.12Zm-.2-.75-.74.08h-.06l0,0c-.16-.24-.31-.48-.46-.73l-.09-.14h1.1l0,.06c.11.22.22.44.34.66l.06.12Zm-.81-1.22h-.57l0,0-.31-.52-.08-.15h.17l.62,0h.05l0,.05.21.45.06.13Zm-1,.07.08.14h-.15l-1.13,0h-.05l0,0c-.27-.36-.53-.72-.79-1.09l-.11-.15h.19l1.36.07h.06l0,0Zm-1.34.39,0,0c.22.3.45.59.68.89l.09.12-.15,0c-.37,0-.74.12-1.1.18h0l0,0-.93-1-.12-.14.19,0,1.34-.09Zm-.57,1.47,0,0c.25.27.51.53.78.79l.11.11-.15.05-1.08.32-.05,0,0,0-1-.86-.14-.13.19,0c.44-.1.88-.18,1.33-.27Zm.39,1.49.58-.17.06,0,0,0c.12.12.24.24.37.35l.1.1-.13.06-.47.19-.06,0,0,0-.49-.38L37,47.75Zm.79.85.81-.32,0,0,0,0,.55.48.11.1-.12.06-.67.34-.05,0,0,0L38,48.71l-.13-.09Zm1.39.77.24-.12.06,0,.05,0,.17.14.11.08-.12.07-.19.12-.05,0,0,0-.23-.15-.13-.08Zm.56.6.49-.3.06,0,0,0,.41.3.1.07h0l-.1.08a3.91,3.91,0,0,0-.41.3l0,0-.06,0-.49-.3L39.83,50h0Zm-.29.41.05,0,.19.12.11.07-.1.08-.18.15,0,0-.06,0-.24-.12-.14-.07.13-.09.23-.15Zm-.23.78.13.07-.11.09-.55.48,0,0-.06,0-.8-.32-.15-.06.13-.1.69-.51,0,0,.05,0Zm-1.2.83.13.06-.1.1c-.13.11-.25.23-.37.35l0,0-.06,0-.58-.17-.17,0,.13-.11.49-.38,0,0,0,0Zm-.63.86.15.05-.11.11c-.27.26-.53.52-.78.79l0,0h0c-.45-.09-.89-.17-1.33-.27l-.19,0,.14-.13,1-.86,0,0,.05,0ZM36.85,54l0,0h0c.36.06.73.13,1.1.18l.15,0-.09.12-.69.89,0,.05h-.05c-.45,0-.9-.06-1.34-.09l-.2,0,.13-.14Zm.59,1.48,0,0h.05l1.13,0h.16l-.08.13-.55,1,0,0h0l-1.37.08h-.19l.11-.15Zm1.37.77.3-.51,0,0h.72l-.06.13-.21.45,0,.05h-.06l-.61,0h-.18Zm.5-.93h-.16l.08-.14c.15-.25.31-.49.46-.73l0,0h.05l.75.07h.14l-.07.13-.33.66,0,.05h-.93Zm1.34-1.2h-.06l-.27,0-.15,0,.08-.12.15-.22,0,0h.06l.23,0,.13,0-.07.11-.11.2Zm0-.79-.15,0,.09-.12c.11-.16.23-.31.34-.46l0,0H41l.48.14.13,0-.07.11c-.09.14-.18.28-.26.42l0,.06h-.06Zm1-.87h0l-.14,0,.09-.12,0,0,.05-.06.06,0h0l.12,0-.07.1,0,0,0,0Zm.18-.57-.13,0,.09-.1c.09-.09.17-.19.26-.29l.05,0,.06,0,.32.14.12,0-.08.09-.22.27,0,.06-.06,0ZM42.32,50l-.1.07-.28.22,0,0-.06,0-.33-.21L41.39,50h0l.11-.08.33-.21.06,0,0,0,.28.21.1.07Zm.32,0,.12-.08.23-.14,0,0,.05,0,.19.14.11.08h0l-.11.07-.19.15-.05,0-.06,0-.22-.14L42.64,50Zm1.59-1.38.05,0,0,0,.12.12.1.1-.14.05-.16,0-.05,0,0,0L44,48.82l-.11-.11.15,0Zm-.13-.53.16,0,.18,0h.06l0,0,.1.13.09.12-.15,0-.16,0h-.06l0,0-.12-.14Zm-.18,1.2.17-.07,0,0,0,0,.12.1.12.09-.14.06-.15.07,0,0,0,0-.15-.1-.12-.1Zm.87.71.22-.09.1,0h0l0,0,.09,0,.19.08h0l-.19.09-.09,0,0,0,0,0-.1,0L44.79,50Zm4.35,4.8s0-.09.08-.14l.07-.13.09.12.09.13,0,0,0,0a1.3,1.3,0,0,1-.08.17l-.07.14-.09-.13-.1-.15,0,0Zm0-1,0,0,0-.08.07-.2.1.19,0,.08,0,0v0l0,.11-.07.22-.11-.21a1,1,0,0,0,0-.1Zm0,2,.13-.2.07-.11.08.1.16.18,0,.05,0,.06-.13.23-.07.12-.09-.11-.16-.22,0-.05Zm.44-2.07v0l0-.08,0-.21.13.18a.43.43,0,0,1,0,.07l0,0v0a.44.44,0,0,1,0,.1l0,.23-.13-.2a.41.41,0,0,1,0-.09ZM49.15,57a2.83,2.83,0,0,0,.2-.28l.07-.1.08.09.23.26.05,0,0,.06c-.06.11-.12.22-.19.33l-.07.12-.09-.11a3.55,3.55,0,0,1-.23-.31l0-.05Zm.61-2.11,0-.05,0,0,.06-.15,0-.14.11.11.11.12,0,0,0,.05-.06.17,0,.15L49.88,55Zm.3-1.19v0s0-.06,0-.09l0-.22.14.17.06.06,0,0v0a.45.45,0,0,1,0,.11v.23l-.15-.18-.07-.08Zm-.17,2.1a2,2,0,0,0,.1-.21l.06-.12.09.09.18.16,0,0,0,.06-.1.24-.06.13-.1-.1-.19-.19,0,0Zm.48-1,0,0v-.06a.83.83,0,0,0,0-.15l0-.15.12.1.12.1.05,0v.05a1.16,1.16,0,0,1,0,.18l0,.15-.12-.1Zm.13-1.55.16.14.08.06,0,0v0a.34.34,0,0,0,0,.1v.24l-.17-.16-.08-.08,0,0v-.33Zm.12,2.45c0-.08.05-.15.07-.23l0-.12.11.08.19.14.06,0,0,.06a2,2,0,0,1-.07.26L51,56l-.11-.08-.21-.17,0,0ZM51,54.5l-.05,0v-.06a.88.88,0,0,0,0-.16l0-.15.13.08.14.09,0,0v.05c0,.06,0,.13,0,.19l0,.15-.13-.09Zm-.07-1.56.18.12.08,0,0,0v0s0,.07,0,.11l0,.23-.19-.14L51,53.3l0,0v0s0-.06,0-.09Zm.36-.26.19.1.09,0h0v0a.42.42,0,0,1,0,.1l.07.22-.21-.11-.09,0,0,0v0a.19.19,0,0,0,0-.08ZM49.16,50v0h-.31v0h0v0h.31v0h0Zm-.3-4.81-.08.14-.07.14-.09-.13-.09-.13,0,0,0,0A1.3,1.3,0,0,1,48.6,45l.07-.14.09.13.1.15,0,0Zm0,1,0,0,0,.08-.07.2-.1-.19s0-.05,0-.08l0,0v0l0-.11.07-.21.11.2a1,1,0,0,0,0,.1Zm0-2-.13.2-.07.11-.09-.1-.15-.18,0-.05,0-.06.13-.23.07-.12.09.11.16.21,0,.06Zm-.44,2.07v0l0,.08,0,.21-.12-.18-.06-.07,0,0v0a.36.36,0,0,1,0-.1l0-.23.13.2a.41.41,0,0,1,0,.09Zm.44-3.2-.2.28-.07.1-.08-.09-.23-.26-.05,0,0-.06c.06-.11.12-.22.19-.33l.07-.12.09.11a3.55,3.55,0,0,1,.23.31l0,.05Zm-.61,2.11,0,.05,0,0-.06.15,0,.14L48,45.44l-.11-.12,0,0,0-.05.06-.17,0-.15.11.12Zm-.3,1.19v0a.28.28,0,0,0,0,.09l0,.21-.15-.16-.06-.06,0,0v-.15l0-.23.15.18.07.08Zm.17-2.1-.11.21,0,.12-.1-.09a1.29,1.29,0,0,0-.17-.16l0,0,0-.05c0-.09.07-.17.1-.25l.06-.13.1.1.18.19,0,0Zm-.44,1.08,0,.06a.83.83,0,0,1,0,.15l0,.15-.12-.1-.13-.1,0,0V45.4a1.16,1.16,0,0,1,0-.18l0-.15.12.1.14.12Zm-.17,1.52-.17-.14-.07-.06,0,0v0a.34.34,0,0,0,0-.1v-.23l.17.15.08.08,0,0v.34Zm-.12-2.45c0,.08-.05.15-.07.23l0,.12-.11-.08-.2-.14-.05,0,0-.06a2,2,0,0,1,.07-.26l0-.13.11.08.22.17,0,0ZM47,45.5l.05,0v.06a.88.88,0,0,0,0,.16l0,.15-.13-.08-.14-.09-.05,0v-.05c0-.07,0-.13,0-.19l0-.15.13.08Zm.07,1.56-.18-.12-.08,0,0,0v0a.52.52,0,0,1,0-.11l0-.23.19.14.09.06,0,0v0s0,.06,0,.09Zm-.37.26-.19-.1-.08,0h0l0,0,0-.1-.07-.22.2.11.1,0,0,0v0l0,.08Zm1.67,6.43,0,0a.41.41,0,0,1,0,.09l-.13.2,0-.23a.44.44,0,0,1,0-.1v0l0,0a.43.43,0,0,1,0-.07l.13-.18,0,.21,0,.08Zm-.47-.1,0,0-.07.08-.15.18v-.23a.45.45,0,0,1,0-.11v0l0,0,.06-.06.14-.17,0,.22s0,.06,0,.09Zm-.44-.5v.33l0,0-.08.08-.17.16v-.24a.34.34,0,0,0,0-.1v0l0,0,.08-.06Zm-.39-.21,0,.21s0,.06,0,.09v0l0,0-.08.06-.19.14,0-.23s0-.07,0-.11v0l0,0,.08,0Zm-.64-.12.09,0,.19-.1-.06.21a.19.19,0,0,0,0,.08v0l0,0-.09,0-.21.11.07-.22a.42.42,0,0,1,0-.1v0Zm.3,1.45.14-.09L47,54.1l0,.15a.88.88,0,0,0,0,.16v.06l-.05,0-.15.1-.13.09,0-.15c0-.06,0-.13,0-.19V54.3Zm.2,1.2.19-.14.11-.08,0,.12c0,.08,0,.15.07.23l0,.06,0,0-.21.17L47,56l0-.13a2,2,0,0,1-.07-.26l0-.06Zm.4-.54,0-.15a1.16,1.16,0,0,1,0-.18v-.05l0,0,.13-.1.12-.1,0,.15a.83.83,0,0,0,0,.15v.06l0,0-.14.13Zm.31.74.18-.16.09-.09.06.12a2,2,0,0,0,.1.21l0,.06,0,0-.19.19-.1.1L47.75,56l-.1-.24,0-.06Zm.44-.7-.11.12,0-.15-.06-.17,0-.05,0,0,.11-.12.11-.11,0,.14.06.15,0,0,0,.05Zm.15,2,.23-.26.08-.09.07.1a2.83,2.83,0,0,0,.2.28l0,.06,0,.05a3.55,3.55,0,0,1-.23.31l-.09.11-.07-.12c-.07-.11-.13-.22-.19-.33l0-.06Zm.58-1-.16.22-.09.11-.07-.12-.13-.23,0-.06,0-.05.16-.18.08-.1.07.11.13.2,0,0Zm0-1-.1.15-.09.13L48.6,55a1.3,1.3,0,0,1-.08-.17l0,0,0,0,.09-.13.09-.12.07.13c0,.05,0,.1.08.14l0,.05Zm0-1.07a1,1,0,0,0,0,.1l-.11.21-.07-.22,0-.11v0l0,0a.59.59,0,0,0,0-.08l.1-.19.07.2,0,.08,0,0Zm2.35-8.1-.14.09L51,45.9l0-.15a.88.88,0,0,0,0-.16v-.06l.05,0,.15-.11.13-.08,0,.15c0,.06,0,.12,0,.19v.05Zm.08,1.38,0-.08v0l0,0,.1,0,.2-.11-.07.22,0,.1,0,0h0l-.08,0-.19.1Zm-.05-.61,0,.23a.52.52,0,0,1,0,.11v0l0,0-.08,0-.18.12,0-.21s0-.06,0-.09v0l0,0,.09-.06Zm-.22-2-.2.14-.11.08,0-.12c0-.08,0-.15-.07-.23l0-.06,0,0,.22-.17.11-.08,0,.13a2,2,0,0,1,.07.26l0,.06Zm-.25,1.73v.23a.34.34,0,0,0,0,.1v0l0,0-.06.06-.17.14v-.34l0,0,.08-.08Zm-.16-1.19,0,.15a1.16,1.16,0,0,1,0,.18v.05l-.05,0-.12.1-.12.1,0-.15a.83.83,0,0,1,0-.15l0-.06,0,0,.14-.12Zm-.31-.74a1.29,1.29,0,0,0-.17.16l-.1.09,0-.12-.11-.21,0-.06,0,0,.18-.19.1-.1.06.13c0,.08.07.16.1.25l0,.05Zm0,2.11,0,0-.06.06-.15.16,0-.21a.28.28,0,0,0,0-.09v0l0,0,.07-.08.15-.18,0,.23v.15ZM49.88,45l.11-.12,0,.15.06.17,0,.05,0,0-.11.12-.11.11,0-.14-.06-.15,0,0,0-.05Zm0,1.27,0,0-.06.07-.12.18,0-.21,0-.08v0l0,0a.41.41,0,0,1,0-.09l.13-.2,0,.23a.36.36,0,0,1,0,.1Zm-.13-3.22-.23.26-.08.09-.07-.1-.2-.28,0-.06,0-.05a3.55,3.55,0,0,1,.23-.31l.09-.11.07.12c.07.11.13.22.19.33l0,.06Zm-.58,1,.16-.21.09-.11.07.12.13.23,0,.06,0,.05-.16.18-.08.1-.07-.11-.13-.2,0,0Zm0,1,.1-.15.09-.13.07.14a1.3,1.3,0,0,1,.08.17l0,0,0,0-.09.13-.09.13-.07-.14-.08-.14,0-.05Zm0,1.07a1,1,0,0,0,0-.1l.11-.2.07.21,0,.11v0l0,0s0,.05,0,.08l-.1.19-.07-.2,0-.08,0,0Zm3.76,2.94-.08.06,0,0h-.12l-.22,0,.17-.13.07,0,0,0h.15l.23,0Zm.3.37-.21.11-.09,0,0,0h0l-.09,0-.2-.06.18-.11.08,0,0,0h0l.11,0Zm-.44-.85-.08.08,0,0h-.34l.15-.15.06-.07,0,0h.38Zm-.2-.45-.07.09,0,0h-.13l-.21,0,.13-.16a.35.35,0,0,0,.05-.08l0,0h0l.1,0,.24,0Zm-.26-.42-.06.09,0,0h0l-.09,0-.21.05.11-.19,0-.07,0,0h0l.1,0,.23,0Zm0-1.42v0l-.06,0-.15.05-.14,0,0-.15c0-.06,0-.11,0-.16v-.06l.06,0,.17-.06.15-.06,0,.16Zm-.23.82-.1.21a.93.93,0,0,0,0,.1l0,0h0l-.08,0-.2.07.08-.2a.2.2,0,0,0,0-.08v0h0l.1,0Zm-.25-1.38c0,.06,0,.12,0,.18v0l-.06,0-.14.07-.14.06v-.36l.05,0,.16-.09.14-.07Zm-.1-1-.22.11-.11.06,0-.12c0-.08,0-.16,0-.24l0-.06.06,0,.23-.14.12-.07,0,.13c0,.09,0,.18,0,.26v.07Zm-.26-1.35-.29.19-.1.07,0-.11c0-.11-.07-.22-.11-.33l0-.06,0,0,.31-.24.11-.09,0,.13.11.38v.06ZM51,42.66l0,0-.09.08,0-.11,0,0,0-.06,0,0,0,0,.11-.1,0,.14v0l0,.07ZM51,41.9c-.13.11-.26.22-.38.34l-.09.08-.06-.11-.22-.45,0-.06,0,0a5.33,5.33,0,0,1,.4-.42l.1-.11.05.13.21.54,0,.06Zm-.63.84.1-.1,0,.12.15.36,0,.06,0,0-.27.22-.09.09,0-.11c-.05-.11-.11-.21-.16-.31l0-.06,0-.05Zm-.26-.27,0,0-.09.08-.06-.1,0,0,0-.06.05-.05,0,0,.09-.11.07.13,0,0,0,.06Zm-.16-.75-.33.38-.08.1-.07-.11c-.09-.14-.18-.28-.28-.42l0-.05,0,0,.34-.47.08-.11.08.12.27.51,0,.05Zm-.77.62,0,0,0,0-.07.09-.07-.09,0,0,0,0,0-.06,0,0,.08-.12.08.12,0,0Zm-.29-.67c-.1.14-.19.28-.28.42l-.07.11-.08-.1-.33-.38,0,0,0-.05.27-.51.08-.12.08.11.34.47,0,0Zm-.76.62,0,0,.05.05,0,.06,0,0-.06.1L48,42.5l0,0,0,0,0-.06,0,0,.07-.13ZM48,43l0,.05,0,.06c-.05.1-.11.2-.16.31l0,.11-.09-.09-.27-.22,0,0,0-.06.15-.36,0-.12.1.1Zm-.16-1.25c-.08.15-.15.3-.22.45l-.06.11-.09-.08L47,41.9l0,0,0-.06.21-.54.05-.13.1.11a5.33,5.33,0,0,1,.4.42l0,0Zm-.78.61.11.1,0,0,0,0,0,.06,0,0,0,.11-.1-.08,0,0,0,0,0-.07v0Zm.06.83,0,0,0,.06c0,.11-.08.22-.11.33l0,.11-.1-.07-.29-.19,0,0v-.06l.11-.38,0-.13.11.09Zm-.43,1.35.06,0,0,.06c0,.08,0,.16,0,.24l0,.12-.11-.06-.22-.11-.05,0v-.07c0-.08,0-.17,0-.26l0-.13.12.07Zm-.32,1.14.16.09.05,0v.36l-.14-.06L46.25,46l-.06,0v0c0-.06,0-.12,0-.18v-.16Zm-.07,1.6h0v0a.2.2,0,0,0,0,.08l.08.2-.2-.07-.08,0h0l0,0,0-.1-.1-.21.22.09Zm-.33-.83-.15-.05-.06,0v0l0-.18,0-.16.15.06.17.06.06,0v.06s0,.1,0,.16l0,.15Zm-.1,1.16.11,0h0l0,0,0,.07.11.19-.21-.05-.09,0h0l0,0-.06-.09-.12-.19Zm-.17.43h0l0,0,.05.08.13.16-.21,0h-.13l0,0-.07-.09L45.31,48l.24,0Zm-.32.42h.14l0,0,.06.07.15.15h-.34l0,0-.08-.08-.17-.16Zm-.17.47h.15l0,0a.18.18,0,0,0,.07,0l.17.13-.22,0h-.12l0,0-.08-.06L44.93,49Zm-.11.48.11,0h0l0,0,.08,0,.18.11-.2.06-.09,0h0l0,0-.09,0-.21-.11Zm0,1,.1,0,0,0h0l.08,0,.21.06-.18.1-.08.05,0,0h0l-.11,0-.22-.06Zm.09.48.08-.06,0,0h.12l.22,0-.17.14a.18.18,0,0,0-.07,0l0,0h-.15l-.23,0Zm.14.48.08-.08,0,0h.34l-.15.15-.06.07,0,0h-.38Zm.2.45.07-.08,0,0h.13l.21,0-.13.17a.18.18,0,0,0-.05.07l0,0h0l-.1,0-.24,0Zm.26.42.06-.09,0,0h0l.09,0,.21,0-.11.18,0,.07,0,0h0l-.1,0-.23,0Zm0,1.42v0l.06,0,.15-.05.15,0,0,.15a.78.78,0,0,1,0,.16v.06l-.05,0-.18.06-.15.06,0-.16Zm.23-.82.1-.21a.93.93,0,0,0,0-.1l0,0h0l.08,0,.21-.07-.09.2a.59.59,0,0,1,0,.08v0h0l-.1,0Zm.25,1.38a1.09,1.09,0,0,0,0-.18v0l0,0,.15-.07.13-.06v.36l-.05,0-.16.09-.14.07Zm.11,1,.21-.11.11-.06,0,.12c0,.08,0,.16,0,.24l0,.06-.06,0-.23.14-.12.07,0-.13,0-.26V55.2Zm.25,1.35.29-.19.11-.07,0,.11c0,.11.07.22.11.33l0,.06,0,0-.31.24-.11.09,0-.13-.11-.38v-.06Zm.44.83,0,0,.1-.08,0,.11,0,0,0,.06,0,0,0,0-.11.09,0-.13v0l0-.06Zm.06.75.38-.33.09-.09.06.11a4.71,4.71,0,0,0,.22.45l0,.06,0,.05-.4.42-.1.1-.05-.13q-.12-.27-.21-.54l0-.05Zm.63-.83-.1.09,0-.12-.15-.36,0-.06,0,0,.27-.22.09-.09,0,.11c.05.11.11.21.16.31l0,.06L48,57C47.86,57.08,47.76,57.17,47.67,57.27Zm.26.27,0,0,.09-.09.06.1,0,0,0,.06-.05.05,0,0-.09.11-.07-.13,0,0,0-.06Zm.16.74.33-.38.08-.1.07.11c.09.14.18.28.28.42l0,.05,0,0-.34.47-.09.11-.07-.12-.27-.5,0-.06Zm.77-.62,0,0,0,0,.07-.09.07.09,0,0,0,0,0,.06,0,0-.08.12-.08-.12,0,0Zm.29.67.28-.42.07-.11.08.1.33.38,0,0,0,.06-.27.5-.07.12-.09-.11-.34-.47,0,0Zm.76-.62,0,0-.05-.05,0-.06,0,0,.06-.1.09.09,0,0,0,0,0,.06,0,0-.07.13Zm.14-.72,0-.05,0-.06c.05-.1.11-.2.16-.31l0-.11.09.09.27.22,0,0,0,.06-.15.36,0,.12-.1-.09C50.24,57.17,50.14,57.08,50.05,57Zm.16,1.25a4.71,4.71,0,0,0,.22-.45l.06-.11.09.09.38.33,0,0,0,.05q-.09.27-.21.54l-.05.13-.1-.1-.4-.42,0-.05Zm.78-.61-.11-.09,0,0,0,0,0-.06,0,0,0-.11.1.08,0,0,0,0,0,.06v0Zm-.06-.83,0,0,0-.06c0-.11.08-.22.11-.33l0-.11.11.07.29.19,0,0v.06l-.11.38,0,.13L51.24,57Zm.43-1.35-.06,0,0-.06c0-.08,0-.16,0-.24l0-.12.11.06.21.11.06,0v.07l0,.26,0,.13-.12-.07Zm.32-1.14-.16-.09-.05,0v-.36l.13.06.15.07,0,0v0a1.09,1.09,0,0,0,0,.18v.16Zm.07-1.6h0v0a.59.59,0,0,1,0-.08l-.09-.2.21.07.08,0h0l0,0a.93.93,0,0,0,0,.1l.1.21-.22-.09Zm.33.83.15.05.06,0v0l0,.18,0,.16-.15-.06L52,53.88l-.05,0V53.8a.78.78,0,0,1,0-.16l0-.15Zm.09-1.16-.1,0h0l0,0,0-.07-.11-.18.21,0,.09,0h0l0,0,.06.09.12.19Zm.17-.43h0l0,0a.18.18,0,0,0-.05-.07l-.13-.17.21,0h.13l0,0,.07.08.15.18-.24,0Zm.34-.42h-.15l0,0-.06-.07-.16-.15h.35l0,0,.08.08.17.16Zm.16-.47h-.15l0,0a.18.18,0,0,0-.07,0l-.17-.14.22,0h.12l0,0,.08.06.19.14Zm.11-.48-.11,0h0l0,0-.08-.05-.18-.1.21-.06.08,0h0l0,0,.1,0,.2.11Zm0-.49-.1,0,0,0,0,0-.09,0L52.54,50h0l.19-.08.09,0,0,0h0l.1,0,.22.09h0Zm1-1.27-.13.13,0,0-.05,0-.16,0-.14-.05.1-.1.12-.12,0,0,.06,0,.18.05.15,0Zm.23.53-.12.1-.15.1,0,0,0,0-.15-.07-.14-.06.12-.09.12-.1,0,0,0,0,.17.07Zm-.42-1.13-.12.14,0,0h-.06l-.16,0-.15,0,.09-.12.1-.13,0,0h.06l.18,0,.16,0Zm-.37,3.42.16,0h.06l0,0,.11.15.1.12-.16,0-.18,0H53.5l0,0a1.13,1.13,0,0,0-.1-.13l-.09-.12Zm.34-.26-.05,0,0,0-.11-.12-.11-.1.15-.05.15,0,.05,0,0,0,.13.13.11.11-.15,0Zm.31-.67-.17.07,0,0,0,0-.12-.1-.12-.09.14-.06.15-.07,0,0,0,0,.15.11.13.1Zm.05-.63-.16.09,0,0-.05,0-.13-.08L53.61,50h0l.13-.08.13-.09.05,0,0,0,.16.09.14.08h0Zm2.44,1.27,0,0,.06,0,0,0,0,0,.1.1-.13.05,0,0-.06,0,0,0,0,0-.08-.09ZM56.43,51l-.35.17-.07,0,0-.05-.25-.24-.09-.08.11-.07.3-.17.06,0,0,.05.3.25.1.09Zm0-2.4.08-.09,0,0,0,0,.06,0,0,0,.13.05-.1.1,0,0,0,0-.06,0,0,0Zm.09.46-.1.09-.3.25,0,.05-.06,0-.3-.17-.11-.06.09-.09.25-.24,0-.05.07,0,.35.17ZM58,48.39l-.11,0,.09-.09.15-.17,0,0,.06,0,.25.09.15.05-.12.1-.2.18,0,0-.06,0Zm.14.48L58,49l-.45.36,0,0-.06,0L57,49.08,56.88,49l.09-.09.37-.34,0-.05.06,0c.18.07.35.15.53.24Zm.25-1.15-.13,0,.09-.1c.17-.18.33-.37.49-.56l0,0h.06l.83.22.16,0-.12.11c-.2.2-.42.4-.63.59l0,0L59,48Zm1.1-1-.14,0,.09-.11.32-.39,0,0h.06l.59.1.18,0-.12.12-.43.43,0,0-.05,0Zm.1-1.22,0,0h0L59,45.48l-.15,0,.08-.12.27-.44,0,0h0l.62,0H60l-.11.14Zm-.25.38.16,0-.1.12c-.18.23-.37.45-.55.67l0,0h-.06L58,46.58l-.14,0,.08-.11.41-.61,0,0h.06Zm-1.43,1,.27.05.15,0-.1.12-.18.2,0,0-.06,0-.22-.07-.13,0,.08-.1.14-.19,0,0Zm-.12.77.14,0-.1.1-.41.41,0,0-.06,0-.47-.2-.12,0,.08-.1.32-.39,0,0,.06,0Zm-1.08,1.74,0,0,0,0,.05,0,0,0,.13.07-.12.08,0,0-.06,0-.05,0,0,0-.1-.07Zm0,.93.05,0,.06,0,0,0,.12.08-.13.08,0,0-.05,0,0,0,0,0-.09-.08.1-.07Zm1.72,1.47-.25.09-.06,0,0,0-.15-.16-.09-.1.12,0,.2-.1.06,0,0,0,.2.17.12.1ZM59,52l.06,0,0,0c.21.19.43.39.63.59l.12.12-.16,0L58.9,53h-.06l0,0c-.16-.19-.32-.38-.49-.56l-.09-.1.13,0ZM58,51.2l-.53.23-.06,0,0,0c-.12-.12-.24-.24-.37-.35L56.88,51l.11-.06.44-.25.06,0,0,0L58,51l.11.09Zm-1.16.7.47-.19.06,0,0,0,.4.41.1.1-.14,0-.56.17-.06,0,0,0L56.77,52,56.69,52Zm.88.8.22-.07.06,0,0,0,.18.2.1.12-.15,0-.27.05-.06,0,0,0-.13-.19-.08-.1Zm.29.72.73-.17h.06l0,0c.18.22.37.44.55.67l.1.12-.16,0-.87.11h-.06l0,0-.42-.61-.07-.11Zm1,1.1.52-.07h0l0,0c.12.17.25.33.37.49l.11.14h-.18l-.62,0h-.06l0,0-.27-.44-.08-.12Zm.78-.72-.32-.39-.09-.11.14,0,.49-.13.05,0,0,0,.43.43.12.13-.18,0-.59.09h-.06Zm.43-1.31,0,0c-.12-.12-.24-.24-.37-.35l-.1-.1.13-.06.48-.19,0,0,0,0,.48.38.14.11-.17,0-.58.17Zm-.15-1-.8.32-.06,0,0,0-.55-.48-.11-.09.13-.07.66-.33.05,0,0,0,.69.51.13.1Zm-1.39-.77-.24.12-.06,0-.05,0-.17-.15-.1-.08.11-.07.19-.12.05,0,0,0,.23.15.13.09ZM58.17,50l-.12.08-.49.3-.06,0,0,0a3.91,3.91,0,0,0-.41-.3l-.1-.08h0l.1-.07.41-.3,0,0,.06,0,.49.3.12.08Zm.17-.33-.05,0-.19-.12L58,49.44l.11-.08.17-.14.05,0,.06,0,.24.12.14.08-.13.08-.23.15Zm.22-.78-.12-.06.11-.1.55-.48,0,0,0,0,.81.32.15.07-.13.09-.69.51,0,0-.05,0Zm1.21-.83L59.64,48l.1-.1c.13-.11.25-.23.37-.35l0,0,.06,0,.58.17.17,0-.14.11-.48.38,0,0-.06,0Zm.63-.86-.15-.05.11-.11c.27-.26.53-.52.78-.79l0,0h0c.45.09.89.17,1.33.27l.19,0-.14.13-1,.86,0,0-.05,0ZM61.15,46l0,0h0c-.36-.06-.73-.13-1.1-.18l-.15,0,.09-.12c.23-.3.46-.59.68-.89l0,0h.06l1.34.09.19,0-.12.14Zm-.6-1.47,0,0h-.05l-1.13,0h-.16l.09-.14.55-1,0,0h.06l1.36-.07h.19l-.11.15C61.08,43.79,60.82,44.15,60.55,44.51Zm-1.35-.78-.31.52,0,0h-.71l.06-.13.21-.45,0-.05h.05l.62,0h.17Zm-.51.93h.17l-.09.14c-.15.25-.3.49-.46.73l0,0h-.06l-.74-.08h-.14l.06-.12c.12-.22.23-.44.34-.66l0-.06h.93Zm-1.34,1.2h.06l.27,0,.16,0-.09.13-.15.21,0,0H57.5l-.22,0-.13,0,.06-.12.11-.19Zm0,.79.14,0-.09.11-.34.47,0,.05-.06,0-.49-.13-.13,0,.07-.1.27-.43,0-.06.06,0Zm-1,.87h0l.14,0-.09.11,0,0-.05.05-.06,0,0,0-.12,0,.07-.1,0,0,0,0Zm-.18.57.13,0-.09.1-.26.29-.05,0-.06,0-.32-.14-.12,0,.08-.09.22-.27,0-.06.06,0Zm-.46,1.84.28-.21,0,0,.06,0,.33.21.11.08h0l-.11.08-.33.21-.06,0,0,0-.28-.22-.1-.07h0Zm-.19,1.66.32-.14.06,0,.05,0c.09.1.17.2.26.29l.09.1-.13,0-.37.13-.06,0,0-.06-.22-.27-.08-.09Zm.75.68h0l.06,0,.05.06,0,0,.09.12-.14,0h0l-.07,0,0,0,0,0-.07-.1Zm.17.58.48-.14h.07l0,0c.11.15.23.3.34.46l.09.12-.15,0-.57.11h-.06l0-.06c-.08-.14-.17-.28-.26-.42l-.07-.11Zm.76.9.23,0h.06l0,0,.15.22.08.12-.15,0-.27,0h-.06l0,0-.11-.2-.07-.11Zm.2.75.75-.07h.05l0,0c.15.24.31.48.46.73l.08.14H57.76l0-.05-.33-.66-.07-.13Zm.82,1.22h.57l0,0,.3.51.09.15H59.1l-.61,0h-.06l0-.05-.21-.45-.06-.13Zm1-.07-.08-.13h.16l1.13,0h.05l0,0,.79,1.08.11.15h-.19l-1.37-.08h0l0,0Zm1.36-.38,0-.05-.69-.89-.09-.12.15,0c.37,0,.74-.12,1.1-.18h0l0,0,.93,1,.13.14-.2,0c-.44,0-.89.07-1.34.09Zm.56-1.48,0,0c-.25-.27-.51-.53-.78-.79l-.11-.11.15-.05,1.08-.32.05,0,0,0,1,.86.14.13-.19,0c-.44.1-.88.18-1.33.27Zm.39-1.54,0,0-.88-.69-.13-.1.15-.06,1-.46,0,0,0,0,1.14.73.16.1-.18.06-1.29.43ZM61,50.82l-.56.25,0,0-.05,0-.4-.3-.12-.09.13-.07.45-.25,0,0,0,0,.52.31.15.09ZM60.25,50l-.14.08c-.25.15-.51.29-.76.42l-.06,0,0,0c-.21-.15-.41-.29-.62-.42L58.51,50h0l.11-.08c.21-.13.41-.27.61-.41l0,0,.05,0,.77.42.14.08Zm.19-.32,0,0-.45-.25-.13-.07.12-.09c.14-.09.27-.19.4-.29l.05,0,0,0,.56.25.16.07-.15.09-.52.31Zm.23-1-.15-.06.13-.1.88-.69,0,0h0l1.29.43.19.06-.16.1-1.15.73,0,0,0,0Zm1.62-1-.16-.06.13-.1L63,46.8l0,0h0l1.2.27.21.05-.18.12-1,.67,0,0h-.05Zm.62-1.45,0,0h-.05l-1-.19-.17,0,.12-.13.66-.71,0,0h0l1.22.11.21,0-.16.14Zm-.6-1.69,0,0h0l-1-.07H61.1l.1-.14.56-.78,0,0h0l1.21,0h.21l-.14.16C62.85,43.86,62.58,44.15,62.31,44.45Zm-.8-1.59,0,0h0l-1,.05h-.17l.08-.15.47-.86,0,0h0l1.22-.18.21,0-.12.18ZM60.4,42l-.65,1.18,0,0h0c-.38,0-.75,0-1.13.09H58.4l.06-.14c.15-.34.29-.69.43-1l0,0H59l1.34-.24.19,0Zm-1.61-.1,0,0h-.05l-1.1.23-.15,0,0-.15.3-1.07V40.9h0l1.3-.41.18,0-.07.17C59.12,41,59,41.44,58.79,41.85Zm-1.25.73,0,0h0l.6-.13.17,0-.06.16-.24.56,0,.05h0l-.51.06h-.14l0-.13Zm-.81,2.34,0-.06h.49l-.07.14a1.71,1.71,0,0,0-.13.23l0,.06H56.6l0-.12A1.8,1.8,0,0,0,56.73,44.92ZM56,46.61h.12l.14,0-.08.12,0,0,0,.06-.07,0h0l-.12,0,.06-.11,0,0Zm0,.6.14,0-.08.11a3.71,3.71,0,0,1-.23.32l0,.06-.06,0-.34-.1-.12,0,.07-.11.18-.29,0-.06h.07Zm-.63,2-.11.09-.2.17-.06,0,0,0-.21-.12-.12-.06.1-.09.17-.16.05-.05.06,0,.24.11Zm-.24-.67-.19.19,0,0-.06,0-.22-.09-.13,0,.09-.1.15-.19,0-.05.06,0,.26.09.13,0Zm-.24-.74-.15.22,0,0-.07,0L54.34,48l-.13,0,.07-.11.13-.2,0-.06h.07l.26.06.14,0Zm-.32-.7-.13.23,0,.06h-.07l-.24,0-.13,0,.06-.12.1-.21,0-.06h.06l.27,0h.14Zm-.9.39-.08.14-.09.15,0,.05H53l.07-.14s0-.09.08-.14l0,0h.39Zm-.41-.41c0,.06-.05.12-.08.17l0,.05h-.22l-.15,0,.05-.14.06-.16,0,0h.06l.18,0,.16,0ZM53,45.32l0,.26v.06l-.06,0-.24.05-.13,0v-.13c0-.08,0-.16,0-.24v-.06l.06,0,.26-.08.13,0Zm-.36,1.17.16,0,0,.15-.06.17,0,.06h0a.41.41,0,0,0-.16,0l-.15,0,0-.14a.83.83,0,0,1,0-.15v-.06h0Zm-.27-1.31-.06,0-.22.08-.12.05v-.13c0-.08,0-.16,0-.24v-.06l.06,0,.25-.11.13-.06v.47Zm-.68-2.35.06,0,0,0,.12-.08,0,.14v0l0,.06-.06,0,0,0-.1.06,0-.12v0Zm.24-.62-.41.28-.11.08,0-.12c0-.16-.1-.32-.16-.48l0-.06.05,0,.44-.37.12-.09,0,.14c.05.19.1.37.14.56l0,.06Zm-.45-1-.18.14-.1.09-.05-.12-.09-.22,0,0,.05,0a1.7,1.7,0,0,1,.19-.19l.11-.11,0,.14c0,.09.06.18.08.26l0,.06Zm-.11-1-.53.52-.1.1-.05-.13c-.1-.22-.2-.45-.31-.67l0,0,0-.05.56-.66.11-.12,0,.15c.1.27.19.55.28.82l0,0Zm-1,.72-.05.05-.15.16-.09.1-.06-.12-.12-.2,0,0,0-.05.16-.21.1-.12.07.14c0,.09.07.17.1.25ZM50.14,40l-.46.57-.08.11-.08-.12c-.12-.21-.25-.41-.38-.62l0,0,0,0,.47-.72.1-.13.07.14c.13.26.25.51.37.77l0,.05Zm-.92.78,0,0,0,.05-.13.18-.08.1-.08-.1-.13-.18,0-.05,0,0,.14-.23.08-.13.08.13Zm-.36-.84c-.13.21-.26.41-.38.62l-.08.12-.08-.11L47.86,40l0,0,0-.05c.12-.26.24-.51.37-.77l.07-.14.09.13c.17.24.32.48.48.72l0,0Zm-1,.67.16.21,0,.05,0,0-.12.2-.06.12-.09-.1L47.63,41l-.05-.05,0,0c0-.08.07-.16.1-.25l.07-.14Zm-.3-.58c-.11.22-.21.45-.31.67l-.05.13-.1-.1-.53-.52-.05,0,0,0c.09-.27.18-.55.28-.82l0-.15.11.12.56.66,0,.05Zm-1,.69.11.11a1.7,1.7,0,0,1,.19.19l.05,0,0,0-.09.22-.05.12-.1-.09-.18-.14,0,0,0-.06c0-.08,0-.17.08-.26Zm.15,1.18.05,0,0,.06c-.06.16-.11.32-.16.48l0,.12-.11-.08L46,42.21l-.06,0,0-.06c0-.19.09-.37.14-.56l0-.14.12.09Zm-.45,1,0,.06v0l0,.12L46.1,43l0,0-.06,0,0-.06v0l0-.14.12.08,0,0Zm-.55,1.94.25.11.05,0V45c0,.08,0,.16,0,.24v.13l-.12-.05-.22-.08-.06,0v-.47Zm-.12,2,0,.14-.15,0a.41.41,0,0,0-.16,0h0l0-.06-.06-.17,0-.15.16,0,.18,0h0v.06A.83.83,0,0,1,45.6,46.75Zm-.3-1-.24-.05-.06,0v-.06l0-.26v-.14l.13,0,.26.08.06,0v.06c0,.08,0,.16,0,.24v.13ZM45.08,47h.06l0,0a.76.76,0,0,0,.06.16l.05.14-.15,0H44.9l0-.05a.89.89,0,0,1-.08-.17L44.74,47l.16,0Zm-.3.51,0,0c0,.05,0,.1.08.14l.07.14h-.37l0-.05-.09-.15-.08-.14h.39ZM43.9,47l0,.06.1.21.06.12-.13,0-.24,0h-.07l0-.06-.13-.23L43.43,47h.14l.27,0Zm-.41.66h.07l0,.06.13.2.07.11-.13,0-.24.06-.06,0,0,0-.15-.22-.08-.11.14,0Zm-.26.7.06,0,0,.05.15.19.09.1-.13,0-.22.09-.06,0,0,0-.19-.19-.09-.11.13,0Zm-.17.73.06,0,.05.05.17.16.1.09-.12.06-.21.12,0,0-.06,0-.2-.17-.11-.09.13-.07Zm-.39-1.43-.34.1-.06,0,0-.06a3.71,3.71,0,0,1-.23-.32l-.08-.11.14,0,.38-.08h.07l0,.06.18.29.07.11ZM42,46.84h0l-.06,0,0-.06,0,0-.08-.12.14,0H42l0,.06,0,0,.06.11Zm-.74-1.58H41l0-.06a1.71,1.71,0,0,0-.13-.23l-.07-.14h.49l0,.06.09.21,0,.12Zm-.76-2.07L40,43.13h0l0-.05-.24-.56-.06-.16.17,0,.6.13h0l0,0,.15.49,0,.13Zm-.13-1-1.1-.23h-.06v0c-.17-.41-.34-.83-.49-1.25l-.07-.17.18,0,1.3.41h0V41l.3,1.07,0,.15ZM39,42.05h.05l0,0c.14.34.28.69.43,1l.06.14h-.15c-.38,0-.75-.07-1.13-.09h0l0,0c-.23-.39-.44-.79-.65-1.18l-.09-.17.19,0Zm-1.4.76.08.15h-.17l-1-.05h0l0,0-.69-1-.12-.18.21,0,1.22.18h0l0,0Zm-1.4.67.56.78.1.14h-.17l-1,.07h0l0,0c-.27-.3-.54-.59-.8-.89l-.14-.16H35l1.21,0h0Zm-.76,1.58,0,0,.66.71.12.13-.17,0-1,.19h-.05l0,0-.92-.8L34,45.2l.21,0,1.22-.11ZM35,46.77l0,0,.74.63.13.1-.16.06-.93.31h-.05l0,0-1-.67-.18-.12.21-.05,1.2-.27Zm.12,1.42,1.29-.43h0l0,0,.88.69.13.1-.15.06-1,.46,0,0,0,0-1.15-.73-.16-.1Zm1.92,1,.56-.25,0,0,.05,0c.13.1.26.2.4.29l.12.09-.13.07-.45.25,0,0,0,0L37,49.34l-.15-.09Zm.88.74.77-.42.05,0,0,0c.2.14.4.28.61.41l.11.08h0l-.12.08c-.21.13-.41.27-.62.42l0,0-.06,0c-.25-.13-.51-.27-.76-.42L37.75,50h0Zm-.33.4,0,0,.45.25.13.07-.12.09-.4.3-.05,0,0,0L37,50.82l-.16-.07.15-.09.52-.31Zm-.23,1,.15.06-.13.1-.88.69,0,0h0l-1.29-.43-.18-.06.16-.1,1.14-.73,0,0,0,0Zm-1.62,1,.16.06-.13.1L35,53.2l0,0h0L33.73,53l-.21,0,.18-.12,1-.68,0,0h0Zm-.62,1.45,0,0h.05l1,.19.17,0-.12.12-.67.72,0,0h0l-1.22-.12-.21,0,.16-.14Zm.59,1.69,0,0h0l1,.08h.17l-.1.13-.56.78,0,0h0L35,56.6h-.21l.14-.15Zm.81,1.59,0,0h0l1,0h.16l-.08.14-.46.86,0,0h0l-1.22.19-.21,0,.12-.18Zm1.12.91c.21-.39.42-.79.64-1.18l0,0h0l1.12-.08.16,0-.06.14c-.15.34-.29.69-.43,1l0,0h-.05l-1.34.24-.19,0Zm1.6.1,0,0h.05l1.1-.23.15,0,0,.15-.3,1.07v.05h0l-1.29.41-.18,0,.07-.18C38.88,59,39.05,58.56,39.21,58.15Zm1.25-.73,0,0h0l-.59.13-.18,0,.07-.16.24-.56,0-.05H40l.5-.06h.14l0,.13Zm.8-2.34,0,.06h-.48l.07-.14.12-.24,0-.06h.42l0,.12ZM42,53.39h-.26l.08-.13,0,0,0-.06.07,0h0l.12,0-.06.11,0,0Zm0-.6-.14,0,.08-.11a3.71,3.71,0,0,1,.23-.32l0-.06.06,0,.34.1.12,0-.07.11-.18.29,0,.06h-.07Zm.63-2,.11-.1.2-.17,0,0,.06,0,.21.12.11.06-.09.09-.18.16,0,.05-.06,0-.24-.11Zm.24.66.19-.19,0,0,.06,0,.22.09.13,0-.09.1-.15.19,0,.05-.06,0L43,51.6l-.13,0Zm.24.74.15-.22,0,0,.06,0,.24.06.12,0-.07.11-.12.2,0,.06h-.06l-.26-.06-.14,0Zm.32.7.13-.23,0-.06h.07l.23,0,.14,0-.06.12a2,2,0,0,0-.1.21l0,.06h-.06l-.27,0h-.14Zm.89-.39.08-.14.1-.15,0-.05H45l-.07.14s0,.09-.08.14l0,0h-.4Zm.42.41c0-.06.05-.12.08-.17l0-.05h.22l.16,0-.06.14-.06.16,0,0h-.06l-.18,0-.16,0ZM45,54.69l0-.27v-.06l.06,0,.24-.05.13,0v.12c0,.08,0,.16,0,.24v.06l-.06,0-.26.08-.13,0Zm.36-1.17-.16,0,0-.15.06-.17,0-.06h0l.16,0,.15,0,0,.14a.83.83,0,0,1,0,.15v.06h0Zm.27,1.3.06,0,.22-.08.13-.05v.13c0,.08,0,.16,0,.24v.06l-.06,0-.25.11-.13.06v-.47Zm.68,2.35-.06,0,0,0-.12.09,0-.15v0l0-.07.06,0s0,0,0,0l.1-.07,0,.12v0ZM46,57.8l.41-.29.11-.08,0,.12c0,.16.1.32.16.48l0,.06-.05,0c-.14.13-.29.25-.44.37l-.12.09,0-.14c-.05-.18-.1-.37-.14-.56l0-.06Zm.45,1,.18-.15.1-.08.05.12a1.8,1.8,0,0,1,.08.21l0,.06-.05,0-.19.19-.11.11,0-.15-.08-.26,0-.06Zm.11,1,.53-.52.1-.09.05.12.3.67,0,0,0,.05-.56.66-.11.12,0-.15c-.1-.27-.19-.54-.28-.81l0-.06Zm1-.72,0,0,.16-.17.09-.09.06.11.12.2,0,0,0,.05-.17.21-.09.12-.07-.14-.1-.24Zm.27.94c.16-.19.32-.38.47-.58l.08-.11.07.12.39.63,0,0,0,.05-.48.72-.09.14-.07-.15-.38-.78,0-.05Zm.93-.78,0-.06,0-.05.13-.18.08-.1.08.1.13.18,0,.05,0,.06c0,.07-.09.15-.14.23l-.08.13-.08-.13C48.87,59.41,48.83,59.33,48.78,59.26Zm.36.84.39-.63.07-.12.08.11c.15.2.31.39.47.58l0,0,0,.05-.38.78-.07.15-.09-.14-.48-.72,0-.05Zm1-.68L50,59.21l0-.05,0,0,.12-.2.06-.11.09.09.16.17,0,0,0,.06-.1.24-.07.14Zm.3.58.3-.67.05-.12.1.09.53.52,0,0v.06c-.09.27-.18.54-.28.81l0,.15L51,60.76l-.56-.66,0-.05Zm1-.68-.11-.11L51.13,59l-.05,0,0-.06a1.8,1.8,0,0,1,.08-.21l.05-.12.1.08.18.15,0,0,0,.06-.08.26Zm-.15-1.19-.05,0,0-.06c.06-.16.11-.32.16-.48l0-.12.11.08.41.29.06,0,0,.06c0,.19-.09.38-.14.56l0,.14-.11-.09C51.57,58.38,51.42,58.26,51.28,58.13Zm.45-1,0-.06v0l0-.12.1.07s0,0,0,0l.06,0,0,.07v0l0,.15-.12-.09,0,0Zm.55-1.94L52,55.12l-.06,0V55c0-.08,0-.16,0-.24v-.13l.13.05.22.08.06,0v.47Zm.12-2,0-.14.15,0,.16,0h0l0,.06.06.17,0,.15-.16,0-.18-.05h0V53.4A.83.83,0,0,1,52.4,53.25Zm.3,1,.24.05.06,0v.06l0,.27v.13l-.13,0-.26-.08-.06,0v-.06c0-.08,0-.16,0-.24v-.12ZM52.92,53h-.06l0,0-.06-.16-.06-.14.16,0h.22l0,.05s.05.11.08.17l.06.14-.16,0Zm.3-.51,0,0c0-.05,0-.1-.08-.14L53,52.18h.37l0,.05.09.15.09.14h-.4Zm.88.55,0-.06a2,2,0,0,0-.1-.21l-.06-.12.14,0,.23,0h.07l0,.06.13.23.06.13h-.14l-.27,0Zm.41-.66h-.06l0-.06-.12-.2L54.22,52l.12,0,.23-.06.07,0,0,0,.15.22.08.11-.14,0Zm.26-.7-.06,0,0-.05-.15-.19-.09-.1.13,0,.22-.09.06,0,0,0,.19.19.09.11-.13,0Zm.17-.73-.06,0,0-.05-.18-.16-.1-.09.12-.06.21-.12.06,0,0,0,.2.17.11.1-.13.06Zm.39,1.43.34-.1.06,0,0,.06a3.71,3.71,0,0,1,.23.32l.08.11-.14,0-.38.08h-.07l0-.06-.18-.29-.07-.11Zm.66.77h0l.07,0,0,.06,0,0,.08.13H56l0-.06,0,0-.06-.11Zm.74,1.58H57l0,.06.12.24.07.14h-.48l0-.06a1.8,1.8,0,0,0-.08-.21l0-.12Zm.76,2.07.5.06h.06l0,.05.24.56.07.16-.18,0-.59-.13h0l0,0-.15-.49,0-.13Zm.13,1,1.1.23h.05l0,0c.16.41.33.83.48,1.24l.07.18-.18,0-1.29-.41h0v-.05L57.51,58l0-.15ZM59,58H58.9l0,0c-.14-.34-.28-.69-.43-1l-.06-.14.16,0,1.12.08h0l0,0c.22.39.43.79.64,1.18l.09.17-.19,0Zm1.41-.76-.08-.14h.16l1,0h0l0,0,.69,1,.12.18-.21,0-1.22-.19h0l0,0Zm1.4-.67-.56-.78-.1-.13h.17l1-.08h0l0,0,.79.9.14.15H63l-1.21,0h0Zm.76-1.58,0,0-.67-.72-.12-.12.17,0,1-.19h.05l0,0,.92.8.16.14-.21,0-1.22.12ZM63,53.23l0,0-.74-.63-.13-.1.16-.06.93-.31h0l0,0,1,.68.18.12-.21,0-1.19.27Zm.31-1.76,0,0-.82-.53-.15-.09.16-.07.87-.42,0,0,0,0,1.09.55.19.1-.2.07-1.14.4ZM63.19,50l-.17.08-1.22.58,0,0,0,0-1-.57L60.62,50h0l.13-.08,1-.57,0,0,0,0,1.22.58.16.08Zm.21-.31,0,0-.87-.42-.15-.07.14-.09.83-.53,0,0,0,0,1.13.4.2.07-.19.1-1.09.55Zm.29-1.43-.18-.06.16-.11c.5-.32,1-.66,1.48-1l0,0h0c.73.17,1.47.35,2.2.54l.23.06-.21.11c-.66.36-1.33.72-2,1.07l0,0,0,0Zm1.49-1.41,0,0H65.1l-1.76-.4-.18,0,.14-.12,1.35-1.19,0,0h0c.77.08,1.53.17,2.29.27l.24,0-.19.13C66.44,46,65.81,46.41,65.18,46.85Zm-.53-2,0,0h0l-1.8-.18H62.6l.12-.14,1.17-1.32,0,0h2.57l-.17.16ZM63.86,43l0,0h0l-1.79,0h-.18l.1-.15c.34-.49.68-1,1-1.48l0,0h0l2.25-.3.24,0-.15.18Zm-1-1.79,0,0H62.8c-.59.08-1.19.17-1.78.27l-.19,0,.09-.17.81-1.58,0,0h0L64,39.16l.24-.06-.13.2Zm-1.82-.91c-.18.36-.36.72-.55,1.08l0,0h0l-1,.16-.16,0,.06-.15.34-.9,0-.05h.05l1.17-.34.21,0ZM59.3,40v0h0l-.93.29-.16,0,0-.16c.07-.31.15-.62.22-.93v0l0,0,1.12-.48.19-.08-.07.2C59.58,39.27,59.44,39.64,59.3,40Zm-1.09-2.36c-.08.39-.17.78-.26,1.17v.05l0,0-.88.39-.15.07,0-.16c0-.32.07-.64.11-1v0l0,0,1-.6.19-.1Zm-.34,1.65.18-.07,0,.18c-.1.43-.21.86-.32,1.29v0h-.05l-1.06.36-.15,0,0-.15c.06-.36.11-.73.16-1.09v0l0,0ZM57,42.46l.16,0-.05.16c-.09.27-.17.54-.26.82l0,.05h-.06l-.73.11-.14,0,0-.14c.05-.23.11-.47.16-.72v0l.06,0Zm-.77,2.24h.15l-.05.14c-.07.17-.15.35-.22.53l0,.06h-.7l0-.13a3.68,3.68,0,0,0,.15-.47l0-.06h.07Zm-.81,1.18v0l0-.06h.27l-.06.13,0,0,0,.06h-.24Zm.07.5h.14l-.06.12a3.72,3.72,0,0,1-.19.34l0,.06h-.06l-.35,0-.12,0,0-.11.14-.32,0-.06h.07A2.56,2.56,0,0,1,55.53,46.38ZM55,45.6h.14l0,.12c0,.13-.09.25-.14.37l0,.06h-.54l0-.11a3.37,3.37,0,0,0,.1-.34l0-.06h.07Zm-.17-.37,0-.11V45h.27l-.05.13v0l0,.07h-.24Zm-.37-1,0,.14v.11h-.11l-.12,0v-.23l.07,0h.05Zm-.07.63.14,0,0,.13-.09.38,0,.07h-.07l-.34,0-.13,0,0-.13L54,45V45H54Zm-1.18.89.27,0,.14,0,0,.13-.06.26,0,.06h-.06l-.24,0-.13,0,0-.13c0-.07,0-.15,0-.23V45.8Zm-.2-1.5-.33.12-.12.05v-.13l0-.34v-.07l.06,0,.36-.16.13-.06v.14c0,.13,0,.26,0,.39v.06Zm-.41-1.06.06,0,0,0,.12-.06,0,.14v.12l-.06,0,0,0-.11.05,0-.12v-.11Zm0-2.66-.59.45-.11.08,0-.13-.21-.71,0,0,0,0,.64-.58.13-.11,0,.16c.06.28.12.56.17.84v.06Zm-.46-1.33-.38.34-.1.1-.05-.14c0-.16-.11-.32-.17-.48l0,0,0,0,.41-.45.12-.13,0,.17c0,.2.09.4.14.59v.06ZM52,37.83l-.76.81-.1.12-.06-.15c-.12-.34-.25-.68-.39-1l0,0,0,0,.81-1.08.11-.15.05.19c.12.42.24.85.35,1.28v0Zm-1.24,1,0,.05,0,0-.34.39-.09.11-.07-.13-.22-.45,0,0,0,0c.11-.17.23-.33.35-.5l.1-.14.06.16Zm-.33-1.28-.65.91-.09.13-.07-.14-.53-1,0,0,0,0c.22-.4.44-.79.67-1.18l.1-.16.07.17.51,1.24,0,0Zm-1.11,1.16,0,0,0,0c-.1.14-.19.28-.28.42l-.08.12-.08-.12-.28-.42,0,0,0,0c.09-.18.18-.36.28-.54L49,38l.08.15C49.18,38.35,49.27,38.53,49.36,38.71Zm-.49-1.23-.53,1-.07.14-.09-.13-.65-.91,0,0,0,0L48,36.22l.07-.17.1.16c.23.39.45.78.67,1.18l0,0Zm-1.3.77c.12.17.24.33.35.5l0,0,0,0-.22.45-.07.13-.09-.11-.34-.39,0,0,0-.05.21-.56.06-.16Zm-.3-.67c-.14.35-.27.69-.39,1l-.06.15-.1-.12L46,37.83l0,0v0c.11-.43.23-.86.35-1.28l.05-.19.11.15.81,1.08,0,0Zm-1.34,1,0-.17.12.13.41.45,0,0v0c-.06.16-.12.32-.17.48l-.05.14-.1-.1-.38-.34,0,0v-.06C45.84,39,45.88,38.75,45.93,38.55Zm.36,1.61,0,0,0,0c-.07.24-.15.47-.21.71l0,.13L46,41l-.59-.45,0,0v-.06c0-.28.11-.56.17-.84l0-.16.13.11Zm-.91,3.06v.11l0,.12-.11-.05,0,0-.06,0v-.12l0-.14.12.06,0,0Zm-.33.51.36.16.06,0V44l0,.34v.13l-.12-.05L45,44.28l-.06,0V44.2c0-.13,0-.26,0-.39v-.14Zm-.14,2.49-.13,0-.24,0h-.06l0-.06-.06-.26,0-.13.14,0,.27,0,.06,0v.06c0,.08,0,.16,0,.23Zm-.8-.85,0,.13-.13,0-.34,0h-.07l0-.07L43.48,45l0-.13.14,0L44,45H44V45Zm-.59-1.11.14,0h.05l.07,0v.23l-.12,0h-.11V44.4Zm-.15,1.36h.07l0,.06a3.37,3.37,0,0,0,.1.34l0,.11h-.54l0-.06c-.05-.12-.1-.24-.14-.37l0-.12H43ZM43,45.23h-.12l0-.07v0L42.83,45h.27v.11l0,.11Zm-.17,1.12h.07l0,.06.14.32,0,.11-.12,0-.35,0h-.06l0-.06a3.72,3.72,0,0,1-.19-.34l-.06-.12h.14A2.56,2.56,0,0,1,42.86,46.35Zm-.4-.35h-.11l0-.06,0,0-.06-.13h.27l0,.06v0l.05.11Zm0-.59h-.57l0-.06c-.07-.18-.15-.36-.22-.53l-.05-.14h.15l.57,0h.07l0,.06a3.68,3.68,0,0,0,.15.47l0,.13Zm-.53-1.84-.73-.11h-.06l0-.05c-.09-.28-.17-.55-.26-.82l-.05-.16.16,0,.84.2.06,0v0c.05.25.11.49.16.72l0,.14Zm-.52-3.68v0c.05.36.1.73.16,1.09l0,.15-.15,0-1.06-.36h-.05v0c-.11-.43-.22-.86-.32-1.29l0-.18.18.07,1.22.56Zm-.41-.6-.88-.39,0,0v-.05c-.09-.39-.18-.78-.26-1.17l0-.2.19.1,1,.6,0,0v0c0,.33.07.65.11,1l0,.16Zm-1.18,1,0,.16-.16,0-.93-.29h0v0c-.14-.38-.28-.75-.41-1.12l-.07-.2.19.08,1.12.48,0,0v0C39.66,39.63,39.74,39.94,39.81,40.25ZM38.7,41.61l-.16,0-1-.16h0l0,0c-.19-.36-.37-.72-.55-1.08l-.1-.18.21,0,1.17.34h.05l0,.05.34.9Zm-1.62-.24.09.17-.19,0c-.59-.1-1.19-.19-1.78-.27h-.05l0,0-1.25-1.9-.13-.2.24.06,2.22.58h0l0,0Zm-2,0,0,0c.33.5.66,1,1,1.48l.1.15H36l-1.79,0h0l0,0-1.48-1.74-.15-.18.24,0,2.25.3Zm-1,1.79,0,0,1.17,1.32.12.14h-.18l-1.8.18h0l0,0-1.67-1.52-.17-.16h2.57Zm-.76,1.89,0,0L34.7,46.3l.14.12-.18,0-1.76.4h0l0,0c-.63-.44-1.26-.88-1.88-1.33l-.19-.13.24,0c.76-.1,1.52-.19,2.29-.27Zm-.5,2,0,0c.49.34,1,.68,1.48,1l.16.11-.18.06-1.68.6,0,0,0,0c-.68-.35-1.35-.71-2-1.07l-.21-.11.23-.06c.73-.19,1.47-.37,2.2-.54ZM33.48,49l1.13-.4,0,0,0,0,.83.53.14.09-.15.07-.87.42,0,0,0,0-1.09-.55-.19-.1Zm1.5,1,1.22-.58,0,0,0,0,1,.57.13.08h0l-.14.08-1,.57,0,0,0,0L35,50.08,34.81,50h0Zm-.38.39,0,0,.87.42.16.07-.15.09-.82.53,0,0,0,0-1.14-.4-.2-.07.19-.1,1.09-.55Zm-.29,1.43.18.06-.16.11-1.47,1,0,0h0c-.74-.17-1.47-.35-2.21-.54l-.23-.05.21-.12,2-1.07,0,0,0,0C33.19,51.34,33.75,51.55,34.31,51.74Zm-1.49,1.42,0,0h0l1.76.4.18,0-.14.12-1.35,1.19,0,0h0L31,54.65l-.24,0,.19-.14C31.57,54,32.19,53.59,32.82,53.16Zm.53,2,0,0h0q.9.11,1.8.18l.18,0-.12.13c-.4.44-.79.88-1.17,1.33l0,0h0l-2.3,0H31.5l.18-.16ZM34.14,57l0,0h0l1.78,0h.19l-.11.16c-.34.48-.67,1-1,1.47l0,0h0q-1.12.16-2.25.3l-.24,0,.15-.18C33.15,58.17,33.64,57.59,34.14,57Zm1,1.78,0,0h.05c.6-.08,1.19-.17,1.79-.27l.19,0-.09.17-.81,1.58,0,0h0L34,60.84l-.24.06.13-.2Zm1.83.9.55-1.07,0,0h0l1-.16.16,0-.06.15c-.12.3-.23.6-.34.9l0,.05h0l-1.17.33-.21.06Zm1.75.28v0h.05l.92-.29.16,0,0,.16c-.07.31-.15.62-.22.93v0l0,0-1.1.47-.2.08.07-.19C38.43,60.72,38.57,60.35,38.71,60Zm1.07,2.37.27-1.18v-.05l0,0,.89-.4.15-.06,0,.16c0,.32-.08.65-.11,1v0l0,0-1.06.61-.18.11Zm.35-1.66-.18.07,0-.18c.1-.43.21-.86.32-1.29v0h.05l1.07-.36.15-.06,0,.16c0,.36-.11.72-.16,1.09v0l0,0ZM41,57.54l-.16,0,.05-.15c.09-.28.17-.55.26-.82l0-.06h.06l.74-.11.14,0,0,.14-.15.71v.06l-.06,0Zm.77-2.24h-.15l.05-.13.22-.54,0-.06h.7l0,.13-.15.47,0,.07h-.06Zm.82-1.18,0,0,0,.06h-.27l.06-.13,0,0,0-.06h.24Zm-.08-.5h-.14l.06-.12a3.72,3.72,0,0,1,.19-.34l0-.06h.06l.35,0,.12,0,0,.11L43,53.6l0,.06h-.07A2.56,2.56,0,0,1,42.47,53.62Zm.51.78h-.14l0-.13c0-.12.09-.25.14-.37l0-.06h.54l0,.12c0,.11-.07.22-.1.33l0,.06h-.07Zm.17.37,0,.11V55h-.27l.05-.13v0l0-.07h.24Zm.37,1,0-.14v-.11h.11l.12,0v.23l-.07,0h-.05Zm.07-.63-.14,0,0-.13.09-.38,0-.06h.07l.34,0,.13,0,0,.13-.06.34V55H44Zm1.18-.89-.27,0-.14,0,0-.14.06-.26,0-.06h.06l.24,0,.13,0,0,.13c0,.07,0,.15,0,.23v.06Zm.2,1.5.33-.12.12,0v.12l0,.34v.07l-.06,0-.36.15-.13.06v-.14c0-.13,0-.26,0-.39v-.06Zm.41,1.06-.06,0,0,0-.13.07v-.26l.06,0,0,0,.11-.05,0,.12v.11Zm0,2.66L46,59l.11-.09,0,.14.21.7,0,.06,0,0-.64.58-.12.11,0-.16c-.06-.28-.12-.56-.17-.85v-.05Zm.46,1.33.38-.33.11-.1,0,.13.17.48v0l0,0-.41.45-.12.13,0-.17c0-.2-.09-.39-.14-.59v0Zm.14,1.4.76-.81.1-.12.06.15c.12.34.26.69.39,1l0,0,0,0-.8,1.08-.12.15-.05-.18c-.12-.43-.24-.87-.35-1.3v0Zm1.24-1,0-.05,0,0,.34-.39.09-.1.06.12.23.46,0,0,0,0-.34.5-.11.14-.06-.16Zm.33,1.29c.22-.3.44-.6.65-.91l.09-.13.07.14c.17.33.35.66.53,1l0,.05,0,0c-.22.39-.44.78-.67,1.17l-.09.16L48,63.79l-.51-1.24,0,0Zm1.1-1.15,0-.05,0,0,.28-.42.08-.12.08.12.28.42,0,0,0,.05-.29.53L49,62l-.08-.16Zm.5,1.23c.18-.32.36-.65.53-1l.07-.14.09.13c.21.31.43.61.65.91l0,0,0,0L50,63.79l-.08.17-.09-.16c-.23-.39-.45-.78-.67-1.17l0,0Zm1.29-.78-.34-.5,0,0,0,0,.23-.46.06-.12.09.1.34.39,0,0,0,.05-.21.57-.06.16Zm.31.67c.13-.35.27-.7.39-1l.06-.15.1.12.76.81,0,0v0c-.11.43-.23.87-.35,1.3l-.05.18-.12-.15-.8-1.08,0,0Zm1.34-1,0,.17-.12-.13L51.5,61l0,0v0l.17-.48,0-.13.11.1.38.33,0,0v0C52.16,61.06,52.12,61.25,52.07,61.45Zm-.36-1.6,0,0,0-.06.21-.7,0-.14.11.09.59.44,0,0v.05c0,.29-.11.57-.17.85l0,.16-.12-.11Zm.91-3.07v-.11l0-.12.11.05,0,0,.06,0v.26l-.13-.07,0,0Zm.33-.51-.36-.15-.06,0V56l0-.34v-.12l.12,0,.33.12.06,0v.06c0,.13,0,.26,0,.39v.14Zm.14-2.49.13,0,.24,0h.06l0,.06.06.26,0,.14-.14,0-.27,0-.06,0v-.06c0-.08,0-.16,0-.23Zm.8.85,0-.13.13,0,.34,0h.07l0,.06.09.38,0,.13-.14,0L54,55H54V55Zm.59,1.11-.14,0h-.05l-.07,0v-.23l.12,0h.11v.11Zm.15-1.36h-.07l0-.06c0-.11-.06-.22-.1-.33l0-.12H55l0,.06c.05.12.1.25.14.37l0,.13H55Zm.34.39h.12l0,.07v0l.05.13H54.9v-.11l0-.11Zm.17-1.12h-.07l0-.06-.14-.32,0-.11.12,0,.35,0h.06l0,.06a3.72,3.72,0,0,1,.19.34l.06.12h-.14A2.56,2.56,0,0,1,55.14,53.65Zm.39.35h.12l0,.06,0,0,.06.13h-.27l0-.06,0,0,0-.11Zm0,.59h.57l0,.06.22.54.05.13h-.15l-.58,0h-.06l0-.07-.15-.47,0-.13Zm.52,1.84.74.11h.06l0,.06c.09.27.17.54.26.82l.05.15-.16,0-.85-.2-.06,0v-.06L56,56.55l0-.14Zm.52,3.68v0c0-.37-.1-.73-.15-1.09l0-.16.15.06,1.07.36h.05v0c.11.43.22.86.32,1.29l0,.18-.18-.07-1.23-.56Zm.41.59.89.4,0,0v.05l.27,1.18,0,.21-.18-.11L57,61.84l0,0v0c0-.32-.07-.65-.11-1l0-.16Zm1.19-1,0-.16.16,0,.92.29h.05v0c.14.37.28.74.41,1.12l.07.19-.2-.08-1.1-.47,0,0v0C58.34,60.37,58.26,60.06,58.19,59.75Zm1.1-1.36.16,0,1,.16h0l0,0L61,59.7l.1.19-.21-.06-1.17-.33h0l0-.05c-.11-.3-.22-.6-.34-.9Zm1.62.24-.09-.17.19,0c.6.1,1.19.19,1.79.27h.05l0,0,1.25,1.9.13.2L64,60.84l-2.23-.58h0l0,0Zm2.05,0,0,0c-.33-.49-.66-1-1-1.47l-.11-.16H62l1.78,0h0l0,0c.5.57,1,1.15,1.48,1.73l.15.18-.24,0q-1.12-.13-2.25-.3Zm1-1.8,0,0c-.38-.45-.77-.89-1.17-1.33l-.12-.13.18,0q.9-.07,1.8-.18h0l0,0,1.67,1.52.18.16h-.24l-2.3,0Zm.76-1.88,0,0L63.3,53.7l-.14-.12.18,0,1.76-.4h0l0,0c.64.43,1.26.87,1.88,1.32l.2.14-.24,0-2.28.26Zm.5-2,0,0-1.47-1-.16-.11.18-.06c.56-.19,1.12-.4,1.67-.6l0,0,0,0,2,1.07.21.12-.23.05c-.74.19-1.47.37-2.21.54Zm1.09-1.77-.18-.1.19-.07,1.77-.68h.07l2.33.93.26.1-.27.07L68,52.05h0l0,0ZM67.83,50l-.22.09-2.15.82h0l0,0c-.53-.28-1.07-.55-1.61-.82L63.61,50h0l.17-.08,1.6-.82,0,0,0,0c.72.26,1.43.54,2.15.81l.22.09Zm.25-.3h0L66.29,49l-.19-.07.18-.1L67.92,48l0,0h0l2.45.64.27.07-.26.1-2.33.93Zm-.17-2.37,0,0h0L66,46.89l-.2,0,.17-.11,1.53-1.09,0,0h0l2.48.32.28,0-.25.13ZM67.45,45l0,0h0l-1.88-.23-.21,0,.15-.14,1.36-1.24,0,0h0l2.53,0h.28l-.22.17Zm-.81-2.22,0,0H64.49l.14-.15,1.21-1.43,0,0h0l2.5-.3.28,0-.2.19Zm-1-2.13,0,0h0l-1.85.24-.2,0,.11-.17c.35-.52.68-1,1-1.57l0,0h0l2.42-.59.28-.07-.18.21C66.66,39.38,66.13,40,65.59,40.66Zm-1.3-2,0,0h0l-1.83.47-.2.05.09-.18c.27-.55.54-1.1.8-1.66l0,0h0c.78-.31,1.57-.61,2.36-.9l.26-.1-.15.23Zm-1.67-1.14c-.32.67-.65,1.35-1,2v0h0l-1.74.49-.18,0,.06-.17c.21-.55.4-1.1.6-1.66v0l0,0,2.13-.85.22-.09Zm.09-.64v0l0,0-1.75.69-.19.07.07-.19c.2-.58.4-1.17.59-1.76v0l0,0,2.23-1.19.25-.13-.12.25C63.43,35.4,63.07,36.15,62.71,36.9ZM60.92,36c-.24.72-.48,1.43-.73,2.15v0h0l-1.65.69-.17.08,0-.18c.13-.58.26-1.16.38-1.73v0l0,0,2-1.1.2-.11Zm0-.64v0l0,0-1.64.9-.18.1,0-.2.36-1.82v0l0,0,2.05-1.45.23-.16-.09.27C61.45,33.73,61.19,34.52,60.93,35.31Zm-2-.82.19-.14,0,.23q-.23,1.13-.45,2.22v0l0,0L57,37.75l-.16.1,0-.19c.06-.59.11-1.18.16-1.77v0l0,0Zm-1.63.72,0-.2c0-.62.09-1.24.12-1.85v0l0,0,1.84-1.67.21-.19,0,.27c-.15.82-.31,1.63-.46,2.45v0l0,0-1.5,1.09ZM55.2,41.83l.82-.31.15-.05,0,.16c0,.28-.1.56-.15.84v.06h-.06l-.72.2-.13,0v-.14c0-.24.05-.48.07-.73v-.06ZM55.69,43l0,.15-.06.26v.06h-.06l-.23.05-.13,0,0-.13,0-.22v-.07h.06l.26-.08Zm-.15.86.15,0,0,.14c0,.18-.09.37-.15.55v.06h-.07l-.5.05-.13,0,0-.13L54.9,44V44H55Zm-.47-4.92,0,0-.94.62-.14.08V39.5l-.12-1.1v0l0,0,1.06-.85.15-.12v.19c0,.45,0,.9,0,1.35Zm-.25-1.88-.77.61-.13.11,0-.16c0-.32-.09-.64-.13-1v0l0,0,.88-.86.15-.15v.21l0,1.21v0Zm-1,2.94v.16l.06.85v.06l-.06,0-.64.37-.12.07,0-.14-.12-.72v-.06l0,0,.71-.49Zm-.23-1.69-.85.72-.12.1,0-.15-.27-1.08v0l0,0c.3-.32.62-.64.93-1l.13-.14,0,.19c.07.44.13.89.18,1.33v.05Zm-.44-1.86c-.23.23-.46.46-.68.7l-.12.12,0-.17c-.08-.3-.17-.61-.25-.92l0,0,0,0,.74-.94.14-.16,0,.2c.07.39.13.78.19,1.18v0ZM53,34.33l-1.1,1.39-.12.15-.05-.18c-.16-.57-.34-1.13-.51-1.7v0l0,0L52.4,32l.13-.19,0,.23c.14.73.28,1.47.41,2.21v0ZM51.38,36v0l0,0-.58.77-.1.13-.06-.15c-.13-.3-.25-.6-.38-.89v0l0,0c.2-.34.41-.68.62-1l.11-.18.06.2C51.15,35.2,51.27,35.58,51.38,36Zm-.44-2c-.31.51-.62,1-.92,1.52l-.1.16-.07-.17c-.24-.55-.48-1.1-.73-1.64l0,0,0,0c.31-.69.63-1.37,1-2l.1-.21.07.22c.24.72.47,1.44.7,2.17v0Zm-1.36,1.82v0l0,0-.49.85-.08.14-.08-.14-.49-.85,0,0v0l.49-1.11.09-.2.09.2Zm-.7-2c-.25.54-.49,1.09-.73,1.64l-.07.17-.1-.16c-.3-.51-.61-1-.92-1.52l0,0v0c.23-.73.46-1.45.7-2.17l.07-.22.1.21c.33.68.65,1.36,1,2l0,0Zm-1.75,1c.21.34.42.68.62,1l0,0v0c-.13.29-.25.59-.38.89l-.06.15-.1-.13-.58-.77,0,0v0c.11-.39.23-.77.34-1.15l.06-.2ZM46.82,34c-.17.57-.35,1.13-.51,1.7l-.05.18-.12-.15L45,34.33l0,0v0c.13-.74.27-1.48.41-2.21l0-.23.13.19,1.21,1.91,0,0Zm-1.77,1.2,0-.2.14.16.74.94,0,0,0,0c-.08.31-.17.62-.25.92l0,.17-.12-.12c-.22-.24-.45-.47-.68-.7l0,0v0C44.92,36,45,35.58,45.05,35.19Zm.63,2.61,0,0v0L45.44,39l0,.15-.12-.1-.85-.72,0,0v-.05c.05-.44.11-.89.18-1.33l0-.19.13.14C45.06,37.16,45.38,37.48,45.68,37.8Zm-.62,2.77,0,0v.06l-.12.72,0,.14-.12-.07-.64-.37-.06,0V41l.06-.85V40l.14.09Zm-.82-3.92c0,.32-.09.64-.13,1l0,.16L44,37.66l-.77-.61,0,0v0c0-.4,0-.8,0-1.21v-.21l.15.15.88.86,0,0Zm-.08,1.66,0,0v0l-.12,1.1v.15l-.14-.08L43,39l0,0v0c0-.45,0-.9,0-1.35v-.19l.15.12ZM43,44h.06V44l.09.49,0,.13-.13,0-.5-.05h-.07v-.06c-.06-.18-.1-.37-.15-.55l0-.14.15,0Zm-.72-1,.15,0,.26.08h.06v.07l0,.22,0,.13-.13,0-.23-.05h-.06V43.4l-.06-.26Zm.49-.25-.72-.2H42v-.06c0-.28-.11-.56-.15-.84l0-.16.15.05.82.31.05,0v.06c0,.25,0,.49.07.73v.14ZM41,35.85v0c.05.59.1,1.18.16,1.77l0,.19-.16-.1-1.54-.88,0,0v0c-.16-.73-.3-1.47-.45-2.22l0-.23.19.14,1.83,1.33Zm-.41-.76L39.07,34l0,0v0c-.16-.82-.31-1.63-.46-2.45l0-.27.21.19,1.84,1.67,0,0v0c0,.61.09,1.23.13,1.85l0,.2Zm-1.64,1.27-.18-.1-1.64-.9,0,0v0c-.26-.79-.52-1.58-.77-2.37l-.09-.27.23.16,2.05,1.45,0,0v0l.36,1.82Zm-1.72-.52,2,1.1,0,0v0c.12.57.25,1.15.38,1.73l0,.18-.17-.08-1.65-.69h0v0c-.25-.72-.49-1.43-.73-2.15L37,35.73Zm0,1.68.07.19-.19-.07L35.34,37l0,0v0c-.36-.75-.72-1.5-1.07-2.26l-.12-.25.25.13,2.23,1.19,0,0v0C36.81,36.35,37,36.94,37.21,37.52Zm-1.71-.11,2.13.85,0,0v0c.2.56.39,1.11.6,1.66l.06.17-.18,0-1.74-.49h0v0c-.34-.67-.67-1.35-1-2l-.1-.22Zm.2,1.65.09.18-.2-.05-1.83-.47h0l0,0-1.33-2.09-.15-.23.26.1c.79.29,1.58.59,2.36.9h0l0,0C35.16,38,35.43,38.51,35.7,39.06Zm-2.31.16c.34.53.67,1.05,1,1.57l.11.17-.2,0-1.85-.24h0l0,0c-.54-.64-1.07-1.28-1.6-1.93l-.18-.21.28.07,2.42.59h0Zm-1.25,2,0,0,1.21,1.43.14.15H31.38l0,0-1.84-1.72-.2-.19.28,0,2.5.3Zm-1,2.16,0,0,1.36,1.24.15.14-.21,0L30.61,45h0l0,0-2-1.45-.22-.17h.28l2.53,0Zm-.73,2.24,0,0L32,46.73l.17.11-.2,0-1.8.45h0l0,0-2.21-1.22L27.63,46l.28,0,2.48-.32Zm-.38,2.33,0,0,1.64.88.18.1-.19.07L30,49.69h-.07l-2.33-.93-.26-.1.27-.07L30,48Zm.34,2c.72-.27,1.43-.55,2.15-.81l0,0,0,0,1.6.82.17.08h0l-.16.08c-.54.27-1.08.54-1.61.82l0,0h0l-2.15-.82L30.17,50h0Zm-.47.39h0l1.77.68.19.07-.18.1L30.08,52l0,0h0l-2.46-.64-.27-.07.26-.1,2.33-.93Zm.18,2.37,0,0h0l1.81.45.2,0-.17.12-1.54,1.09,0,0h0l-2.48-.33-.28,0,.25-.14C28.62,53.48,29.35,53.07,30.1,52.67ZM30.55,55l0,0h0l1.87.23.21,0-.15.14-1.37,1.25,0,0H28.31l.22-.17Zm.8,2.23,0,0H33.5l-.13.15-1.21,1.43,0,0h0l-2.5.3-.28,0,.2-.19Zm1.06,2.12,0,0h0l1.85-.24.2,0-.11.17-1,1.57,0,0h0l-2.42.59-.28.07.18-.21C31.34,60.62,31.87,60,32.41,59.34Zm1.3,2,0,0h0l1.84-.47.2-.05-.09.18c-.27.55-.53,1.1-.79,1.65l0,0,0,0-2.38.9-.26.1.15-.23Zm1.69,1.14c.32-.68.64-1.35,1-2l0,0h0c.58-.15,1.16-.32,1.73-.48l.18-.06-.06.18c-.21.55-.4,1.1-.59,1.65l0,0,0,0c-.7.28-1.41.57-2.12.84l-.23.09Zm-.1.63,0,0h0l1.75-.69.19-.08-.07.19c-.2.59-.4,1.18-.59,1.78v0l0,0-2.23,1.19-.25.13.12-.25Zm1.79,1c.24-.72.48-1.44.73-2.16v0l0,0,1.64-.68.17-.08,0,.18c-.13.58-.26,1.16-.38,1.75v0l0,0-2,1.1-.2.11Zm0,.64v0h0l1.63-.9.18-.1,0,.2-.36,1.83v0l0,0-2,1.44-.22.16.08-.27C36.56,66.28,36.82,65.49,37.08,64.7Zm2,.83-.2.13.05-.23q.21-1.11.45-2.22v0l0,0c.52-.3,1-.59,1.56-.9l.16-.09,0,.18c-.06.59-.11,1.18-.16,1.77v0l0,0Zm1.64-.73,0,.2-.12,1.83v0l0,0c-.61.57-1.23,1.13-1.85,1.69l-.21.19,0-.27c.15-.81.3-1.62.46-2.43v0l0,0,1.51-1.09Zm2-6.63-.81.31-.16.05,0-.16c0-.28.1-.56.16-.84v-.06h.06l.71-.2.14,0,0,.14-.06.73v0ZM42.32,57l0-.15.06-.26v-.06h.06l.23,0,.13,0,0,.13,0,.22v.07h-.06l-.26.08Zm.14-.85-.14,0,0-.14.15-.55,0-.06h.06l.5-.05.13,0,0,.13L43.1,56V56H43Zm.48,4.92.05,0,.93-.61.14-.09v.16c0,.37.08.73.13,1.1v0l0,0-1,.85-.15.12v-.19c0-.45,0-.9,0-1.34ZM43.19,63l.76-.61.14-.1,0,.16c0,.32.09.64.13,1v0l0,0-.86.85-.16.15v-.22l0-1.19v0Zm1-2.93v-.16L44.14,59v-.06l.06,0,.64-.37.12-.07,0,.14.12.73v.06l0,0-.71.5Zm.23,1.69.85-.72.12-.1,0,.15c.08.36.17.71.26,1.07v0l0,0c-.3.32-.62.64-.93,1l-.13.14,0-.19q-.11-.66-.18-1.32v0Zm.44,1.85.68-.69.12-.12,0,.16c.08.31.17.62.26.93v0l0,0c-.24.32-.49.63-.74.94l-.13.17,0-.21c-.07-.39-.13-.79-.19-1.18v0ZM45,65.68l1.11-1.39.11-.14.05.17c.17.57.34,1.14.52,1.7v0l0,0L45.61,68l-.13.2,0-.24c-.14-.73-.28-1.47-.41-2.21v-.05ZM46.62,64v0l0,0c.2-.25.39-.51.58-.77l.1-.13.07.15c.12.3.24.6.37.9l0,0,0,0-.62,1L47,65.4,47,65.2Zm.44,2c.32-.5.62-1,.93-1.52l.09-.15.08.17q.35.81.72,1.62l0,0,0,0q-.47,1-1,2l-.1.21-.07-.22c-.24-.72-.47-1.43-.69-2.15l0,0Zm1.37-1.82,0,0,0,0c.17-.28.33-.56.49-.84l.08-.15.08.15c.16.28.32.56.49.84l0,0,0,0-.48,1.1-.09.2-.09-.2Zm.69,1.94q.38-.81.72-1.62l.08-.17.09.15c.31.51.61,1,.93,1.52l0,0,0,0c-.22.72-.45,1.43-.69,2.15l-.07.22-.1-.21q-.49-1-1-2l0,0Zm1.74-1-.62-1,0,0,0,0c.13-.3.25-.6.37-.9l.07-.15.1.13c.19.26.38.52.58.77l0,0v0L51,65.2l-.06.2Zm.31.8c.18-.56.35-1.13.52-1.7l.05-.17.11.14L53,65.68l0,0v.05c-.13.74-.27,1.48-.41,2.21l0,.24-.13-.2L51.18,66.1l0,0ZM53,64.82l0,.21-.13-.17c-.25-.31-.5-.62-.74-.94l0,0v0c.09-.31.18-.62.26-.93l0-.16.12.12.68.69,0,0v0C53.08,64,53,64.43,53,64.82Zm-.63-2.62,0,0v0c.09-.36.18-.71.26-1.07l0-.15.12.1.85.72,0,0v0q-.08.66-.18,1.32l0,.19-.13-.14C52.94,62.84,52.62,62.52,52.32,62.2Zm.62-2.77,0,0v-.06l.12-.73,0-.14.12.07.64.37.06,0V59l-.06.86V60l-.14-.09Zm.82,3.92c0-.31.09-.63.13-1l0-.16.14.1.76.61,0,0v0l0,1.19v.22l-.16-.15-.86-.85,0,0Zm.08-1.66,0,0v0c.05-.37.09-.73.13-1.1v-.16l.14.09.93.61.05,0v.05c0,.44,0,.89,0,1.34v.19l-.15-.12ZM55,56h-.06V56l-.09-.49,0-.13.13,0,.5.05h.06l0,.06.15.55,0,.14-.14,0Zm.71,1-.15,0-.26-.08h-.06v-.07l0-.22,0-.13.13,0,.23,0h.06v.06l.06.26Zm-.48.25.71.2H56v.06c.06.28.11.56.16.84l0,.16L56,58.48l-.81-.31-.05,0v0l-.06-.73,0-.14ZM57,64.11c0-.59-.1-1.18-.16-1.77l0-.18.16.09c.52.31,1,.6,1.56.9l0,0v0q.24,1.11.45,2.22l.05.23-.2-.13L57,64.18l0,0Zm.41.81L58.93,66l0,0v0c.16.81.31,1.62.46,2.43l0,.27-.21-.19c-.62-.56-1.24-1.12-1.85-1.69l0,0v0L57.27,65l0-.2Zm1.65-1.27.18.1,1.63.9h0v0c.26.79.52,1.58.77,2.37l.08.27-.22-.16-2-1.44,0,0v0l-.36-1.83Zm1.7.52-2-1.1,0,0v0c-.12-.59-.25-1.17-.38-1.75l0-.18.17.08,1.64.68,0,0v0c.25.72.49,1.44.73,2.16l.07.22Zm0-1.7-.07-.19.19.08,1.75.69h0l0,0,1.07,2.28.12.25-.25-.13L61.41,64.3l0,0v0C61.18,63.65,61,63.06,60.78,62.47Zm1.7.11c-.71-.27-1.42-.56-2.12-.84l0,0,0,0c-.19-.55-.38-1.1-.59-1.65l-.06-.18.18.06c.57.16,1.15.33,1.73.48h0l0,0c.34.67.66,1.34,1,2l.11.21Zm-.19-1.64-.09-.18.2.05,1.84.47h0l0,0,1.33,2.09.15.23-.26-.1-2.38-.9,0,0,0,0C62.82,62,62.56,61.49,62.29,60.94Zm2.32-.16-1-1.57L63.48,59l.2,0,1.85.24h0l0,0c.54.64,1.07,1.28,1.6,1.93l.18.21-.28-.07-2.42-.59h0Zm1.25-2,0,0-1.21-1.43-.13-.15h2.12l0,0,1.83,1.71.2.19-.28,0-2.5-.3Zm1-2.16,0,0-1.37-1.25-.15-.14.21,0L67.38,55h0l0,0,2,1.46.23.17H66.84Zm.73-2.24,0,0L66,53.28l-.17-.12.2,0,1.81-.45h0l0,0c.75.4,1.48.81,2.22,1.22l.25.14-.28,0-2.48.33Zm8.7-4.48.35.09h0l-.35.09c-1.55.39-3.09.8-4.64,1.2h0c-1-.4-2-.81-3-1.2L68.34,50h0l.22-.09c1-.39,2-.79,3-1.2h0C73.18,49.12,74.72,49.52,76.27,49.91Zm-.19-3.37.36,0-.34.14c-1.5.58-3,1.18-4.48,1.77l0,0h0l-3.16-.83-.23-.06.2-.11,2.86-1.57,0,0h0C72.89,46.13,74.48,46.34,76.08,46.54Zm-.72-3.3h.37l-.32.18c-1.39.75-2.78,1.52-4.16,2.28l0,0h0L68,45.29l-.23,0,.19-.14c.87-.62,1.74-1.26,2.6-1.89l0,0h0C72.19,43.23,73.77,43.25,75.36,43.24Zm-1-3.21.37-.05-.3.21c-1.3.93-2.59,1.88-3.89,2.82l0,0h0L67.2,43H67l.17-.16,2.37-2.22,0,0h0C71.16,40.41,72.76,40.23,74.35,40ZM72.86,37l.36-.09-.27.24c-1.17,1.08-2.32,2.18-3.48,3.27l0,0h0l-3.24.38-.23,0,.15-.18,2.06-2.49,0,0h0ZM71,34.17l.34-.14-.24.28c-1,1.2-2,2.42-3,3.63l0,0h0l-3.14.77-.23,0,.12-.19c.58-.9,1.15-1.81,1.72-2.71l0,0,0,0Zm-2.15-2.62.32-.18-.19.31c-.87,1.33-1.71,2.67-2.56,4l0,0,0,0-3,1.16-.22.08.1-.21c.46-1,.92-2,1.37-2.92l0,0h0Zm-2.51-2.31.3-.21-.16.32c-.69,1.43-1.36,2.87-2,4.31v0h0l-2.87,1.53-.21.11.07-.22c.34-1,.66-2,1-3.07v0l0,0Q64.38,30.64,66.33,29.24Zm-2.79-2,.27-.25-.12.35c-.49,1.5-1,3-1.45,4.51v0h0l-2.65,1.87-.19.14,0-.23c.2-1.05.39-2.11.59-3.16v0l0,0Q61.78,28.89,63.54,27.27Zm-3-1.58.24-.28-.07.36c-.3,1.53-.58,3.07-.87,4.62v0l0,0-2.38,2.17-.17.15,0-.23.18-3.19v0l0,0C58.48,28.09,59.51,26.9,60.52,25.69Zm-5.76,2.72c.87-1.32,1.74-2.64,2.59-4l.2-.31,0,.36c-.11,1.57-.19,3.15-.28,4.72v0l0,0-2.1,2.46L55,31.9v-.23c-.07-1.07-.15-2.14-.23-3.2v0Zm.07,4v.23c0,.75.09,1.49.12,2.24v0l0,0-1.29,1.26-.14.13,0-.18c-.1-.58-.19-1.16-.29-1.74v0l0,0c.48-.59,1-1.18,1.45-1.76ZM54.61,32v0l0,0-1.2,1.45-.13.15,0-.19c-.11-.61-.22-1.21-.34-1.82v0l0,0,1.38-2.1.15-.23,0,.27C54.5,30.36,54.56,31.18,54.61,32Zm-2.67-4.14c.7-1.43,1.41-2.86,2.09-4.3l.16-.33,0,.36c.1,1.59.22,3.17.33,4.75v0l0,0-1.78,2.72-.13.19,0-.23c-.21-1.05-.43-2.11-.64-3.16v-.06Zm.33,3.61v0l0,0-1,1.56-.11.17-.06-.19c-.19-.59-.38-1.19-.58-1.78v-.07c.36-.74.72-1.49,1.09-2.23l.12-.25.06.27C51.94,29.84,52.11,30.66,52.27,31.48Zm-3.16-3.8c.51-1.49,1-3,1.51-4.47l.11-.35.07.36q.45,2.31.93,4.62v.06l-1.41,2.89-.1.21-.07-.22c-.34-1-.69-2-1-3v-.06Zm-.11.9.09.26c.27.79.53,1.57.79,2.35v.07c-.27.56-.53,1.12-.79,1.67l-.09.19-.09-.19c-.26-.55-.52-1.11-.79-1.67v-.07c.26-.78.52-1.56.79-2.35Zm-2.73-.74q.48-2.31.93-4.62l.07-.36.11.35c.49,1.49,1,3,1.51,4.47v.06c-.34,1-.69,2-1,3l-.07.22-.1-.21L46.28,27.9v-.06ZM46.22,29l.06-.27.12.25c.37.74.73,1.49,1.08,2.23l0,0v0c-.2.59-.39,1.19-.58,1.78l-.06.19-.11-.17-1-1.56,0,0v0C45.89,30.66,46.06,29.84,46.22,29Zm-2.76-.67c.11-1.58.23-3.16.33-4.75l0-.36.16.33c.68,1.44,1.39,2.87,2.09,4.3v.06c-.21,1.05-.43,2.11-.64,3.16l0,.23-.13-.19-1.78-2.72,0,0ZM43.39,32c0-.83.11-1.65.17-2.48l0-.27.15.23,1.38,2.1,0,0v0c-.12.61-.23,1.21-.34,1.82l0,.19-.13-.15-1.2-1.45,0,0Zm1.39,2.31,0,0v0c-.1.58-.19,1.16-.29,1.74l0,.18-.14-.13-1.29-1.26,0,0v0c0-.75.07-1.49.12-2.24v-.23l.16.18C43.82,33.14,44.3,33.73,44.78,34.32Zm-4.13-9.88c.85,1.33,1.72,2.65,2.59,4l0,0v0c-.08,1.06-.16,2.13-.23,3.2v.23l-.15-.18-2.1-2.46,0,0v0c-.09-1.57-.17-3.15-.28-4.72l0-.36Zm-3.34,1.33-.07-.36.24.28c1,1.21,2,2.4,3.06,3.6l0,0v0l.18,3.19,0,.23-.17-.15-2.38-2.17,0,0v0C37.89,28.84,37.61,27.3,37.31,25.77Zm-3,1.6L34.19,27l.27.25q1.76,1.62,3.53,3.22l0,0v0c.2,1.05.39,2.11.59,3.16l0,.23-.19-.14L35.8,31.92h0v0C35.28,30.37,34.8,28.87,34.31,27.37Zm-2.78,2L31.37,29l.3.21q1.95,1.4,3.92,2.76l0,0v0c.33,1,.65,2.05,1,3.07l.07.22-.21-.11L33.6,33.7h0l0,0Q32.56,31.5,31.53,29.35ZM29,31.68l-.19-.31.32.18,4.24,2.26h0l0,0c.45,1,.91,1.95,1.37,2.92l.1.21-.22-.08-3-1.16,0,0,0,0C30.74,34.35,29.9,33,29,31.68ZM26.9,34.31,26.67,34l.34.14,4.44,1.69,0,0,0,0c.57.9,1.14,1.81,1.72,2.71l.12.19-.23,0L30,38h0l0,0C28.92,36.73,27.92,35.51,26.9,34.31Zm-1.85,2.82-.27-.24.36.09,4.66,1.15h0l0,0,2.06,2.49.15.18-.23,0-3.24-.38h0l0,0C27.37,39.31,26.22,38.21,25.05,37.13Zm-1.47,3.06-.3-.21.37.05c1.59.2,3.19.38,4.79.56h0l0,0,2.37,2.22L31,43H30.8l-3.28,0h0l0,0C26.17,42.07,24.88,41.12,23.58,40.19Zm-1,3.23-.32-.18h.37c1.59,0,3.17,0,4.76,0h0l0,0c.86.63,1.73,1.27,2.6,1.89l.19.14-.23,0-3.21.42h0l0,0C25.37,44.94,24,44.17,22.59,43.42Zm-.69,3.3-.34-.14.36,0c1.6-.2,3.19-.41,4.79-.63h0l0,0,2.86,1.57.2.11-.23.06-3.16.83h0l0,0C24.89,47.9,23.4,47.3,21.9,46.72Zm-.17,3.37L21.38,50h0l.35-.09c1.55-.39,3.09-.79,4.63-1.2h.06c1,.41,2,.81,3,1.2l.22.09h0l-.22.09c-1,.39-2,.8-3,1.2h-.06C24.82,50.89,23.28,50.48,21.73,50.09Zm.19,3.37-.37,0,.34-.13,4.49-1.78h.06l3.17.83.23.06-.21.11c-1,.52-1.91,1-2.86,1.58h-.06C25.11,53.88,23.52,53.66,21.92,53.46Zm.72,3.3h-.37l.32-.17c1.39-.75,2.78-1.52,4.16-2.29h.06l3.21.42.24,0-.19.14-2.61,1.89,0,0h0Zm1,3.21-.37.05.3-.21q1.95-1.39,3.88-2.81l0,0h0l3.26,0H31l-.17.16-2.37,2.22,0,0h0C26.84,59.59,25.25,59.77,23.66,60ZM25.14,63l-.36.09.27-.24c1.17-1.08,2.32-2.17,3.48-3.27l0,0h0l3.24-.38.23,0-.15.18-2.06,2.49,0,0h0ZM27,65.83l-.34.14.23-.28c1-1.2,2-2.42,3-3.63l0,0h0c1.05-.25,2.1-.5,3.14-.77l.23,0-.12.19c-.58.9-1.15,1.81-1.72,2.71l0,0h0Zm2.13,2.65-.32.17.2-.3c.87-1.34,1.72-2.7,2.57-4l0,0h0L34.7,63.1l.22-.09-.1.21c-.46,1-.92,2-1.37,2.94l0,0h0C32,67,30.56,67.71,29.14,68.48Zm2.54,2.29-.3.22.16-.33q1-2.14,2-4.31l0,0h0l2.87-1.53.21-.11-.07.22-1,3.07v0l0,0Q33.64,69.38,31.68,70.77Zm2.8,1.94-.27.25.12-.35c.49-1.49,1-3,1.45-4.48v0h0l2.64-1.87.19-.13,0,.23c-.2,1-.39,2.09-.59,3.14v0l0,0C36.81,70.57,35.64,71.63,34.48,72.71Zm3,1.64-.23.28.07-.36c.3-1.55.58-3.1.87-4.65v0l0,0,2.39-2.18.17-.16v.23l-.18,3.21v0l0,0C39.53,71.92,38.49,73.13,37.47,74.35Zm5.79-2.75q-1.3,2-2.6,4l-.19.31,0-.36c.1-1.58.19-3.15.27-4.72v0l0,0c.71-.82,1.41-1.63,2.1-2.46l.15-.17,0,.23c.07,1.06.15,2.13.23,3.2v0Zm-.07-4,0-.24c0-.75-.09-1.5-.12-2.25v0l0,0c.43-.41.85-.83,1.27-1.25l.14-.13,0,.18c.1.59.19,1.17.3,1.75v0l0,0c-.48.58-1,1.17-1.45,1.75Zm.21.37v0l0,0c.4-.47.8-1,1.19-1.43l.13-.16,0,.2c.11.61.23,1.21.35,1.82v0l0,0-1.36,2.09-.15.23,0-.28Zm2.66,4.13c-.7,1.42-1.4,2.84-2.07,4.27l-.16.33,0-.36c-.1-1.58-.22-3.15-.34-4.72v0l0,0c.59-.9,1.18-1.79,1.77-2.7l.12-.19,0,.23.63,3.15v0Zm-.32-3.59v0l0,0,1-1.56.1-.18.07.2c.18.59.38,1.17.57,1.76v0l0,0c-.35.74-.71,1.49-1.08,2.23l-.12.25L46.23,71C46.06,70.17,45.9,69.36,45.74,68.54Zm3.15,3.78c-.51,1.49-1,3-1.51,4.48l-.11.34-.07-.36q-.45-2.31-.93-4.62V72.1l1.41-2.89.1-.21.07.23,1,3v.06Zm.11-.9-.09-.26c-.27-.79-.53-1.57-.79-2.35v-.07c.27-.56.53-1.11.79-1.67l.09-.19.09.19c.26.56.52,1.11.79,1.67v.07c-.26.78-.52,1.56-.79,2.35Zm2.73.74q-.48,2.31-.93,4.62l-.07.36-.11-.34c-.49-1.5-1-3-1.51-4.48v-.06l1-3,.07-.23.1.21,1.41,2.89v.06Zm0-1.18-.05.27L51.6,71c-.37-.74-.73-1.49-1.09-2.23V68.7c.19-.59.39-1.17.57-1.76l.07-.2.1.18,1,1.56,0,0v0C52.1,69.36,51.94,70.17,51.77,71Zm2.76.67c-.12,1.57-.24,3.14-.34,4.72l0,.36L54,76.4c-.67-1.43-1.37-2.85-2.07-4.27v0l.63-3.15,0-.23.12.19c.59.91,1.18,1.8,1.77,2.7l0,0ZM54.6,68l-.18,2.47,0,.28-.15-.23-1.36-2.09,0,0v0c.12-.61.24-1.21.35-1.82l0-.2.13.16c.39.48.79,1,1.19,1.43l0,0Zm-1.39-2.3,0,0v0c.11-.58.2-1.16.3-1.75l0-.18.14.13c.42.42.84.84,1.27,1.25l0,0v0c0,.75-.08,1.5-.12,2.25l0,.24-.15-.18C54.17,66.87,53.69,66.28,53.21,65.7Zm4.12,9.87c-.85-1.33-1.72-2.65-2.59-4l0,0v0c.08-1.07.16-2.14.23-3.2l0-.23.15.17c.69.83,1.39,1.64,2.1,2.46l0,0v0c.08,1.57.17,3.14.27,4.72l0,.36Zm3.36-1.3.07.36-.23-.28c-1-1.22-2.06-2.43-3.09-3.63l0,0v0l-.18-3.21v-.23l.17.16,2.39,2.18,0,0v0C60.11,71.17,60.39,72.72,60.69,74.27Zm3-1.66.11.35-.26-.25c-1.16-1.08-2.33-2.14-3.51-3.2l0,0v0c-.2-1-.39-2.1-.59-3.14l0-.23.19.13,2.64,1.87h0v0C62.7,69.63,63.18,71.12,63.67,72.61Zm2.79-2,.16.33-.3-.22Q64.37,69.38,62.4,68l0,0v0l-1-3.07-.07-.22.21.11,2.87,1.53h0v0C65.1,67.79,65.77,69.23,66.46,70.66ZM69,68.35l.2.3-.32-.17C67.44,67.71,66,67,64.59,66.2h0l0,0c-.45-1-.91-2-1.37-2.94l-.1-.21.22.09,3.06,1.17h0l0,0C67.26,65.65,68.11,67,69,68.35Zm2.12-2.66.23.28L71,65.83l-4.44-1.69h0l0,0c-.57-.9-1.14-1.81-1.72-2.71l-.12-.19.23,0c1,.27,2.09.52,3.14.77h0l0,0C69.08,63.27,70.08,64.49,71.1,65.69ZM73,62.87l.27.24L72.86,63,68.2,61.87h0l0,0-2.06-2.49-.15-.18.23,0,3.24.38h0l0,0C70.63,60.7,71.78,61.79,73,62.87Zm1.46-3.06.3.21L74.34,60c-1.59-.2-3.18-.38-4.78-.56h0l0,0-2.37-2.22L67,57h.24l3.26,0h0l0,0Q72.46,58.41,74.41,59.81Zm1-3.05-4.76,0h0l0,0-2.61-1.89-.19-.14.24,0,3.21-.42h.06c1.38.77,2.77,1.54,4.16,2.29l.32.17Z"/><path class="cls-3" d="M16.19,63.56a5.65,5.65,0,0,1-4.74,8.09,4.77,4.77,0,0,1-1.51-.24c-1.33-.44-1.32-.92.19-.92a5.44,5.44,0,0,0,5.3-5.58,5.7,5.7,0,0,0-.08-1c-.24-1.24.32-1.36.84-.33Z"/><path class="cls-4" d="M96.33,53a12,12,0,0,1-.74-3,12,12,0,0,1,.74-3c1-3,1.84-5.77,1.63-9a13.43,13.43,0,0,0-.66-3.44c-1.46-4.42-4.56-6.85-8.21-9.5a12.61,12.61,0,0,1-2.39-2,12.13,12.13,0,0,1-1.21-2.87c-1-3-2-5.74-4-8.22a14.39,14.39,0,0,0-2.59-2.4C75,6.82,71.07,6.65,66.54,6.61a12.16,12.16,0,0,1-3.14-.24,12.18,12.18,0,0,1-2.69-1.62c-2.61-1.84-5-3.51-8.18-4.31A14.47,14.47,0,0,0,49,0c-4.72,0-8,2.15-11.71,4.75A12.18,12.18,0,0,1,34.6,6.37a12.16,12.16,0,0,1-3.14.24c-3.22,0-6.15.07-9.19,1.26a14,14,0,0,0-3.12,1.68c-3.82,2.73-5.21,6.38-6.64,10.62A12.13,12.13,0,0,1,11.3,23a12.61,12.61,0,0,1-2.39,2C6.32,26.93,4,28.66,2.22,31.38A13.8,13.8,0,0,0,.7,34.55C-.76,39,.3,42.74,1.67,47a12,12,0,0,1,.74,3,12,12,0,0,1-.74,3C.7,56-.17,58.79,0,62A13.43,13.43,0,0,0,.7,65.45,14.16,14.16,0,0,0,4.11,71a8.92,8.92,0,0,0,1.3,1.23c1.07.94,2.25,1.82,3.5,2.72a12.61,12.61,0,0,1,2.39,2,12.13,12.13,0,0,1,1.21,2.87c1,3,2,5.74,4,8.22a14.39,14.39,0,0,0,2.59,2.4c3.82,2.73,7.78,2.9,12.31,2.94a12.16,12.16,0,0,1,3.14.24,12.18,12.18,0,0,1,2.69,1.62c2.61,1.84,5,3.51,8.18,4.31A14.47,14.47,0,0,0,49,100c4.72,0,8-2.15,11.71-4.75a12.18,12.18,0,0,1,2.69-1.62,12.16,12.16,0,0,1,3.14-.24c3.22,0,6.15-.07,9.19-1.26a14,14,0,0,0,3.12-1.68c3.82-2.73,5.21-6.38,6.64-10.62A12.13,12.13,0,0,1,86.7,77a12.61,12.61,0,0,1,2.39-2c2.59-1.88,4.94-3.61,6.69-6.33a13.8,13.8,0,0,0,1.52-3.17C98.76,61,97.7,57.26,96.33,53Zm-.28,12a12.86,12.86,0,0,1-1.38,2.87c-1.66,2.58-3.92,4.21-6.36,6a13.46,13.46,0,0,0-2.68,2.3,12.8,12.8,0,0,0-1.39,3.22c-1.33,3.93-2.6,7.43-6.16,10a13.35,13.35,0,0,1-2.83,1.53c-2.88,1.12-5.69,1.14-8.72,1.16a13.49,13.49,0,0,0-3.54.3,13.87,13.87,0,0,0-3.05,1.81C56.52,96.61,53.4,98.7,49,98.7a13.3,13.3,0,0,1-3.2-.4c-3-.76-5.28-2.37-7.74-4.1A13.87,13.87,0,0,0,35,92.39a13.49,13.49,0,0,0-3.54-.3c-4.21,0-8-.14-11.55-2.69a12.75,12.75,0,0,1-2.34-2.18c-2-2.35-2.86-5-3.82-7.8a12.8,12.8,0,0,0-1.39-3.22A12.61,12.61,0,0,0,9.83,74a7.93,7.93,0,0,0,1,.06,8.71,8.71,0,0,0,8.78-8.64,8.59,8.59,0,0,0-4-7.26,7.5,7.5,0,0,0-4.42-1.43A9.22,9.22,0,0,0,8,57.22a6.93,6.93,0,0,0-4.34,6h0c-.12.61.62.82.77.11a6.43,6.43,0,0,1,3.76-4.76l.09,0h0l.05,0h0l0,0h0l.05,0h0l.05,0h0l.08,0h0l.05,0h0l.09,0,.05,0h.2l.05,0h.11l.09,0h.35l.11,0h.94a7.41,7.41,0,0,1,7.46,7.35v.18h0s0,.11,0,.16v0h0v.38h0v.47l0,.09v0A7.5,7.5,0,0,1,6,71.05H6l-.22-.19h0l-.07-.06h0l-.27-.26h0l0,0h0l0,0h0l0,0-.05-.05v0l0,0h0l0,0h0l0,0,0,0h0l0,0v0h0L5,70.08H5L5,70H5L4.92,70h0l-.06-.06h0l0,0v0l0,0h0l0,0,0,0,0-.05,0,0,0,0,0,0,0,0,0,0,0,0,0,0,0,0-.06-.07,0,0,0,0,0,0,0,0,0,0,0,0,0,0,0,0,0,0,0,0,0,0v0l0-.05,0-.06h0l0-.06h0l-.05-.06h0l0-.07h0l-.05-.07h0l0-.07h0l-.05-.07h0l0-.07h0l0-.07h0l0-.06h0l0-.07h0l0-.06,0-.08v0l0,0,0-.08,0,0,0,0-.23-.39,0-.05,0,0,0-.05,0,0,0-.06v0l-.17-.33,0-.08h0l0-.07h0l0-.08h0l0-.09c0-.08-.07-.17-.11-.26h0l0-.07c0-.09-.07-.18-.11-.27v0l0-.07v0l0-.06c0-.09-.07-.18-.1-.27L2,65.05a12.76,12.76,0,0,1-.6-3.12c-.19-3,.66-5.67,1.58-8.52A13.09,13.09,0,0,0,3.72,50a13.09,13.09,0,0,0-.79-3.41C1.65,42.64.59,39.07,2,35a12.86,12.86,0,0,1,1.38-2.87c1.66-2.58,3.92-4.21,6.36-6a13.46,13.46,0,0,0,2.68-2.3,12.8,12.8,0,0,0,1.39-3.22c1.33-3.93,2.6-7.43,6.16-10a13.35,13.35,0,0,1,2.83-1.53C25.63,8,28.44,7.93,31.47,7.91A13.49,13.49,0,0,0,35,7.61,13.87,13.87,0,0,0,38.06,5.8C41.48,3.39,44.6,1.3,49,1.3a13.3,13.3,0,0,1,3.2.4c3,.76,5.28,2.37,7.74,4.1A13.87,13.87,0,0,0,63,7.61a13.49,13.49,0,0,0,3.54.3c4.21,0,8,.14,11.55,2.69a12.75,12.75,0,0,1,2.34,2.18c2,2.35,2.86,5,3.82,7.8a12.8,12.8,0,0,0,1.39,3.22A12.61,12.61,0,0,0,88.17,26a7.93,7.93,0,0,0-1-.06,8.71,8.71,0,0,0-8.78,8.64,8.59,8.59,0,0,0,4,7.26,7.5,7.5,0,0,0,4.42,1.43A9.22,9.22,0,0,0,90,42.78a6.93,6.93,0,0,0,4.34-6h0c.12-.61-.62-.82-.77-.11a6.42,6.42,0,0,1-3.76,4.76h0l0,0h-.11l0,0H89.3l-.08,0h0l-.07,0H87.19a7.41,7.41,0,0,1-7.46-7.35v-.19h0c0-.05,0-.11,0-.16v0h0V33.8h0v-.47l0-.09v0A7.5,7.5,0,0,1,92.1,29.06h0a7.18,7.18,0,0,1,.78.78,13,13,0,0,1,3,4.77l0,0v.05l.09.24a12.76,12.76,0,0,1,.6,3.12c.19,3-.66,5.67-1.58,8.52A13.09,13.09,0,0,0,94.28,50a13.09,13.09,0,0,0,.79,3.41C96.35,57.36,97.41,60.93,96.05,65.05Z"/><path class="cls-5" d="M12.83,66.89a3.7,3.7,0,0,1-1,1.72,4.55,4.55,0,0,1-6.35-.13,4.85,4.85,0,0,1-.85-1c-.61-1-.36-1.3.62-.39a4.53,4.53,0,0,0,6.34.13,3.61,3.61,0,0,0,.49-.62c.5-.82.92-.54.71.33Z"/><path class="cls-6" d="M8.82,67.34a3.36,3.36,0,0,1-1.57-.11,2.9,2.9,0,0,1-1.91-4,3.28,3.28,0,0,1,.5-.82c.57-.68.84-.59.48.27a2.9,2.9,0,0,0,1.91,4,4.13,4.13,0,0,0,.61.13c.76.08.69.41,0,.53Z"/><path class="cls-7" d="M81.81,36.44a5.65,5.65,0,0,1,4.74-8.09,4.77,4.77,0,0,1,1.51.24c1.33.44,1.32.92-.19.92a5.45,5.45,0,0,0-5.31,5.58,5.69,5.69,0,0,0,.09,1c.24,1.24-.32,1.36-.84.33Z"/><path class="cls-8" d="M85.17,33.11a3.7,3.7,0,0,1,1-1.72,4.55,4.55,0,0,1,6.35.13,5.17,5.17,0,0,1,.85,1c.61,1,.36,1.3-.62.39a4.53,4.53,0,0,0-6.34-.13,3.61,3.61,0,0,0-.49.62c-.5.82-.92.54-.71-.33Z"/><path class="cls-9" d="M89.18,32.66a3.36,3.36,0,0,1,1.57.11,2.9,2.9,0,0,1,1.91,4,3.28,3.28,0,0,1-.5.82c-.57.68-.85.59-.48-.27a2.9,2.9,0,0,0-1.91-4,4.13,4.13,0,0,0-.61-.13c-.76-.08-.69-.41,0-.53Z"/><path class="cls-10" d="M94.28,50a13.09,13.09,0,0,1,.79-3.41c.92-2.85,1.77-5.47,1.58-8.52a12.76,12.76,0,0,0-.6-3.12L96,34.71v-.05l0,0a13,13,0,0,0-3-4.77,7.18,7.18,0,0,0-.78-.78h0a7.5,7.5,0,0,0-4.91-1.82,7.23,7.23,0,0,0-1.33.12A7.36,7.36,0,0,0,82.35,29a6.81,6.81,0,0,0-.93.93,7.33,7.33,0,0,0-1.56,3.26v0l0,.09v.47h0v.38h0v0c0,.05,0,.11,0,.16h0v.18a7.41,7.41,0,0,0,7.46,7.35h1.92l.07,0h0l.08,0h.23l0,0h.11l0,0h0c.21-.09.41-.2.62-.31a6.43,6.43,0,0,0,3.14-4.45c.15-.71.89-.5.77.11h0a6.93,6.93,0,0,1-4.34,6c0,.09,0,.17-.07.25s-.11.36-.17.54L89.6,44l-.24.72c0,.17-.1.33-.16.5l-.13.43-.15.49c0,.13-.07.26-.11.4s-.09.33-.13.49-.07.26-.1.39-.07.34-.1.52,0,.23-.07.35a5.4,5.4,0,0,0-.08.58c0,.1,0,.2,0,.3a8.44,8.44,0,0,0,0,.87c0,4.46,3.46,9,2.06,13.21s-6.9,5.9-9.56,9.5S78.19,82,74.53,84.6s-9.1.77-13.4,2.15-7.6,6-12.13,6-7.82-4.64-12.13-6-9.74.47-13.4-2.15a7.42,7.42,0,0,1-2.14-2.46c-.11-.18-.2-.36-.3-.55-1.31-2.61-1.84-5.87-3.42-8.36l-.36-.52a7.93,7.93,0,0,0-.53-.65.93.93,0,0,0-.14-.14,8.55,8.55,0,0,1-1.08.79,3.94,3.94,0,0,1,.52.58,13,13,0,0,1,1.39,3.22,36.58,36.58,0,0,0,2,5c.1.2.32.85,0,1s-.57-.2-.71-.49a40.12,40.12,0,0,1-1.93-5,13.58,13.58,0,0,0-1.45-3.34,6,6,0,0,0-.55-.62,8.11,8.11,0,0,1-1.44.56,5.92,5.92,0,0,1,.93,1,13,13,0,0,1,1.39,3.22,38.61,38.61,0,0,0,1.84,4.72c.2.41.25.82,0,1s-.49.1-.75-.44a42.2,42.2,0,0,1-1.78-4.64,13.6,13.6,0,0,0-1.44-3.34,7.36,7.36,0,0,0-1.22-1.21,8.81,8.81,0,0,1-1.46.13,7.93,7.93,0,0,1-1-.06l.24.18.15.11.21.15.17.13.19.15.18.14.18.14.18.15.17.14.18.17.15.13.18.19.11.12a3.31,3.31,0,0,1,.25.3,12.8,12.8,0,0,1,1.39,3.22c1,2.83,1.84,5.45,3.82,7.8a12.75,12.75,0,0,0,2.34,2.18c3.56,2.55,7.34,2.66,11.55,2.69a13.49,13.49,0,0,1,3.54.3,13.87,13.87,0,0,1,3.05,1.81c2.46,1.73,4.74,3.34,7.74,4.1a13.3,13.3,0,0,0,3.2.4c4.4,0,7.52-2.09,10.94-4.5A13.87,13.87,0,0,1,63,92.39a13.49,13.49,0,0,1,3.54-.3c3,0,5.84,0,8.72-1.16a13.35,13.35,0,0,0,2.83-1.53c3.56-2.55,4.83-6.05,6.16-10a12.8,12.8,0,0,1,1.39-3.22,13.46,13.46,0,0,1,2.68-2.3c2.44-1.77,4.7-3.4,6.36-6a12.86,12.86,0,0,0,1.38-2.87c1.36-4.12.3-7.69-1-11.64A13.09,13.09,0,0,1,94.28,50ZM82.65,36.11c.24,1.24-.32,1.36-.84.33a5.47,5.47,0,0,1-.56-2.5,5.73,5.73,0,0,1,1.88-4.27,5.16,5.16,0,0,1,3.42-1.32,4.77,4.77,0,0,1,1.51.24c1.33.44,1.32.92-.19.92a5.21,5.21,0,0,0-4.21,2.2,5.76,5.76,0,0,0-1,4.4Zm10,.64a3.28,3.28,0,0,1-.5.82c-.57.68-.85.59-.48-.27a2.9,2.9,0,0,0-1.91-4,4.13,4.13,0,0,0-.61-.13c-.76-.08-.69-.41,0-.53a3.36,3.36,0,0,1,1.57.11A2.9,2.9,0,0,1,92.66,36.75Zm0-3.8a4.61,4.61,0,0,0-5.89-.53,3.39,3.39,0,0,0-.45.4,2.93,2.93,0,0,0-.44.56l-.05.06c-.5.82-.92.54-.71-.33a1.83,1.83,0,0,1,.08-.25,3.52,3.52,0,0,1,.62-1.16l.26-.31a4.55,4.55,0,0,1,6.35.13,5.17,5.17,0,0,1,.85,1C93.94,33.61,93.69,33.86,92.71,33ZM43.62,95.56c-.09.21-.34.37-.88.08a45.37,45.37,0,0,1-4.2-2.73A14.22,14.22,0,0,0,35.38,91a14.1,14.1,0,0,0-3.67-.32c-1.37,0-2.68,0-4-.13-1.05-.08-.86-.92.2-.82,1.38.12,2.77.14,4.22.15a13.5,13.5,0,0,1,3.54.31A13.23,13.23,0,0,1,38.74,92,40.48,40.48,0,0,0,43,94.8C43.45,95,43.73,95.31,43.62,95.56Zm.93-1.93c-.19.31-.58.17-.86,0a40.2,40.2,0,0,1-4.51-2.89A13.85,13.85,0,0,0,36,88.89a14.14,14.14,0,0,0-3.68-.33c-1.4,0-2.75,0-4.08-.13-.88-.07-.84-.91.28-.82,1.38.11,2.79.14,4.25.16a13.12,13.12,0,0,1,3.54.31,13.17,13.17,0,0,1,3,1.8A37.07,37.07,0,0,0,44,92.81C44.19,92.91,44.75,93.31,44.55,93.63Zm8.9,0c-.2-.32.36-.72.57-.82a37.72,37.72,0,0,0,4.61-2.93,13.17,13.17,0,0,1,3-1.8,13.12,13.12,0,0,1,3.54-.31c1.46,0,2.87,0,4.25-.16,1.12-.09,1.16.75.28.82-1.33.11-2.68.12-4.08.13a14.14,14.14,0,0,0-3.68.33,13.85,13.85,0,0,0-3.16,1.87,40.2,40.2,0,0,1-4.51,2.89C54,93.8,53.64,93.94,53.45,93.63Zm16.82-3c-1.3.11-2.61.12-4,.13a14.1,14.1,0,0,0-3.67.32,14.22,14.22,0,0,0-3.16,1.87,45.37,45.37,0,0,1-4.2,2.73c-.54.29-.79.13-.88-.08s.17-.55.58-.76A39.49,39.49,0,0,0,59.26,92a13.23,13.23,0,0,1,3.05-1.8,13.5,13.5,0,0,1,3.54-.31c1.45,0,2.84,0,4.22-.15C71.13,89.67,71.32,90.51,70.27,90.59Zm9.07-8.54c-.14.29-.37.63-.71.49s-.13-.8,0-1a36.58,36.58,0,0,0,2-5A13,13,0,0,1,82,73.29,13.14,13.14,0,0,1,84.66,71c1.18-.85,2.3-1.69,3.35-2.58.85-.72,1.38-.06.71.51-1,.85-2.1,1.64-3.22,2.46a13.83,13.83,0,0,0-2.78,2.38,13.58,13.58,0,0,0-1.45,3.34A40.12,40.12,0,0,1,79.34,82.05Zm11.1-11.69c-1,.83-2,1.6-3.14,2.39a13.93,13.93,0,0,0-2.79,2.39,13.6,13.6,0,0,0-1.44,3.34,42.2,42.2,0,0,1-1.78,4.64c-.26.54-.55.56-.75.44s-.19-.55,0-1a38.61,38.61,0,0,0,1.84-4.72,13,13,0,0,1,1.39-3.22,13.79,13.79,0,0,1,2.68-2.3c1.17-.84,2.28-1.66,3.33-2.56C90.59,69.11,91.24,69.69,90.44,70.36ZM92.6,59.58c-.37.09-.59-.56-.63-.78a36.21,36.21,0,0,0-1.48-5.2,13.45,13.45,0,0,1-.85-3.4,13.09,13.09,0,0,1,.75-3.42c.34-1.1.66-2.26.94-3.37a6.45,6.45,0,0,0,.15-.86.43.43,0,0,1,.84.08,3.21,3.21,0,0,1-.18,1c-.25,1-.54,2-.84,3a13.59,13.59,0,0,0-.78,3.55,14.16,14.16,0,0,0,.88,3.53,38.57,38.57,0,0,1,1.47,5.09C92.94,59.09,93,59.49,92.6,59.58Zm2.14-.31c-.27,0-.47-.32-.56-.77a40,40,0,0,0-1.41-4.86,13,13,0,0,1-.85-3.4,12.7,12.7,0,0,1,.75-3.42c.32-1,.63-2.08.88-3.1a15.55,15.55,0,0,0,.6-3.23c0-.7.74-.65.82-.17a18.61,18.61,0,0,1-.58,3.51c-.24.92-.52,1.85-.82,2.81a13.58,13.58,0,0,0-.77,3.55,13.34,13.34,0,0,0,.88,3.53,42.14,42.14,0,0,1,1.4,4.75C95.21,59.06,95,59.25,94.74,59.27Z"/><path class="cls-11" d="M11.44,72.73l.21,0a7.39,7.39,0,0,0,2.1-.55c.21-.09.42-.19.62-.3A7,7,0,0,0,15.65,71a6.81,6.81,0,0,0,.93-.93,7.33,7.33,0,0,0,1.56-3.26v0l0-.09v-.47h0v-.38h0v0s0-.11,0-.16h0v-.19a7.41,7.41,0,0,0-7.46-7.35H10l-.12,0h0l-.11,0H9.57l-.11,0H9.41l-.08,0H9.21l-.05,0H9l-.05,0-.09,0h0l-.05,0h0l-.08,0h0l-.05,0h0l-.05,0h0l0,0h0l-.05,0h0l-.09,0c-.21.09-.41.2-.62.31a6.43,6.43,0,0,0-3.14,4.45c-.15.71-.89.5-.77-.11h0a6.93,6.93,0,0,1,4.34-6H8c0-.15.09-.29.13-.44a1.54,1.54,0,0,0,.05-.17c.08-.23.15-.46.22-.69.18-.55.36-1.09.53-1.64a.5.5,0,0,1,0-.13l.21-.74,0-.13c.07-.26.14-.51.19-.77h0c.05-.24.1-.49.14-.74l0-.14c0-.24.07-.48.09-.72,0,0,0-.1,0-.14,0-.26,0-.51,0-.76,0-4.46-3.46-9-2.06-13.21s6.9-5.9,9.56-9.5S19.81,18,23.47,15.4s9.1-.77,13.4-2.15,7.6-6,12.13-6,7.82,4.64,12.13,6,9.74-.47,13.4,2.15,3.56,8.28,6.22,11.89a8.42,8.42,0,0,0,.61.73l0,.06h0l.1-.08.28-.22.36-.27.31-.2.1-.06a6.58,6.58,0,0,1-.58-.64,13.34,13.34,0,0,1-1.39-3.22,35.6,35.6,0,0,0-2-5c-.1-.2-.32-.86,0-1s.57.19.71.48a40.12,40.12,0,0,1,1.93,4.95,13.26,13.26,0,0,0,1.45,3.34,4.82,4.82,0,0,0,.62.69l.23-.1.33-.15.44-.16.34-.11.12,0a6.21,6.21,0,0,1-1-1A12.8,12.8,0,0,1,82.39,22a39.26,39.26,0,0,0-1.84-4.72c-.2-.41-.25-.81,0-.95s.49-.11.75.44a42.81,42.81,0,0,1,1.78,4.63,13.84,13.84,0,0,0,1.44,3.35,7.46,7.46,0,0,0,1.33,1.29l.2,0,.29,0c.28,0,.57,0,.86,0a7.93,7.93,0,0,1,1,.06,12.61,12.61,0,0,1-2.54-2.2,12.8,12.8,0,0,1-1.39-3.22c-1-2.83-1.84-5.45-3.82-7.8a12.75,12.75,0,0,0-2.34-2.18c-3.56-2.55-7.34-2.66-11.55-2.69A13.49,13.49,0,0,1,63,7.61,13.87,13.87,0,0,1,59.94,5.8C57.48,4.07,55.2,2.46,52.2,1.7A13.3,13.3,0,0,0,49,1.3c-4.4,0-7.52,2.09-10.94,4.5A13.87,13.87,0,0,1,35,7.61a13.49,13.49,0,0,1-3.54.3c-3,0-5.84,0-8.72,1.16a13.35,13.35,0,0,0-2.83,1.53c-3.56,2.55-4.83,6-6.16,10a12.8,12.8,0,0,1-1.39,3.22,13.46,13.46,0,0,1-2.68,2.3c-2.44,1.77-4.7,3.4-6.36,6A12.86,12.86,0,0,0,2,35c-1.36,4.12-.3,7.69,1,11.64A13.09,13.09,0,0,1,3.72,50a13.09,13.09,0,0,1-.79,3.41C2,56.26,1.16,58.88,1.35,61.93A12.76,12.76,0,0,0,2,65.05l.27.74,0,0c.09.24.19.46.29.69h0c.11.23.22.46.34.68h0c.12.22.25.43.38.64h0c.13.21.27.42.41.61h0c.14.2.28.39.44.58h0c.15.19.31.38.47.56h0l.5.54a5.9,5.9,0,0,0,.49.51l.06.06a4.72,4.72,0,0,0,.48.41,7.44,7.44,0,0,0,4.67,1.63Q11.13,72.76,11.44,72.73ZM54.38,4.44c.09-.21.34-.37.88-.08a45.37,45.37,0,0,1,4.2,2.73A14.22,14.22,0,0,0,62.62,9a14.1,14.1,0,0,0,3.67.32c1.37,0,2.68,0,4,.13,1,.08.86.92-.2.82-1.38-.12-2.77-.14-4.22-.15a13.5,13.5,0,0,1-3.54-.31A13.23,13.23,0,0,1,59.26,8,39.49,39.49,0,0,0,55,5.2C54.55,5,54.27,4.69,54.38,4.44Zm-.93,1.93c.19-.31.58-.17.86,0a40.2,40.2,0,0,1,4.51,2.89A13.85,13.85,0,0,0,62,11.11a14.14,14.14,0,0,0,3.68.33c1.4,0,2.75,0,4.08.13.88.07.84.91-.28.82-1.38-.11-2.79-.14-4.25-.16a13.12,13.12,0,0,1-3.54-.31,13.17,13.17,0,0,1-3-1.8A37.72,37.72,0,0,0,54,7.19C53.81,7.09,53.25,6.69,53.45,6.37Zm-8.9,0c.2.32-.36.72-.56.82a37.07,37.07,0,0,0-4.62,2.93,13.17,13.17,0,0,1-3,1.8,13.12,13.12,0,0,1-3.54.31c-1.46,0-2.87,0-4.25.16-1.12.09-1.16-.75-.28-.82,1.33-.11,2.68-.12,4.08-.13A14.14,14.14,0,0,0,36,11.11a13.85,13.85,0,0,0,3.16-1.87,40.2,40.2,0,0,1,4.51-2.89C44,6.2,44.36,6.06,44.55,6.37Zm-16.82,3c1.3-.11,2.61-.12,4-.13A14.1,14.1,0,0,0,35.38,9a14.22,14.22,0,0,0,3.16-1.87,45.37,45.37,0,0,1,4.2-2.73c.54-.29.79-.13.88.08S43.45,5,43,5.2A40.48,40.48,0,0,0,38.74,8a13.23,13.23,0,0,1-3.05,1.8,13.5,13.5,0,0,1-3.54.31c-1.45,0-2.84,0-4.22.15C26.87,10.33,26.68,9.49,27.73,9.41Zm-9.07,8.43c.14-.29.37-.62.71-.48s.13.8,0,1a35.6,35.6,0,0,0-2,5A13.34,13.34,0,0,1,16,26.61a13.79,13.79,0,0,1-2.68,2.3c-1.18.85-2.29,1.68-3.35,2.58-.85.71-1.38.06-.71-.51,1-.86,2.1-1.65,3.22-2.46a13.87,13.87,0,0,0,2.78-2.39,13.26,13.26,0,0,0,1.45-3.34A40.12,40.12,0,0,1,18.66,17.84ZM7.56,29.54c1-.84,2.05-1.6,3.14-2.4a13.89,13.89,0,0,0,2.79-2.38,13.84,13.84,0,0,0,1.44-3.35,42.81,42.81,0,0,1,1.78-4.63c.26-.55.55-.56.75-.44s.19.54,0,.95A39.26,39.26,0,0,0,15.61,22a12.8,12.8,0,0,1-1.39,3.22,13.14,13.14,0,0,1-2.68,2.3c-1.17.85-2.28,1.67-3.33,2.56C7.41,30.78,6.76,30.21,7.56,29.54ZM5.4,40.42c.37-.09.59.56.63.78a36.21,36.21,0,0,0,1.48,5.2,13.45,13.45,0,0,1,.85,3.4,13.09,13.09,0,0,1-.75,3.42c-.34,1.1-.66,2.26-.94,3.37a6.45,6.45,0,0,0-.15.86.43.43,0,0,1-.84-.08,3.21,3.21,0,0,1,.18-1c.25-1,.54-2,.84-3a13.59,13.59,0,0,0,.78-3.55,14.16,14.16,0,0,0-.88-3.53,37.11,37.11,0,0,1-1.47-5.09C5.06,40.91,5,40.51,5.4,40.42ZM3,59.68a18.61,18.61,0,0,1,.58-3.51c.24-.92.52-1.85.82-2.81a13.58,13.58,0,0,0,.77-3.55,13.34,13.34,0,0,0-.88-3.53,42.14,42.14,0,0,1-1.4-4.75c-.13-.59.1-.78.34-.8s.47.32.56.77a40,40,0,0,0,1.41,4.86,13,13,0,0,1,.85,3.4,12.7,12.7,0,0,1-.75,3.42c-.32,1-.63,2.08-.88,3.1a15.55,15.55,0,0,0-.6,3.23C3.85,60.21,3.11,60.16,3,59.68Zm2.31,3.57a3.28,3.28,0,0,1,.5-.82c.57-.68.84-.59.48.27a2.9,2.9,0,0,0,1.91,4,4.13,4.13,0,0,0,.61.13c.76.08.69.41,0,.53a3.36,3.36,0,0,1-1.57-.11A2.9,2.9,0,0,1,5.34,63.25Zm.18,5.23a4.85,4.85,0,0,1-.85-1c-.61-1-.36-1.3.62-.39a4.61,4.61,0,0,0,5.89.53,3.39,3.39,0,0,0,.45-.4,3.28,3.28,0,0,0,.44-.56l0-.06c.5-.82.92-.54.71.33a1.83,1.83,0,0,1-.08.25,3.52,3.52,0,0,1-.62,1.16l-.26.31A4.55,4.55,0,0,1,5.52,68.48Zm4.61,2a5.21,5.21,0,0,0,4.21-2.2,5.93,5.93,0,0,0,1-4.4c-.24-1.24.32-1.36.84-.33a5.47,5.47,0,0,1,.56,2.5,5.73,5.73,0,0,1-1.88,4.27,5.16,5.16,0,0,1-3.42,1.32,4.77,4.77,0,0,1-1.51-.24C8.61,71,8.62,70.49,10.13,70.49Z"/><path class="cls-12" d="M47,46c9.5,0,8-7,8-8s0-5-2-7c-1-1-1.7-1-4-1-3,0-4,1-4,2a9.23,9.23,0,0,0,1,3,6.17,6.17,0,0,1,1,3,5.09,5.09,0,0,1-5,5,6.11,6.11,0,0,1-6-6c0-2.74.91-6.06,3-8,3.1-2.88,8.34-5,11-5,4,0,9,1,12,4,3.18,3.18,5,6,5,9,0,2.3-1.7,6.48-4,9-1.87,2-3.62,2.21-6,3h0a14.15,14.15,0,0,1,8,5,11.83,11.83,0,0,1,3,8c0,4-2.83,10-6,13a17.34,17.34,0,0,1-12,5,19.55,19.55,0,0,1-12-5c-3.38-3.1-5-6.91-5-9,0-5,4-9,7-9s6,3.19,6,6a4.31,4.31,0,0,1-1,3c-.65,1-2,2.42-2,4,0,2.52.32,4,5,4,2,0,5-1,6-3a19.93,19.93,0,0,0,2-8c0-3.67-.7-6.13-2-8-.94-1.3-2.32-3-7-3H43V46Z"/><path class="cls-13" d="M45,44c9.5,0,8-7,8-8s0-5-2-7c-1-1-1.7-1-4-1-3,0-4,1-4,2a9.23,9.23,0,0,0,1,3,6.17,6.17,0,0,1,1,3,5.09,5.09,0,0,1-5,5,6.11,6.11,0,0,1-6-6c0-2.74.91-6.06,3-8,3.1-2.88,8.34-5,11-5,6,0,11,2,12,3,3,3,5,7,5,10,0,2.3-1.7,6.48-4,9-1.87,2-1.62,2.21-4,3h0c3.31.72,4.77,2.41,7,5a11.83,11.83,0,0,1,3,8c0,5-3,10-7,14-3.67,3.67-8.18,4-12,4a19.55,19.55,0,0,1-12-5c-3.38-3.1-5-6.91-5-9,0-5,4-9,7-9s6,3.19,6,6a4.31,4.31,0,0,1-1,3c-.65,1-2,2.42-2,4,0,2.52.32,4,5,4,2,0,5-1,6-3a19.93,19.93,0,0,0,2-8c0-3.67-.7-6.13-2-8-.94-1.3-2.32-3-7-3H41V44Z"/><path class="cls-12" d="M45,45c9.5,0,9-7,9-9a12,12,0,0,0-2-7c-1.51-2.16-2.7-2-5-2-3,0-5,2-5,3a9.23,9.23,0,0,0,1,3,6.17,6.17,0,0,1,1,3,4.16,4.16,0,0,1-4,4,5.08,5.08,0,0,1-5-5c0-2.74.91-6.06,3-8a15.72,15.72,0,0,1,10-4c3.38,0,7.62.19,11,3s5,6.48,5,9c0,2.3-1.7,6.48-4,9-1.87,2-2.62,2.21-5,3h0a14.15,14.15,0,0,1,8,5,11.83,11.83,0,0,1,3,8c0,4-2.83,10-6,13-3.74,3.6-8.18,4-12,4a19.55,19.55,0,0,1-12-5c-3.38-3.1-4-5.91-4-8,0-5,3.84-8,6-8,1.73,0,5,2.19,5,5a4.31,4.31,0,0,1-1,3c-.65,1-2,2.42-2,4,0,2.52,1.32,5,6,5,2,0,6-2,7-4a19.93,19.93,0,0,0,2-8q0-6-3-9a11.43,11.43,0,0,0-7-3H42V45Z"/><path class="cls-14" d="M45.18,45.75c9.51,0,9.58-7.77,9.58-9.79s-.07-4.9-1.66-7.13a6.58,6.58,0,0,0-5.9-2.74c-3,0-5.54,2.09-5.54,4.18a7,7,0,0,0,.93,2.59,6,6,0,0,1,.65,3,3.37,3.37,0,0,1-3.38,3.68c-1.88,0-4.32-1.44-4.32-4.9A10.65,10.65,0,0,1,38.92,27c3.1-2.88,6.91-3.24,9.58-3.24,3.38,0,7,.5,10.37,3.31a10.08,10.08,0,0,1,4,8.35A10.06,10.06,0,0,1,60,42.66a16.5,16.5,0,0,1-6.77,4.17v.36a16,16,0,0,1,8.71,5,11.94,11.94,0,0,1,2.95,8.07A16.37,16.37,0,0,1,48.06,76.21a15.49,15.49,0,0,1-11-3.89,11.33,11.33,0,0,1-4-8.57c0-5,3-6.84,5.18-6.84A3.81,3.81,0,0,1,42,61a5,5,0,0,1-1,3.24c-.65,1-2,2.45-2,4,0,2.52,2.16,5.18,6.84,5.18a9.08,9.08,0,0,0,7.92-4.89,17.4,17.4,0,0,0,1.8-7.49,14.37,14.37,0,0,0-2.16-8.28,9.84,9.84,0,0,0-8.13-4.32H43.1V45.75Z"/></g></svg>