<svg xmlns="http://www.w3.org/2000/svg" xmlns:xlink="http://www.w3.org/1999/xlink" viewBox="0 0 98 100"><defs><style>.cls-1,.cls-2,.cls-3,.cls-4,.cls-5,.cls-6,.cls-7,.cls-8{fill-rule:evenodd;}.cls-1{fill:url(#New_Gradient_Swatch_2);}.cls-2{fill:url(#New_Gradient_Swatch_2-2);}.cls-3{fill:url(#New_Gradient_Swatch_2-3);}.cls-4{fill:url(#New_Gradient_Swatch_2-4);}.cls-5{fill:url(#New_Gradient_Swatch_2-5);}.cls-6{fill:url(#New_Gradient_Swatch_2-6);}.cls-7{fill:url(#New_Gradient_Swatch_2-7);}.cls-8{fill:url(#New_Gradient_Swatch_2-8);}.cls-9{fill:url(#New_Gradient_Swatch_1);}.cls-10{fill:url(#New_Gradient_Swatch_1-2);}.cls-11{fill:#7a7a7a;}.cls-11,.cls-12,.cls-13{stroke:#faeeac;stroke-miterlimit:10;}.cls-12{fill:none;}.cls-13{fill:#d1a137;}</style><linearGradient id="New_Gradient_Swatch_2" x1="49" y1="0.59" x2="49" y2="99.51" gradientUnits="userSpaceOnUse"><stop offset="0" stop-color="#4c4c4c"/><stop offset="1" stop-color="#1a1a1a"/></linearGradient><linearGradient id="New_Gradient_Swatch_2-2" x1="12.86" y1="0.32" x2="12.86" y2="99.89" xlink:href="#New_Gradient_Swatch_2"/><linearGradient id="New_Gradient_Swatch_2-3" x1="49" y1="0.32" x2="49" y2="99.89" xlink:href="#New_Gradient_Swatch_2"/><linearGradient id="New_Gradient_Swatch_2-4" x1="8.61" y1="0.32" x2="8.61" y2="99.89" xlink:href="#New_Gradient_Swatch_2"/><linearGradient id="New_Gradient_Swatch_2-5" x1="7.24" y1="0.32" x2="7.24" y2="99.89" xlink:href="#New_Gradient_Swatch_2"/><linearGradient id="New_Gradient_Swatch_2-6" x1="85.14" y1="0.32" x2="85.14" y2="99.89" xlink:href="#New_Gradient_Swatch_2"/><linearGradient id="New_Gradient_Swatch_2-7" x1="89.39" y1="0.32" x2="89.39" y2="99.89" xlink:href="#New_Gradient_Swatch_2"/><linearGradient id="New_Gradient_Swatch_2-8" x1="90.76" y1="0.32" x2="90.76" y2="99.89" xlink:href="#New_Gradient_Swatch_2"/><linearGradient id="New_Gradient_Swatch_1" x1="53.25" y1="1.09" x2="53.25" y2="98.67" gradientUnits="userSpaceOnUse"><stop offset="0" stop-color="#fefe98"/><stop offset="1" stop-color="#9e9159"/></linearGradient><linearGradient id="New_Gradient_Swatch_1-2" x1="44.74" y1="1.3" x2="44.74" y2="99.03" xlink:href="#New_Gradient_Swatch_1"/></defs><title>KO_icon</title><g id="Layer_6" data-name="Layer 6"><path class="cls-1" d="M96.33,53a12,12,0,0,1-.74-3,12,12,0,0,1,.74-3c1-3,1.84-5.77,1.63-9a13.43,13.43,0,0,0-.66-3.44c-1.46-4.42-4.56-6.85-8.21-9.5a12.61,12.61,0,0,1-2.39-2,12.13,12.13,0,0,1-1.21-2.87c-1-3-2-5.74-4-8.22a14.39,14.39,0,0,0-2.59-2.4C75,6.82,71.07,6.65,66.54,6.61a12.16,12.16,0,0,1-3.14-.24,12.18,12.18,0,0,1-2.69-1.62c-2.61-1.84-5-3.51-8.18-4.31A14.47,14.47,0,0,0,49,0c-4.72,0-8,2.15-11.71,4.75A12.18,12.18,0,0,1,34.6,6.37a12.16,12.16,0,0,1-3.14.24c-3.22,0-6.15.07-9.19,1.26a14,14,0,0,0-3.12,1.68c-3.82,2.73-5.21,6.38-6.64,10.62A12.13,12.13,0,0,1,11.3,23a12.61,12.61,0,0,1-2.39,2C6.32,26.93,4,28.66,2.22,31.38A13.8,13.8,0,0,0,.7,34.55C-.76,39,.3,42.74,1.67,47a12,12,0,0,1,.74,3,12,12,0,0,1-.74,3C.7,56-.17,58.79,0,62A13.43,13.43,0,0,0,.7,65.45,14.16,14.16,0,0,0,4.11,71a8.92,8.92,0,0,0,1.3,1.23c1.07.94,2.25,1.82,3.5,2.72a12.61,12.61,0,0,1,2.39,2,12.13,12.13,0,0,1,1.21,2.87c1,3,2,5.74,4,8.22a14.39,14.39,0,0,0,2.59,2.4c3.82,2.73,7.78,2.9,12.31,2.94a12.16,12.16,0,0,1,3.14.24,12.18,12.18,0,0,1,2.69,1.62c2.61,1.84,5,3.51,8.18,4.31A14.47,14.47,0,0,0,49,100c4.72,0,8-2.15,11.71-4.75a12.18,12.18,0,0,1,2.69-1.62,12.16,12.16,0,0,1,3.14-.24c3.22,0,6.15-.07,9.19-1.26a14,14,0,0,0,3.12-1.68c3.82-2.73,5.21-6.38,6.64-10.62A12.13,12.13,0,0,1,86.7,77a12.61,12.61,0,0,1,2.39-2c2.59-1.88,4.94-3.61,6.69-6.33a13.8,13.8,0,0,0,1.52-3.17C98.76,61,97.7,57.26,96.33,53Z"/><path class="cls-2" d="M16.19,63.56a5.65,5.65,0,0,1-4.74,8.09,4.77,4.77,0,0,1-1.51-.24c-1.33-.44-1.32-.92.19-.92a5.44,5.44,0,0,0,5.3-5.58,5.7,5.7,0,0,0-.08-1c-.24-1.24.32-1.36.84-.33Z"/><path class="cls-3" d="M96.33,53a12,12,0,0,1-.74-3,12,12,0,0,1,.74-3c1-3,1.84-5.77,1.63-9a13.43,13.43,0,0,0-.66-3.44c-1.46-4.42-4.56-6.85-8.21-9.5a12.61,12.61,0,0,1-2.39-2,12.13,12.13,0,0,1-1.21-2.87c-1-3-2-5.74-4-8.22a14.39,14.39,0,0,0-2.59-2.4C75,6.82,71.07,6.65,66.54,6.61a12.16,12.16,0,0,1-3.14-.24,12.18,12.18,0,0,1-2.69-1.62c-2.61-1.84-5-3.51-8.18-4.31A14.47,14.47,0,0,0,49,0c-4.72,0-8,2.15-11.71,4.75A12.18,12.18,0,0,1,34.6,6.37a12.16,12.16,0,0,1-3.14.24c-3.22,0-6.15.07-9.19,1.26a14,14,0,0,0-3.12,1.68c-3.82,2.73-5.21,6.38-6.64,10.62A12.13,12.13,0,0,1,11.3,23a12.61,12.61,0,0,1-2.39,2C6.32,26.93,4,28.66,2.22,31.38A13.8,13.8,0,0,0,.7,34.55C-.76,39,.3,42.74,1.67,47a12,12,0,0,1,.74,3,12,12,0,0,1-.74,3C.7,56-.17,58.79,0,62A13.43,13.43,0,0,0,.7,65.45,14.16,14.16,0,0,0,4.11,71a8.92,8.92,0,0,0,1.3,1.23c1.07.94,2.25,1.82,3.5,2.72a12.61,12.61,0,0,1,2.39,2,12.13,12.13,0,0,1,1.21,2.87c1,3,2,5.74,4,8.22a14.39,14.39,0,0,0,2.59,2.4c3.82,2.73,7.78,2.9,12.31,2.94a12.16,12.16,0,0,1,3.14.24,12.18,12.18,0,0,1,2.69,1.62c2.61,1.84,5,3.51,8.18,4.31A14.47,14.47,0,0,0,49,100c4.72,0,8-2.15,11.71-4.75a12.18,12.18,0,0,1,2.69-1.62,12.16,12.16,0,0,1,3.14-.24c3.22,0,6.15-.07,9.19-1.26a14,14,0,0,0,3.12-1.68c3.82-2.73,5.21-6.38,6.64-10.62A12.13,12.13,0,0,1,86.7,77a12.61,12.61,0,0,1,2.39-2c2.59-1.88,4.94-3.61,6.69-6.33a13.8,13.8,0,0,0,1.52-3.17C98.76,61,97.7,57.26,96.33,53Zm-.28,12a12.86,12.86,0,0,1-1.38,2.87c-1.66,2.58-3.92,4.21-6.36,6a13.46,13.46,0,0,0-2.68,2.3,12.8,12.8,0,0,0-1.39,3.22c-1.33,3.93-2.6,7.43-6.16,10a13.35,13.35,0,0,1-2.83,1.53c-2.88,1.12-5.69,1.14-8.72,1.16a13.49,13.49,0,0,0-3.54.3,13.87,13.87,0,0,0-3.05,1.81C56.52,96.61,53.4,98.7,49,98.7a13.3,13.3,0,0,1-3.2-.4c-3-.76-5.28-2.37-7.74-4.1A13.87,13.87,0,0,0,35,92.39a13.49,13.49,0,0,0-3.54-.3c-4.21,0-8-.14-11.55-2.69a12.75,12.75,0,0,1-2.34-2.18c-2-2.35-2.86-5-3.82-7.8a12.8,12.8,0,0,0-1.39-3.22A12.61,12.61,0,0,0,9.83,74a7.93,7.93,0,0,0,1,.06,8.71,8.71,0,0,0,8.78-8.64,8.59,8.59,0,0,0-4-7.26,7.5,7.5,0,0,0-4.42-1.43A9.22,9.22,0,0,0,8,57.22a6.93,6.93,0,0,0-4.34,6h0c-.12.61.62.82.77.11a6.43,6.43,0,0,1,3.76-4.76l.09,0h0l.05,0h0l0,0h0l.05,0h0l.05,0h0l.08,0h0l.05,0h0l.09,0,.05,0h.2l.05,0h.11l.09,0h.35l.11,0h.94a7.41,7.41,0,0,1,7.46,7.35v.18h0s0,.11,0,.16v0h0v.38h0v.47l0,.09v0A7.5,7.5,0,0,1,6,71.05H6l-.22-.19h0l-.07-.06h0l-.27-.26h0l0,0h0l0,0h0l0,0-.05-.05v0l0,0h0l0,0h0l0,0,0,0h0l0,0v0h0L5,70.08H5L5,70H5L4.92,70h0l-.06-.06h0l0,0v0l0,0h0l0,0,0,0,0-.05,0,0,0,0,0,0,0,0,0,0,0,0,0,0,0,0-.06-.07,0,0,0,0,0,0,0,0,0,0,0,0,0,0,0,0,0,0,0,0,0,0v0l0-.05,0-.06h0l0-.06h0l-.05-.06h0l0-.07h0l-.05-.07h0l0-.07h0l-.05-.07h0l0-.07h0l0-.07h0l0-.06h0l0-.07h0l0-.06,0-.08v0l0,0,0-.08,0,0,0,0-.23-.39,0-.05,0,0,0-.05,0,0,0-.06v0l-.17-.33,0-.08h0l0-.07h0l0-.08h0l0-.09c0-.08-.07-.17-.11-.26h0l0-.07c0-.09-.07-.18-.11-.27v0l0-.07v0l0-.06c0-.09-.07-.18-.1-.27L2,65.05a12.76,12.76,0,0,1-.6-3.12c-.19-3,.66-5.67,1.58-8.52A13.09,13.09,0,0,0,3.72,50a13.09,13.09,0,0,0-.79-3.41C1.65,42.64.59,39.07,2,35a12.86,12.86,0,0,1,1.38-2.87c1.66-2.58,3.92-4.21,6.36-6a13.46,13.46,0,0,0,2.68-2.3,12.8,12.8,0,0,0,1.39-3.22c1.33-3.93,2.6-7.43,6.16-10a13.35,13.35,0,0,1,2.83-1.53C25.63,8,28.44,7.93,31.47,7.91A13.49,13.49,0,0,0,35,7.61,13.87,13.87,0,0,0,38.06,5.8C41.48,3.39,44.6,1.3,49,1.3a13.3,13.3,0,0,1,3.2.4c3,.76,5.28,2.37,7.74,4.1A13.87,13.87,0,0,0,63,7.61a13.49,13.49,0,0,0,3.54.3c4.21,0,8,.14,11.55,2.69a12.75,12.75,0,0,1,2.34,2.18c2,2.35,2.86,5,3.82,7.8a12.8,12.8,0,0,0,1.39,3.22A12.61,12.61,0,0,0,88.17,26a7.93,7.93,0,0,0-1-.06,8.71,8.71,0,0,0-8.78,8.64,8.59,8.59,0,0,0,4,7.26,7.5,7.5,0,0,0,4.42,1.43A9.22,9.22,0,0,0,90,42.78a6.93,6.93,0,0,0,4.34-6h0c.12-.61-.62-.82-.77-.11a6.42,6.42,0,0,1-3.76,4.76h0l0,0h-.11l0,0H89.3l-.08,0h0l-.07,0H87.19a7.41,7.41,0,0,1-7.46-7.35v-.19h0c0-.05,0-.11,0-.16v0h0V33.8h0v-.47l0-.09v0A7.5,7.5,0,0,1,92.1,29.06h0a7.18,7.18,0,0,1,.78.78,13,13,0,0,1,3,4.77l0,0v.05l.09.24a12.76,12.76,0,0,1,.6,3.12c.19,3-.66,5.67-1.58,8.52A13.09,13.09,0,0,0,94.28,50a13.09,13.09,0,0,0,.79,3.41C96.35,57.36,97.41,60.93,96.05,65.05Z"/><path class="cls-4" d="M12.83,66.89a3.7,3.7,0,0,1-1,1.72,4.55,4.55,0,0,1-6.35-.13,4.85,4.85,0,0,1-.85-1c-.61-1-.36-1.3.62-.39a4.53,4.53,0,0,0,6.34.13,3.61,3.61,0,0,0,.49-.62c.5-.82.92-.54.71.33Z"/><path class="cls-5" d="M8.82,67.34a3.36,3.36,0,0,1-1.57-.11,2.9,2.9,0,0,1-1.91-4,3.28,3.28,0,0,1,.5-.82c.57-.68.84-.59.48.27a2.9,2.9,0,0,0,1.91,4,4.13,4.13,0,0,0,.61.13c.76.08.69.41,0,.53Z"/><path class="cls-6" d="M81.81,36.44a5.65,5.65,0,0,1,4.74-8.09,4.77,4.77,0,0,1,1.51.24c1.33.44,1.32.92-.19.92a5.45,5.45,0,0,0-5.31,5.58,5.69,5.69,0,0,0,.09,1c.24,1.24-.32,1.36-.84.33Z"/><path class="cls-7" d="M85.17,33.11a3.7,3.7,0,0,1,1-1.72,4.55,4.55,0,0,1,6.35.13,5.17,5.17,0,0,1,.85,1c.61,1,.36,1.3-.62.39a4.53,4.53,0,0,0-6.34-.13,3.61,3.61,0,0,0-.49.62c-.5.82-.92.54-.71-.33Z"/><path class="cls-8" d="M89.18,32.66a3.36,3.36,0,0,1,1.57.11,2.9,2.9,0,0,1,1.91,4,3.28,3.28,0,0,1-.5.82c-.57.68-.85.59-.48-.27a2.9,2.9,0,0,0-1.91-4,4.13,4.13,0,0,0-.61-.13c-.76-.08-.69-.41,0-.53Z"/><path class="cls-9" d="M94.28,50a13.09,13.09,0,0,1,.79-3.41c.92-2.85,1.77-5.47,1.58-8.52a12.76,12.76,0,0,0-.6-3.12L96,34.71v-.05l0,0a13,13,0,0,0-3-4.77,7.18,7.18,0,0,0-.78-.78h0a7.5,7.5,0,0,0-4.91-1.82,7.23,7.23,0,0,0-1.33.12A7.36,7.36,0,0,0,82.35,29a6.81,6.81,0,0,0-.93.93,7.33,7.33,0,0,0-1.56,3.26v0l0,.09v.47h0v.38h0v0c0,.05,0,.11,0,.16h0v.18a7.41,7.41,0,0,0,7.46,7.35h1.92l.07,0h0l.08,0h.23l0,0h.11l0,0h0c.21-.09.41-.2.62-.31a6.43,6.43,0,0,0,3.14-4.45c.15-.71.89-.5.77.11h0a6.93,6.93,0,0,1-4.34,6c0,.09,0,.17-.07.25s-.11.36-.17.54L89.6,44l-.24.72c0,.17-.1.33-.16.5l-.13.43-.15.49c0,.13-.07.26-.11.4s-.09.33-.13.49-.07.26-.1.39-.07.34-.1.52,0,.23-.07.35a5.4,5.4,0,0,0-.08.58c0,.1,0,.2,0,.3a8.44,8.44,0,0,0,0,.87c0,4.46,3.46,9,2.06,13.21s-6.9,5.9-9.56,9.5S78.19,82,74.53,84.6s-9.1.77-13.4,2.15-7.6,6-12.13,6-7.82-4.64-12.13-6-9.74.47-13.4-2.15a7.42,7.42,0,0,1-2.14-2.46c-.11-.18-.2-.36-.3-.55-1.31-2.61-1.84-5.87-3.42-8.36l-.36-.52a7.93,7.93,0,0,0-.53-.65.93.93,0,0,0-.14-.14,8.55,8.55,0,0,1-1.08.79,3.94,3.94,0,0,1,.52.58,13,13,0,0,1,1.39,3.22,36.58,36.58,0,0,0,2,5c.1.2.32.85,0,1s-.57-.2-.71-.49a40.12,40.12,0,0,1-1.93-5,13.58,13.58,0,0,0-1.45-3.34,6,6,0,0,0-.55-.62,8.11,8.11,0,0,1-1.44.56,5.92,5.92,0,0,1,.93,1,13,13,0,0,1,1.39,3.22,38.61,38.61,0,0,0,1.84,4.72c.2.41.25.82,0,1s-.49.1-.75-.44a42.2,42.2,0,0,1-1.78-4.64,13.6,13.6,0,0,0-1.44-3.34,7.36,7.36,0,0,0-1.22-1.21,8.81,8.81,0,0,1-1.46.13,7.93,7.93,0,0,1-1-.06l.24.18.15.11.21.15.17.13.19.15.18.14.18.14.18.15.17.14.18.17.15.13.18.19.11.12a3.31,3.31,0,0,1,.25.3,12.8,12.8,0,0,1,1.39,3.22c1,2.83,1.84,5.45,3.82,7.8a12.75,12.75,0,0,0,2.34,2.18c3.56,2.55,7.34,2.66,11.55,2.69a13.49,13.49,0,0,1,3.54.3,13.87,13.87,0,0,1,3.05,1.81c2.46,1.73,4.74,3.34,7.74,4.1a13.3,13.3,0,0,0,3.2.4c4.4,0,7.52-2.09,10.94-4.5A13.87,13.87,0,0,1,63,92.39a13.49,13.49,0,0,1,3.54-.3c3,0,5.84,0,8.72-1.16a13.35,13.35,0,0,0,2.83-1.53c3.56-2.55,4.83-6.05,6.16-10a12.8,12.8,0,0,1,1.39-3.22,13.46,13.46,0,0,1,2.68-2.3c2.44-1.77,4.7-3.4,6.36-6a12.86,12.86,0,0,0,1.38-2.87c1.36-4.12.3-7.69-1-11.64A13.09,13.09,0,0,1,94.28,50ZM82.65,36.11c.24,1.24-.32,1.36-.84.33a5.47,5.47,0,0,1-.56-2.5,5.73,5.73,0,0,1,1.88-4.27,5.16,5.16,0,0,1,3.42-1.32,4.77,4.77,0,0,1,1.51.24c1.33.44,1.32.92-.19.92a5.21,5.21,0,0,0-4.21,2.2,5.76,5.76,0,0,0-1,4.4Zm10,.64a3.28,3.28,0,0,1-.5.82c-.57.68-.85.59-.48-.27a2.9,2.9,0,0,0-1.91-4,4.13,4.13,0,0,0-.61-.13c-.76-.08-.69-.41,0-.53a3.36,3.36,0,0,1,1.57.11A2.9,2.9,0,0,1,92.66,36.75Zm0-3.8a4.61,4.61,0,0,0-5.89-.53,3.39,3.39,0,0,0-.45.4,2.93,2.93,0,0,0-.44.56l-.05.06c-.5.82-.92.54-.71-.33a1.83,1.83,0,0,1,.08-.25,3.52,3.52,0,0,1,.62-1.16l.26-.31a4.55,4.55,0,0,1,6.35.13,5.17,5.17,0,0,1,.85,1C93.94,33.61,93.69,33.86,92.71,33ZM43.62,95.56c-.09.21-.34.37-.88.08a45.37,45.37,0,0,1-4.2-2.73A14.22,14.22,0,0,0,35.38,91a14.1,14.1,0,0,0-3.67-.32c-1.37,0-2.68,0-4-.13-1.05-.08-.86-.92.2-.82,1.38.12,2.77.14,4.22.15a13.5,13.5,0,0,1,3.54.31A13.23,13.23,0,0,1,38.74,92,40.48,40.48,0,0,0,43,94.8C43.45,95,43.73,95.31,43.62,95.56Zm.93-1.93c-.19.31-.58.17-.86,0a40.2,40.2,0,0,1-4.51-2.89A13.85,13.85,0,0,0,36,88.89a14.14,14.14,0,0,0-3.68-.33c-1.4,0-2.75,0-4.08-.13-.88-.07-.84-.91.28-.82,1.38.11,2.79.14,4.25.16a13.12,13.12,0,0,1,3.54.31,13.17,13.17,0,0,1,3,1.8A37.07,37.07,0,0,0,44,92.81C44.19,92.91,44.75,93.31,44.55,93.63Zm8.9,0c-.2-.32.36-.72.57-.82a37.72,37.72,0,0,0,4.61-2.93,13.17,13.17,0,0,1,3-1.8,13.12,13.12,0,0,1,3.54-.31c1.46,0,2.87,0,4.25-.16,1.12-.09,1.16.75.28.82-1.33.11-2.68.12-4.08.13a14.14,14.14,0,0,0-3.68.33,13.85,13.85,0,0,0-3.16,1.87,40.2,40.2,0,0,1-4.51,2.89C54,93.8,53.64,93.94,53.45,93.63Zm16.82-3c-1.3.11-2.61.12-4,.13a14.1,14.1,0,0,0-3.67.32,14.22,14.22,0,0,0-3.16,1.87,45.37,45.37,0,0,1-4.2,2.73c-.54.29-.79.13-.88-.08s.17-.55.58-.76A39.49,39.49,0,0,0,59.26,92a13.23,13.23,0,0,1,3.05-1.8,13.5,13.5,0,0,1,3.54-.31c1.45,0,2.84,0,4.22-.15C71.13,89.67,71.32,90.51,70.27,90.59Zm9.07-8.54c-.14.29-.37.63-.71.49s-.13-.8,0-1a36.58,36.58,0,0,0,2-5A13,13,0,0,1,82,73.29,13.14,13.14,0,0,1,84.66,71c1.18-.85,2.3-1.69,3.35-2.58.85-.72,1.38-.06.71.51-1,.85-2.1,1.64-3.22,2.46a13.83,13.83,0,0,0-2.78,2.38,13.58,13.58,0,0,0-1.45,3.34A40.12,40.12,0,0,1,79.34,82.05Zm11.1-11.69c-1,.83-2,1.6-3.14,2.39a13.93,13.93,0,0,0-2.79,2.39,13.6,13.6,0,0,0-1.44,3.34,42.2,42.2,0,0,1-1.78,4.64c-.26.54-.55.56-.75.44s-.19-.55,0-1a38.61,38.61,0,0,0,1.84-4.72,13,13,0,0,1,1.39-3.22,13.79,13.79,0,0,1,2.68-2.3c1.17-.84,2.28-1.66,3.33-2.56C90.59,69.11,91.24,69.69,90.44,70.36ZM92.6,59.58c-.37.09-.59-.56-.63-.78a36.21,36.21,0,0,0-1.48-5.2,13.45,13.45,0,0,1-.85-3.4,13.09,13.09,0,0,1,.75-3.42c.34-1.1.66-2.26.94-3.37a6.45,6.45,0,0,0,.15-.86.43.43,0,0,1,.84.08,3.21,3.21,0,0,1-.18,1c-.25,1-.54,2-.84,3a13.59,13.59,0,0,0-.78,3.55,14.16,14.16,0,0,0,.88,3.53,38.57,38.57,0,0,1,1.47,5.09C92.94,59.09,93,59.49,92.6,59.58Zm2.14-.31c-.27,0-.47-.32-.56-.77a40,40,0,0,0-1.41-4.86,13,13,0,0,1-.85-3.4,12.7,12.7,0,0,1,.75-3.42c.32-1,.63-2.08.88-3.1a15.55,15.55,0,0,0,.6-3.23c0-.7.74-.65.82-.17a18.61,18.61,0,0,1-.58,3.51c-.24.92-.52,1.85-.82,2.81a13.58,13.58,0,0,0-.77,3.55,13.34,13.34,0,0,0,.88,3.53,42.14,42.14,0,0,1,1.4,4.75C95.21,59.06,95,59.25,94.74,59.27Z"/><path class="cls-10" d="M11.44,72.73l.21,0a7.39,7.39,0,0,0,2.1-.55c.21-.09.42-.19.62-.3A7,7,0,0,0,15.65,71a6.81,6.81,0,0,0,.93-.93,7.33,7.33,0,0,0,1.56-3.26v0l0-.09v-.47h0v-.38h0v0s0-.11,0-.16h0v-.19a7.41,7.41,0,0,0-7.46-7.35H10l-.12,0h0l-.11,0H9.57l-.11,0H9.41l-.08,0H9.21l-.05,0H9l-.05,0-.09,0h0l-.05,0h0l-.08,0h0l-.05,0h0l-.05,0h0l0,0h0l-.05,0h0l-.09,0c-.21.09-.41.2-.62.31a6.43,6.43,0,0,0-3.14,4.45c-.15.71-.89.5-.77-.11h0a6.93,6.93,0,0,1,4.34-6H8c0-.15.09-.29.13-.44a1.54,1.54,0,0,0,.05-.17c.08-.23.15-.46.22-.69.18-.55.36-1.09.53-1.64a.5.5,0,0,1,0-.13l.21-.74,0-.13c.07-.26.14-.51.19-.77h0c.05-.24.1-.49.14-.74l0-.14c0-.24.07-.48.09-.72,0,0,0-.1,0-.14,0-.26,0-.51,0-.76,0-4.46-3.46-9-2.06-13.21s6.9-5.9,9.56-9.5S19.81,18,23.47,15.4s9.1-.77,13.4-2.15,7.6-6,12.13-6,7.82,4.64,12.13,6,9.74-.47,13.4,2.15,3.56,8.28,6.22,11.89a8.42,8.42,0,0,0,.61.73l0,.06h0l.1-.08.28-.22.36-.27.31-.2.1-.06a6.58,6.58,0,0,1-.58-.64,13.34,13.34,0,0,1-1.39-3.22,35.6,35.6,0,0,0-2-5c-.1-.2-.32-.86,0-1s.57.19.71.48a40.12,40.12,0,0,1,1.93,4.95,13.26,13.26,0,0,0,1.45,3.34,4.82,4.82,0,0,0,.62.69l.23-.1.33-.15.44-.16.34-.11.12,0a6.21,6.21,0,0,1-1-1A12.8,12.8,0,0,1,82.39,22a39.26,39.26,0,0,0-1.84-4.72c-.2-.41-.25-.81,0-.95s.49-.11.75.44a42.81,42.81,0,0,1,1.78,4.63,13.84,13.84,0,0,0,1.44,3.35,7.46,7.46,0,0,0,1.33,1.29l.2,0,.29,0c.28,0,.57,0,.86,0a7.93,7.93,0,0,1,1,.06,12.61,12.61,0,0,1-2.54-2.2,12.8,12.8,0,0,1-1.39-3.22c-1-2.83-1.84-5.45-3.82-7.8a12.75,12.75,0,0,0-2.34-2.18c-3.56-2.55-7.34-2.66-11.55-2.69A13.49,13.49,0,0,1,63,7.61,13.87,13.87,0,0,1,59.94,5.8C57.48,4.07,55.2,2.46,52.2,1.7A13.3,13.3,0,0,0,49,1.3c-4.4,0-7.52,2.09-10.94,4.5A13.87,13.87,0,0,1,35,7.61a13.49,13.49,0,0,1-3.54.3c-3,0-5.84,0-8.72,1.16a13.35,13.35,0,0,0-2.83,1.53c-3.56,2.55-4.83,6-6.16,10a12.8,12.8,0,0,1-1.39,3.22,13.46,13.46,0,0,1-2.68,2.3c-2.44,1.77-4.7,3.4-6.36,6A12.86,12.86,0,0,0,2,35c-1.36,4.12-.3,7.69,1,11.64A13.09,13.09,0,0,1,3.72,50a13.09,13.09,0,0,1-.79,3.41C2,56.26,1.16,58.88,1.35,61.93A12.76,12.76,0,0,0,2,65.05l.27.74,0,0c.09.24.19.46.29.69h0c.11.23.22.46.34.68h0c.12.22.25.43.38.64h0c.13.21.27.42.41.61h0c.14.2.28.39.44.58h0c.15.19.31.38.47.56h0l.5.54a5.9,5.9,0,0,0,.49.51l.06.06a4.72,4.72,0,0,0,.48.41,7.44,7.44,0,0,0,4.67,1.63Q11.13,72.76,11.44,72.73ZM54.38,4.44c.09-.21.34-.37.88-.08a45.37,45.37,0,0,1,4.2,2.73A14.22,14.22,0,0,0,62.62,9a14.1,14.1,0,0,0,3.67.32c1.37,0,2.68,0,4,.13,1,.08.86.92-.2.82-1.38-.12-2.77-.14-4.22-.15a13.5,13.5,0,0,1-3.54-.31A13.23,13.23,0,0,1,59.26,8,39.49,39.49,0,0,0,55,5.2C54.55,5,54.27,4.69,54.38,4.44Zm-.93,1.93c.19-.31.58-.17.86,0a40.2,40.2,0,0,1,4.51,2.89A13.85,13.85,0,0,0,62,11.11a14.14,14.14,0,0,0,3.68.33c1.4,0,2.75,0,4.08.13.88.07.84.91-.28.82-1.38-.11-2.79-.14-4.25-.16a13.12,13.12,0,0,1-3.54-.31,13.17,13.17,0,0,1-3-1.8A37.72,37.72,0,0,0,54,7.19C53.81,7.09,53.25,6.69,53.45,6.37Zm-8.9,0c.2.32-.36.72-.56.82a37.07,37.07,0,0,0-4.62,2.93,13.17,13.17,0,0,1-3,1.8,13.12,13.12,0,0,1-3.54.31c-1.46,0-2.87,0-4.25.16-1.12.09-1.16-.75-.28-.82,1.33-.11,2.68-.12,4.08-.13A14.14,14.14,0,0,0,36,11.11a13.85,13.85,0,0,0,3.16-1.87,40.2,40.2,0,0,1,4.51-2.89C44,6.2,44.36,6.06,44.55,6.37Zm-16.82,3c1.3-.11,2.61-.12,4-.13A14.1,14.1,0,0,0,35.38,9a14.22,14.22,0,0,0,3.16-1.87,45.37,45.37,0,0,1,4.2-2.73c.54-.29.79-.13.88.08S43.45,5,43,5.2A40.48,40.48,0,0,0,38.74,8a13.23,13.23,0,0,1-3.05,1.8,13.5,13.5,0,0,1-3.54.31c-1.45,0-2.84,0-4.22.15C26.87,10.33,26.68,9.49,27.73,9.41Zm-9.07,8.43c.14-.29.37-.62.71-.48s.13.8,0,1a35.6,35.6,0,0,0-2,5A13.34,13.34,0,0,1,16,26.61a13.79,13.79,0,0,1-2.68,2.3c-1.18.85-2.29,1.68-3.35,2.58-.85.71-1.38.06-.71-.51,1-.86,2.1-1.65,3.22-2.46a13.87,13.87,0,0,0,2.78-2.39,13.26,13.26,0,0,0,1.45-3.34A40.12,40.12,0,0,1,18.66,17.84ZM7.56,29.54c1-.84,2.05-1.6,3.14-2.4a13.89,13.89,0,0,0,2.79-2.38,13.84,13.84,0,0,0,1.44-3.35,42.81,42.81,0,0,1,1.78-4.63c.26-.55.55-.56.75-.44s.19.54,0,.95A39.26,39.26,0,0,0,15.61,22a12.8,12.8,0,0,1-1.39,3.22,13.14,13.14,0,0,1-2.68,2.3c-1.17.85-2.28,1.67-3.33,2.56C7.41,30.78,6.76,30.21,7.56,29.54ZM5.4,40.42c.37-.09.59.56.63.78a36.21,36.21,0,0,0,1.48,5.2,13.45,13.45,0,0,1,.85,3.4,13.09,13.09,0,0,1-.75,3.42c-.34,1.1-.66,2.26-.94,3.37a6.45,6.45,0,0,0-.15.86.43.43,0,0,1-.84-.08,3.21,3.21,0,0,1,.18-1c.25-1,.54-2,.84-3a13.59,13.59,0,0,0,.78-3.55,14.16,14.16,0,0,0-.88-3.53,37.11,37.11,0,0,1-1.47-5.09C5.06,40.91,5,40.51,5.4,40.42ZM3,59.68a18.61,18.61,0,0,1,.58-3.51c.24-.92.52-1.85.82-2.81a13.58,13.58,0,0,0,.77-3.55,13.34,13.34,0,0,0-.88-3.53,42.14,42.14,0,0,1-1.4-4.75c-.13-.59.1-.78.34-.8s.47.32.56.77a40,40,0,0,0,1.41,4.86,13,13,0,0,1,.85,3.4,12.7,12.7,0,0,1-.75,3.42c-.32,1-.63,2.08-.88,3.1a15.55,15.55,0,0,0-.6,3.23C3.85,60.21,3.11,60.16,3,59.68Zm2.31,3.57a3.28,3.28,0,0,1,.5-.82c.57-.68.84-.59.48.27a2.9,2.9,0,0,0,1.91,4,4.13,4.13,0,0,0,.61.13c.76.08.69.41,0,.53a3.36,3.36,0,0,1-1.57-.11A2.9,2.9,0,0,1,5.34,63.25Zm.18,5.23a4.85,4.85,0,0,1-.85-1c-.61-1-.36-1.3.62-.39a4.61,4.61,0,0,0,5.89.53,3.39,3.39,0,0,0,.45-.4,3.28,3.28,0,0,0,.44-.56l0-.06c.5-.82.92-.54.71.33a1.83,1.83,0,0,1-.08.25,3.52,3.52,0,0,1-.62,1.16l-.26.31A4.55,4.55,0,0,1,5.52,68.48Zm4.61,2a5.21,5.21,0,0,0,4.21-2.2,5.93,5.93,0,0,0,1-4.4c-.24-1.24.32-1.36.84-.33a5.47,5.47,0,0,1,.56,2.5,5.73,5.73,0,0,1-1.88,4.27,5.16,5.16,0,0,1-3.42,1.32,4.77,4.77,0,0,1-1.51-.24C8.61,71,8.62,70.49,10.13,70.49Z"/><polygon class="cls-11" points="48.67 65.45 58.62 65.45 58.62 42.45 44.41 42.45 44.41 65.45 48.67 65.45"/><polygon class="cls-12" points="48 39.58 48 34.55 34.34 42.76 34.34 65.45 44.41 65.45 44.41 42.45 46.56 42.45 46.56 39.58 48 39.58"/><line class="cls-12" x1="38.66" y1="56.11" x2="41.53" y2="56.11"/><rect class="cls-11" x="46.56" y="39.58" width="10.06" height="2.88"/><polyline class="cls-12" points="49.44 47.48 49.44 45.33 53.75 45.33 53.75 47.48"/><polyline class="cls-12" points="49.44 51.8 49.44 49.64 53.75 49.64 53.75 51.8"/><polyline class="cls-12" points="49.44 56.11 49.44 53.95 53.75 53.95 53.75 56.11"/><line class="cls-12" x1="38.66" y1="47.48" x2="41.53" y2="47.48"/><line class="cls-12" x1="38.66" y1="44.61" x2="41.53" y2="44.61"/><line class="cls-12" x1="38.66" y1="50.36" x2="41.53" y2="50.36"/><line class="cls-12" x1="38.66" y1="53.23" x2="41.53" y2="53.23"/><polygon class="cls-13" points="65.2 65.45 65.2 35.98 53.75 35.98 53.75 39.58 56.63 39.58 56.63 42.45 58.62 42.45 58.62 65.45 65.2 65.45"/><line class="cls-12" x1="61.66" y1="41.02" x2="61.66" y2="43.17"/><line class="cls-12" x1="61.66" y1="44.61" x2="61.66" y2="46.77"/><line class="cls-12" x1="61.66" y1="48.2" x2="61.66" y2="50.36"/><line class="cls-12" x1="61.66" y1="51.8" x2="61.66" y2="53.95"/><line class="cls-12" x1="33.19" y1="65.45" x2="69.84" y2="65.45"/><line class="cls-12" x1="31.75" y1="65.45" x2="28.88" y2="65.45"/><line class="cls-12" x1="27.44" y1="65.45" x2="26" y2="65.45"/><line class="cls-12" x1="70.56" y1="65.45" x2="72" y2="65.45"/></g></svg>