<svg xmlns="http://www.w3.org/2000/svg" xmlns:xlink="http://www.w3.org/1999/xlink" width="22" height="22" viewBox="0 0 22 22">
    <defs>
        <path id="a" d="M21.991 0v21.991H0V0h21.991z"/>
    </defs>
    <g fill="none" fill-rule="evenodd">
        <mask id="b" fill="#fff">
            <use xlink:href="#a"/>
        </mask>
        <path fill="#D5CBA4" d="M20.778 0H1.214C.544 0 0 .543 0 1.214v19.564c0 .67.543 1.213 1.214 1.213h10.532v-8.516H8.88v-3.319h2.866V7.71c0-2.84 1.735-4.387 4.269-4.387 1.214 0 2.257.09 2.56.13v2.969h-1.757c-1.378 0-1.644.655-1.644 1.616v2.12h3.286l-.428 3.318h-2.858v8.516h5.604c.67 0 1.213-.543 1.213-1.213V1.214c0-.67-.543-1.214-1.213-1.214" mask="url(#b)"/>
    </g>
</svg>
