<svg xmlns="http://www.w3.org/2000/svg" xmlns:xlink="http://www.w3.org/1999/xlink" width="53" height="30" viewBox="0 0 53 30">
    <defs>
        <path id="a" d="M0 15v15h52.5V0H0v15z"/>
    </defs>
    <g fill="none" fill-rule="evenodd">
        <mask id="b" fill="#fff">
            <use xlink:href="#a"/>
        </mask>
        <path fill="#D5CBA4" d="M49.955 14.352c-1.575-1.686-3.748-2.73-6.125-2.73h-.003l-5.583.004-5.277-.005V6.762l5.68.01c1.792-.004 3.253-1.561 3.25-3.481C41.9 1.379 40.447-.008 38.644 0h-8.8c-1.626 0-3.252 1.736-3.248 3.472l.003 10.842c.005 1.739 1.634 3.474 3.254 3.463l8.391.005h5.586c.603 0 1.146.252 1.523.663.4.428.674 1.484.677 2.134h-.003c0 .64-.27 1.466-.657 1.877-.397.42-.937.75-1.538.75h-.002l-20.97.005-1.881-.005-6.879.005c-2.089 0-3.987-.971-5.36-2.44l.006-.01a8.384 8.384 0 0 1-2.245-5.715h.006c-.006-2.236.851-4.263 2.217-5.719l.016-.005c1.373-1.463 3.273-2.563 5.355-2.57l.003.007 5.417-.004c1.798 0 3.255-1.372 3.255-3.295 0-1.91-1.457-3.46-3.255-3.46H14.09c-3.87.002-7.397 1.692-9.948 4.42v.007C1.584 7.155.005 10.919 0 15.046h.005L0 15.05c.005 4.137 1.584 7.898 4.142 10.621l.01-.008c2.555 2.733 6.08 4.338 9.948 4.336h6.885l1.869-.002H43.83l.009.002c2.37-.01 4.539-.961 6.113-2.632a9.546 9.546 0 0 0 2.548-6.547 9.401 9.401 0 0 0-2.545-6.469" mask="url(#b)"/>
    </g>
</svg>
