<svg xmlns="http://www.w3.org/2000/svg" width="22" height="22" viewBox="0 0 22 22">
    <g fill="#D5CBA4" fill-rule="evenodd">
        <path d="M10.997.044C8.01.044 7.636.056 6.463.11c-1.17.053-1.97.24-2.67.511a5.39 5.39 0 0 0-1.947 1.268A5.39 5.39 0 0 0 .577 3.837c-.272.7-.457 1.499-.51 2.67C.012 7.678 0 8.053 0 11.04c0 2.987.013 3.361.066 4.534.054 1.17.24 1.97.511 2.67a5.39 5.39 0 0 0 1.269 1.947 5.39 5.39 0 0 0 1.947 1.268c.7.272 1.5.458 2.67.512 1.173.053 1.547.066 4.534.066 2.986 0 3.36-.013 4.533-.066 1.17-.054 1.97-.24 2.67-.512a5.39 5.39 0 0 0 1.947-1.268 5.39 5.39 0 0 0 1.269-1.948c.272-.7.458-1.499.51-2.669.054-1.173.067-1.547.067-4.534 0-2.986-.013-3.36-.066-4.534-.053-1.17-.24-1.97-.511-2.669a5.39 5.39 0 0 0-1.269-1.948A5.39 5.39 0 0 0 18.2.621C17.5.349 16.7.163 15.53.11 14.357.056 13.983.044 10.997.044m0 1.981c2.936 0 3.284.011 4.443.064 1.072.049 1.654.228 2.042.379.513.2.88.438 1.264.822.385.385.623.751.823 1.265.15.387.33.97.379 2.042.052 1.16.064 1.507.064 4.443s-.012 3.284-.064 4.444c-.05 1.072-.228 1.654-.379 2.042-.2.513-.438.88-.823 1.264a3.407 3.407 0 0 1-1.264.823c-.388.15-.97.33-2.042.378-1.16.053-1.507.064-4.443.064-2.937 0-3.285-.01-4.444-.064-1.072-.049-1.654-.228-2.042-.378-.513-.2-.88-.438-1.264-.823a3.407 3.407 0 0 1-.823-1.264c-.15-.388-.33-.97-.379-2.042-.052-1.16-.064-1.508-.064-4.444s.012-3.284.064-4.443c.05-1.073.229-1.655.38-2.042.199-.514.437-.88.822-1.265a3.407 3.407 0 0 1 1.264-.822c.388-.15.97-.33 2.042-.379 1.16-.053 1.507-.064 4.444-.064"/>
        <path d="M10.997 14.706a3.666 3.666 0 1 1 0-7.331 3.666 3.666 0 0 1 0 7.33m0-9.312a5.647 5.647 0 1 0 0 11.294 5.647 5.647 0 0 0 0-11.294M18.186 5.17a1.32 1.32 0 1 1-2.639 0 1.32 1.32 0 0 1 2.64 0"/>
    </g>
</svg>
