<svg xmlns="http://www.w3.org/2000/svg" xmlns:xlink="http://www.w3.org/1999/xlink" width="22" height="22" viewBox="0 0 22 22">
    <defs>
        <path id="a" d="M0 0h21.93v12.84H0V0z"/>
    </defs>
    <g fill="none" fill-rule="evenodd" transform="translate(0 5)">
        <mask id="b" fill="#fff">
            <use xlink:href="#a"/>
        </mask>
        <path fill="#D5CBA4" d="M18.217 6.296S21.107 2.22 21.394.88c.095-.478-.115-.746-.613-.746h-2.506c-.574 0-.785.249-.957.612 0 0-1.356 2.888-3.004 4.708-.53.588-.8.765-1.091.765-.236 0-.345-.196-.345-.727V.842c0-.65-.076-.842-.612-.842H8.248C7.94 0 7.75.178 7.75.42c0 .614.938.752.938 2.412v3.425c0 .69-.039.957-.364.957-.861 0-2.909-2.966-4.057-6.334C4.037.191 3.79 0 3.138 0H.631C.268 0 0 .249 0 .612c0 .67.785 3.77 3.865 7.922C5.932 11.328 8.65 12.84 11.1 12.84c1.492 0 1.856-.249 1.856-.88V9.817c0-.536.21-.766.517-.766.344 0 .952.11 2.372 1.512 1.684 1.607 1.8 2.277 2.718 2.277h2.813c.287 0 .555-.134.555-.612 0-.632-.823-1.76-2.086-3.1-.517-.69-1.359-1.435-1.627-1.78-.382-.402-.268-.631 0-1.052" mask="url(#b)"/>
    </g>
</svg>
