<svg xmlns="http://www.w3.org/2000/svg" width="24" height="30" viewBox="0 0 24 30">
    <g fill="none" fill-rule="evenodd">
        <path stroke="#4C4C4C" stroke-width="2" d="M.306 27.91V1.98c0-.924.75-1.674 1.673-1.674h20.075c.924 0 1.674.75 1.674 1.673V27.91c0 .924-.75 1.673-1.674 1.673H1.98A1.673 1.673 0 0 1 .306 27.91z"/>
        <path fill="#DBD273" d="M5.325 12.017H18.71V6.998H5.325z"/>
        <path stroke="#4C4C4C" d="M5.325 12.017H18.71V6.998H5.325z"/>
        <path stroke="#4C4C4C" stroke-width="2" d="M4.489 17.363h3.346M10.344 17.363h3.346M16.2 17.363h3.345M4.489 20.709h3.346M10.344 20.709h3.346M16.2 20.709h3.345M16.2 24.055h3.345M13.69 24.055h-3.346M7.834 24.055H4.488"/>
    </g>
</svg>
