<svg id="Layer_2" data-name="Layer 2" xmlns="http://www.w3.org/2000/svg" viewBox="0 0 26 30"><defs><style>.cls-1{fill:none;stroke-width:2px;}.cls-1,.cls-2{stroke:#4c4c4c;stroke-miterlimit:10;}.cls-2{fill:#dbd273;}</style></defs><title>calc_up</title><path class="cls-1" d="M3,27.4V2.6A1.66,1.66,0,0,1,4.71,1H25.29A1.66,1.66,0,0,1,27,2.6V27.4A1.66,1.66,0,0,1,25.29,29H4.71A1.66,1.66,0,0,1,3,27.4Z" transform="translate(-2)"/><rect class="cls-2" x="6.14" y="7.4" width="13.71" height="4.8"/><line class="cls-1" x1="5.29" y1="15.4" x2="8.71" y2="15.4"/><line class="cls-1" x1="11.29" y1="15.4" x2="14.71" y2="15.4"/><line class="cls-1" x1="17.29" y1="15.4" x2="20.71" y2="15.4"/><line class="cls-1" x1="5.29" y1="18.6" x2="8.71" y2="18.6"/><line class="cls-1" x1="11.29" y1="18.6" x2="14.71" y2="18.6"/><line class="cls-1" x1="17.29" y1="18.6" x2="20.71" y2="18.6"/><line class="cls-1" x1="17.29" y1="21.8" x2="20.71" y2="21.8"/><line class="cls-1" x1="14.71" y1="21.8" x2="11.29" y2="21.8"/><line class="cls-1" x1="8.71" y1="21.8" x2="5.29" y2="21.8"/></svg>