<svg id="Layer_1" data-name="Layer 1" xmlns="http://www.w3.org/2000/svg" viewBox="0 0 30 30"><defs><style>.cls-1{fill:#9e9159;}.cls-1,.cls-2,.cls-3{stroke:#4c4c4c;stroke-miterlimit:10;}.cls-1,.cls-3{stroke-width:2px;}.cls-2,.cls-3{fill:none;}</style></defs><title>phone_up</title><path class="cls-1" d="M19,23.68a9.52,9.52,0,0,0-5.79-2.21,13.45,13.45,0,0,0-2.09,2.24,8.86,8.86,0,0,1-3.28-2.84,9,9,0,0,1-2.12-3.8A13.55,13.55,0,0,0,8.3,15.42a9.73,9.73,0,0,0-1-6.17A11.79,11.79,0,0,0,1.47,10C.66,12.44.4,17.91,4.89,23.65c4.7,5.57,10.12,5.56,12.63,5.23A9.83,9.83,0,0,0,19,23.68Z" transform="translate(0)"/><path class="cls-2" d="M16.94,16.1h-4v-.55l1.76-1.74a9.55,9.55,0,0,0,1.06-1.11,3.07,3.07,0,0,0,.44-.73,1.87,1.87,0,0,0,.14-.74,1.48,1.48,0,0,0-1.25-1.36,2.52,2.52,0,0,0-2.63,1.23m.91,4.4" transform="translate(0)"/><path class="cls-2" d="M22.68,14.36H18.09v-.85l2.3-3.8h1.15v7" transform="translate(0)"/><path class="cls-3" d="M3.6,6.81A14,14,0,0,1,14.93,1a14.26,14.26,0,0,1,4.88,27.58" transform="translate(0)"/><line class="cls-2" x1="16.94" y1="19.01" x2="18.09" y2="19.01"/><line class="cls-2" x1="19.24" y1="19.01" x2="20.39" y2="19.01"/><line class="cls-2" x1="21.54" y1="19.01" x2="22.68" y2="19.01"/></svg>