<svg id="Layer_2" data-name="Layer 2" xmlns="http://www.w3.org/2000/svg" viewBox="0 0 26 30">
    <defs>
        <style>
            .cls-1,.cls-2{stroke:#4c4c4c;stroke-miterlimit:10}.cls-1{stroke-width:2px;fill:none}.cls-2{fill:#dbd273}
        </style>
    </defs>
    <title>
        calc_up
    </title>
    <path class="cls-1" d="M3 27.4V2.6A1.66 1.66 0 0 1 4.71 1h20.58A1.66 1.66 0 0 1 27 2.6v24.8a1.66 1.66 0 0 1-1.71 1.6H4.71A1.66 1.66 0 0 1 3 27.4z" transform="translate(-2)"/>
    <path class="cls-2" d="M6.14 7.4h13.71v4.8H6.14z"/>
    <path class="cls-1" d="M5.29 15.4h3.42"/>
    <path class="cls-1" d="M11.29 15.4h3.42"/>
    <path class="cls-1" d="M17.29 15.4h3.42"/>
    <path class="cls-1" d="M5.29 18.6h3.42"/>
    <path class="cls-1" d="M11.29 18.6h3.42"/>
    <path class="cls-1" d="M17.29 18.6h3.42"/>
    <path class="cls-1" d="M17.29 21.8h3.42"/>
    <path class="cls-1" d="M14.71 21.8h-3.42"/>
    <path class="cls-1" d="M8.71 21.8H5.29"/>
</svg>
