<svg xmlns="http://www.w3.org/2000/svg" width="30" height="30" viewBox="0 0 30 30">
    <g fill="none" fill-rule="evenodd">
        <path fill="#DBD273" d="M19.12 23.73c-1.496-1.33-4.06-2.303-6.045-2.282-.594.444-1.77 1.7-2.191 2.306-1.123-.385-2.345-1.61-3.428-2.926-1.083-1.317-2.049-2.754-2.209-3.93.676-.296 2.135-1.206 2.685-1.704.406-1.943-.054-4.646-1.07-6.37-1.178-.197-4.017-.14-6.07.793C-.05 12.121-.332 17.764 4.363 23.7c4.918 5.753 10.582 5.743 13.2 5.4 1.312-1.833 1.522-4.177 1.557-5.37"/>
        <path stroke="#4C4C4C" stroke-width="2" d="M19.12 23.73c-1.496-1.33-4.06-2.303-6.045-2.282-.594.444-1.77 1.7-2.191 2.306-1.123-.385-2.345-1.61-3.428-2.926-1.083-1.317-2.049-2.754-2.209-3.93.676-.296 2.135-1.206 2.685-1.704.406-1.943-.054-4.646-1.07-6.37-1.178-.197-4.017-.14-6.07.793C-.05 12.121-.332 17.764 4.363 23.7c4.918 5.753 10.582 5.743 13.2 5.4 1.312-1.833 1.522-4.177 1.557-5.37z"/>
        <path stroke="#4C4C4C" d="M16.963 15.9h-4.2v-.568l1.85-1.795c.55-.501.882-.885 1.103-1.15a2.98 2.98 0 0 0 .461-.76c.104-.243.143-.496.143-.762 0-.385-.26-1.137-1.31-1.402-1.048-.265-2.127.337-2.743 1.271M22.963 14.1h-4.8v-.875l2.4-3.925h1.2v7.2"/>
        <path stroke="#4C4C4C" stroke-width="2" d="M3.013 6.3a14.68 14.68 0 0 1 11.85-6c8.118 0 14.7 6.581 14.7 14.7 0 6.325-3.995 11.717-9.6 13.791"/>
        <path stroke="#4C4C4C" d="M16.963 18.9h1.2m1.2 0h1.2m1.2 0h1.2"/>
    </g>
</svg>
