<?xml version="1.0" encoding="UTF-8"?><!DOCTYPE svg PUBLIC "-//W3C//DTD SVG 1.1//EN" "http://www.w3.org/Graphics/SVG/1.1/DTD/svg11.dtd"><svg xmlns="http://www.w3.org/2000/svg" xmlns:xlink="http://www.w3.org/1999/xlink"><defs>
        <path id="a" d="M21.991 0v21.991H0V0h21.991z"/>
    
        <path id="a" d="M0 15v15h52.5V0H0v15z"/>
    
        <path id="a" d="M0 0h21.93v12.84H0V0z"/>
    </defs><symbol id="icon-fb-copy" viewBox="0 0 22 22">
    
    <g fill-rule="evenodd">
        <mask id="b">
            <use xlink:href="#a"/>
        </mask>
        <path d="M20.778 0H1.214C.544 0 0 .543 0 1.214v19.564c0 .67.543 1.213 1.214 1.213h10.532v-8.516H8.88v-3.319h2.866V7.71c0-2.84 1.735-4.387 4.269-4.387 1.214 0 2.257.09 2.56.13v2.969h-1.757c-1.378 0-1.644.655-1.644 1.616v2.12h3.286l-.428 3.318h-2.858v8.516h5.604c.67 0 1.213-.543 1.213-1.213V1.214c0-.67-.543-1.214-1.213-1.214" mask="url(#b)"/>
    </g>
</symbol><symbol id="icon-group-9" viewBox="0 0 53 30">
    
    <g fill-rule="evenodd">
        <mask id="b">
            <use xlink:href="#a"/>
        </mask>
        <path d="M49.955 14.352c-1.575-1.686-3.748-2.73-6.125-2.73h-.003l-5.583.004-5.277-.005V6.762l5.68.01c1.792-.004 3.253-1.561 3.25-3.481C41.9 1.379 40.447-.008 38.644 0h-8.8c-1.626 0-3.252 1.736-3.248 3.472l.003 10.842c.005 1.739 1.634 3.474 3.254 3.463l8.391.005h5.586c.603 0 1.146.252 1.523.663.4.428.674 1.484.677 2.134h-.003c0 .64-.27 1.466-.657 1.877-.397.42-.937.75-1.538.75h-.002l-20.97.005-1.881-.005-6.879.005c-2.089 0-3.987-.971-5.36-2.44l.006-.01a8.384 8.384 0 0 1-2.245-5.715h.006c-.006-2.236.851-4.263 2.217-5.719l.016-.005c1.373-1.463 3.273-2.563 5.355-2.57l.003.007 5.417-.004c1.798 0 3.255-1.372 3.255-3.295 0-1.91-1.457-3.46-3.255-3.46H14.09c-3.87.002-7.397 1.692-9.948 4.42v.007C1.584 7.155.005 10.919 0 15.046h.005L0 15.05c.005 4.137 1.584 7.898 4.142 10.621l.01-.008c2.555 2.733 6.08 4.338 9.948 4.336h6.885l1.869-.002H43.83l.009.002c2.37-.01 4.539-.961 6.113-2.632A9.546 9.546 0 0 0 52.5 20.82a9.401 9.401 0 0 0-2.545-6.469" mask="url(#b)"/>
    </g>
</symbol><symbol id="icon-instagram-copy-2" viewBox="0 0 22 22">
    <g fill-rule="evenodd">
        <path d="M10.997.044C8.01.044 7.636.056 6.463.11c-1.17.053-1.97.24-2.67.511a5.39 5.39 0 0 0-1.947 1.268A5.39 5.39 0 0 0 .577 3.837c-.272.7-.457 1.499-.51 2.67C.012 7.678 0 8.053 0 11.04s.013 3.361.066 4.534c.054 1.17.24 1.97.511 2.67a5.39 5.39 0 0 0 1.269 1.947 5.39 5.39 0 0 0 1.947 1.268c.7.272 1.5.458 2.67.512 1.173.053 1.547.066 4.534.066 2.986 0 3.36-.013 4.533-.066 1.17-.054 1.97-.24 2.67-.512a5.39 5.39 0 0 0 1.947-1.268 5.39 5.39 0 0 0 1.269-1.948c.272-.7.458-1.499.51-2.669.054-1.173.067-1.547.067-4.534 0-2.986-.013-3.36-.066-4.534-.053-1.17-.24-1.97-.511-2.669a5.39 5.39 0 0 0-1.269-1.948A5.39 5.39 0 0 0 18.2.621C17.5.349 16.7.163 15.53.11 14.357.056 13.983.044 10.997.044m0 1.981c2.936 0 3.284.011 4.443.064 1.072.049 1.654.228 2.042.379.513.2.88.438 1.264.822.385.385.623.751.823 1.265.15.387.33.97.379 2.042.052 1.16.064 1.507.064 4.443s-.012 3.284-.064 4.444c-.05 1.072-.228 1.654-.379 2.042-.2.513-.438.88-.823 1.264a3.407 3.407 0 0 1-1.264.823c-.388.15-.97.33-2.042.378-1.16.053-1.507.064-4.443.064-2.937 0-3.285-.01-4.444-.064-1.072-.049-1.654-.228-2.042-.378-.513-.2-.88-.438-1.264-.823a3.407 3.407 0 0 1-.823-1.264c-.15-.388-.33-.97-.379-2.042-.052-1.16-.064-1.508-.064-4.444s.012-3.284.064-4.443c.05-1.073.229-1.655.38-2.042.199-.514.437-.88.822-1.265a3.407 3.407 0 0 1 1.264-.822c.388-.15.97-.33 2.042-.379 1.16-.053 1.507-.064 4.444-.064"/>
        <path d="M10.997 14.706a3.666 3.666 0 1 1 0-7.331 3.666 3.666 0 0 1 0 7.33m0-9.312a5.647 5.647 0 1 0 0 11.294 5.647 5.647 0 0 0 0-11.294m7.189-.223a1.32 1.32 0 1 1-2.639 0 1.32 1.32 0 0 1 2.64 0"/>
    </g>
</symbol><symbol id="icon-logo-small" viewBox="0 0 39 40">
    <g fill-rule="evenodd">
        <path d="M27.13 30.045l-.136-.078c-1.433-.82-2.795-1.776-4.001-2.907-1.124-1.053-2.098-2.25-2.836-3.605l-1.686-3.09-1.183 1.3v4.004c0 .775.194 1.531.85 2.007l.064.046v.313h-5.566v-.295l.098-.067c.676-.462.87-1.227.87-2.004V13.544c0-.826-.272-1.533-.891-2.091l-.077-.07v-.276h5.542v.325l-.025.023c-.27.237-.557.542-.693.88-.144.361-.172.823-.172 1.21v5.702l4.946-5.578c.24-.271.746-1.134.677-1.46-.07-.327-.332-.536-.617-.679l-.103-.051v-.325h4.73v.369c-.356.148-.51.286-1.188.74-.455.305-.861.743-1.22 1.154l-3.375 3.878.755 2.177c.052.148.118.29.173.437.06.16.107.326.173.484.098.237.208.47.312.703.232.518.462 1.036.689 1.555.556 1.273 1.253 2.488 2.002 3.657.667 1.04 1.431 2.122 2.335 2.97l.145.135-.592.632zm6.846-12.728a4.41 4.41 0 0 1-.613.044 2.82 2.82 0 0 1-1.67-.545 3.31 3.31 0 0 1-.733-4.92 4.248 4.248 0 0 1-.303-.367c-.433-.595-.682-1.297-.912-1.99-.278-.834-.578-1.914-1.325-2.456a2.083 2.083 0 0 0-.46-.25c-.682-.271-1.559-.246-2.285-.25-.73-.006-1.474-.026-2.175-.253-.7-.228-1.314-.65-1.908-1.074-.714-.512-1.592-1.209-2.515-1.209-.176 0-.349.024-.52.068-.71.182-1.405.718-1.995 1.14-.593.426-1.208.847-1.908 1.075-.7.227-1.445.247-2.174.252-.88.007-1.999-.042-2.746.5a2.086 2.086 0 0 0-.38.36c-.469.566-.715 1.409-.944 2.097-.23.693-.48 1.395-.913 1.99-.433.596-1.023 1.05-1.61 1.483-.708.522-1.642 1.14-1.927 2.019-.055.167-.085.34-.096.515-.047.732.249 1.559.468 2.25.22.696.432 1.41.432 2.147 0 .736-.211 1.45-.432 2.146-.048.153-.102.314-.153.48.208-.031.423-.045.612-.045a2.82 2.82 0 0 1 1.671.545 3.31 3.31 0 0 1 .732 4.92c.107.117.21.238.303.367.433.596.682 1.297.913 1.99.277.834.577 1.914 1.324 2.456.142.104.297.186.46.251.682.27 1.56.245 2.285.25.73.005 1.475.025 2.175.253.7.227 1.315.648 1.908 1.073.715.512 1.592 1.21 2.515 1.21.176 0 .35-.025.52-.068.71-.183 1.405-.72 1.995-1.142.594-.425 1.208-.846 1.909-1.073.7-.228 1.444-.248 2.174-.253.879-.006 1.999.042 2.745-.5a2.06 2.06 0 0 0 .38-.36c.469-.566.716-1.408.945-2.097.23-.693.48-1.394.912-1.99.433-.596 1.024-1.05 1.61-1.483.709-.522 1.643-1.14 1.928-2.018.054-.168.085-.34.096-.515.047-.733-.25-1.56-.469-2.251-.22-.696-.431-1.41-.431-2.146 0-.737.21-1.451.431-2.147.05-.153.102-.314.154-.48z"/>
        <path d="M36.342 23.498c-.104.01-.18-.125-.215-.297-.12-.614-.318-1.226-.53-1.863-.124-.369-.316-.912-.321-1.303-.006-.39.17-.94.282-1.312.121-.403.237-.796.334-1.189.03-.116.227-.812.226-1.236-.001-.27.28-.248.307-.066.035.238-.184 1.22-.216 1.344-.092.356-.2.712-.309 1.077-.116.386-.299.956-.293 1.362.006.405.205.969.333 1.352.208.624.403 1.224.529 1.824.047.226-.039.297-.127.307m-.81.117c-.14.036-.224-.214-.24-.298-.116-.658-.327-1.311-.555-1.994-.123-.37-.315-.913-.32-1.303-.006-.39.17-.94.281-1.312.128-.423.25-.867.355-1.29.032-.128.04-.205.057-.333.023-.165.308-.168.317.03.006.133-.034.262-.067.388a28.5 28.5 0 0 1-.32 1.135c-.116.386-.298.956-.292 1.361.006.405.205.97.333 1.352.223.67.43 1.311.555 1.955.023.12.032.275-.103.309m-.815 4.131c-.374.32-.774.614-1.187.919-.325.24-.813.586-1.05.914-.24.328-.418.899-.545 1.281-.208.625-.412 1.221-.671 1.777-.098.21-.21.215-.286.17-.09-.054-.07-.208.007-.367.271-.563.48-1.171.692-1.809.123-.368.295-.919.525-1.235.23-.316.7-.65 1.012-.88.44-.324.861-.64 1.255-.982.305-.265.55-.045.248.212M30.53 32.23c-.053.11-.139.238-.268.185-.134-.055-.051-.306-.013-.382.301-.597.524-1.246.752-1.93.122-.368.295-.918.524-1.234.23-.316.7-.65 1.013-.88a22.07 22.07 0 0 0 1.264-.99c.32-.275.521-.023.268.195-.382.329-.792.63-1.216.943-.325.24-.813.586-1.051.914-.238.328-.417.899-.545 1.282-.222.67-.441 1.307-.728 1.897m-3.424 3.273c-.49.04-.987.044-1.5.048-.404.003-1.002-.002-1.388.123-.385.126-.865.483-1.193.719-.534.383-1.05.747-1.585 1.045-.202.112-.296.051-.331-.03-.042-.097.065-.21.22-.293.55-.297 1.076-.667 1.622-1.059.316-.226.778-.571 1.15-.692.37-.121.948-.116 1.336-.12a19.674 19.674 0 0 0 1.592-.058c.402-.036.471.286.077.317m-6.349 1.167c-.076-.124.138-.279.214-.318.594-.306 1.155-.7 1.74-1.12.316-.228.779-.572 1.15-.693.371-.121.948-.116 1.337-.12.55-.004 1.08-.016 1.604-.059.42-.034.436.287.102.315-.502.042-1.011.047-1.538.05-.404.004-1.002-.002-1.387.124-.386.126-.866.483-1.193.719-.573.411-1.125.799-1.703 1.109-.108.057-.253.111-.326-.007m-3.358 0c-.073.118-.218.064-.325.007-.579-.31-1.13-.698-1.703-1.11-.328-.235-.808-.592-1.193-.718s-.984-.12-1.387-.123a20.935 20.935 0 0 1-1.539-.05c-.333-.029-.318-.35.103-.316.524.043 1.054.055 1.604.06.389.003.966-.002 1.337.119.371.12.833.465 1.15.692.584.42 1.146.815 1.74 1.121.076.04.29.194.213.318m-.351.737c-.036.082-.129.143-.331.03-.536-.297-1.052-.66-1.586-1.044-.327-.236-.807-.593-1.193-.719-.385-.125-.983-.12-1.387-.123a20.452 20.452 0 0 1-1.5-.048c-.395-.031-.326-.353.076-.317.52.047 1.046.054 1.592.059.39.003.966-.002 1.337.119s.834.466 1.15.692c.545.392 1.07.762 1.621 1.059.155.083.262.196.22.292m18.53-24c-.647-.618-1.596-.688-2.225-.202a1.445 1.445 0 0 0-.338.365l-.016.023c-.19.315-.348.21-.27-.126.007-.032.02-.063.03-.095.05-.16.13-.309.235-.444.031-.04.063-.08.099-.118.615-.65 1.688-.627 2.396.05a1.8 1.8 0 0 1 .32.398c.233.4.135.5-.232.149m-.02 1.455a1.24 1.24 0 0 1-.188.315c-.217.26-.32.227-.181-.103.267-.638-.056-1.321-.721-1.525a1.254 1.254 0 0 0-.229-.049c-.289-.03-.262-.16.006-.206.195-.033.398-.016.592.044.665.204.988.887.72 1.524m-3.775-.242c.087.475-.123.519-.32.126a2.144 2.144 0 0 1-.212-.96 2.228 2.228 0 0 1 .713-1.637 1.916 1.916 0 0 1 1.288-.504c.198 0 .39.028.57.088.503.17.5.354-.073.354-.474 0-.909.177-1.252.473a2.094 2.094 0 0 0-.336.37 2.226 2.226 0 0 0-.378 1.69m4.386 5.322c0-.39.184-.937.301-1.307.346-1.09.667-2.098.593-3.265a4.852 4.852 0 0 0-.257-1.288l-.007-.02-.005-.015a5.023 5.023 0 0 0-1.147-1.828 2.834 2.834 0 0 0-.295-.301l-.005-.004a2.803 2.803 0 0 0-2.355-.652 2.802 2.802 0 0 0-1.673.987 2.8 2.8 0 0 0-.59 1.25v.008l-.002.008-.006.032-.001.008-.002.009-.001.008-.001.008-.002.008-.005.033-.001.008-.001.008-.001.009-.002.008v.008l-.004.025v.008l-.002.009-.002.016v.011l-.003.023v.008l-.005.042v.008l-.001.008v.009l-.003.042v.009l-.001.002v.012c-.002.02-.002.041-.003.062v.008l-.001.069a2.815 2.815 0 0 0 2.815 2.815h.048l.012-.001h.035l.005-.001h.019l.007-.001h.013l.003-.001h.017l.014-.002h.016l.01-.001h.006l.013-.002h.002l.016-.001h.002l.013-.002h.017l.01-.002h.005l.014-.002h.001l.016-.002h.003l.012-.001.007-.001.009-.001.01-.002h.005l.015-.002.016-.002.004-.001.011-.002h.008l.008-.002.011-.002h.004l.015-.003.015-.002h.005l.01-.003.009-.001.007-.001L34 16.8h.003l.015-.003h.001l.014-.003h.005l.01-.003.01-.002.005-.001.013-.003h.002l.015-.003h.002l.013-.004.006-.001.01-.002.009-.002h.001l.004-.002.014-.003h.001l.015-.004h.002l.013-.004.006-.001.008-.002.01-.003.005-.001h.001l.029-.008.003-.001.011-.003.03-.009.014-.004.015-.004.003-.002.01-.003.008-.002.007-.003.012-.003.003-.001.014-.005.015-.004.004-.002.01-.003.008-.003.006-.002.012-.005h.002l.015-.005h.001l.013-.006c.08-.035.157-.075.235-.12.549-.316 1.024-.873 1.187-1.703.053-.273.334-.192.29.042l.001-.007c-.071.903-.589 1.86-1.635 2.288l-.03.097a16.773 16.773 0 0 1-.109.354l-.088.277-.06.191-.05.165c-.02.062-.037.124-.055.186-.015.051-.03.102-.043.153a8.364 8.364 0 0 0-.05.191l-.035.146c-.016.067-.028.133-.041.2-.01.046-.02.091-.027.137-.012.073-.02.146-.03.22l-.014.115c-.01.112-.016.223-.016.334 0 1.71 1.307 3.442.78 5.066-.529 1.625-2.605 2.258-3.609 3.64-1.004 1.383-.965 3.553-2.347 4.557-1.382 1.004-3.434.296-5.059.824s-2.868 2.307-4.577 2.307c-1.708 0-2.952-1.78-4.577-2.307-1.624-.528-3.676.18-5.059-.824a2.875 2.875 0 0 1-.808-.941 4.695 4.695 0 0 1-.111-.21c-.496-1-.695-2.253-1.293-3.206a3.52 3.52 0 0 0-.333-.448c-.017-.02-.035-.037-.052-.056a3.308 3.308 0 0 1-.409.305c.074.073.142.147.195.22.23.316.402.866.525 1.235.227.683.45 1.332.751 1.929.039.076.122.327-.013.382-.128.053-.214-.075-.268-.185-.286-.59-.505-1.228-.728-1.897-.127-.383-.306-.954-.544-1.282a1.978 1.978 0 0 0-.211-.237 3.303 3.303 0 0 1-.542.215c.138.12.263.245.352.367.23.316.402.867.525 1.235.212.638.42 1.246.692 1.81.076.158.097.312.007.365-.077.046-.189.04-.286-.169-.26-.556-.464-1.152-.671-1.777-.127-.382-.306-.953-.545-1.281a2.767 2.767 0 0 0-.46-.463 3.328 3.328 0 0 1-.92.028l.092.069.057.042a39.497 39.497 0 0 1 .213.162l.068.054.069.055.069.059.063.054.068.063.055.052c.025.024.047.048.07.072l.041.044c.035.04.066.078.095.116.229.316.401.866.524 1.235.361 1.086.693 2.09 1.44 2.99.26.314.556.595.886.835 1.343.976 2.768 1.02 4.356 1.03.389.003.966-.003 1.337.118.371.12.834.464 1.15.69.93.666 1.79 1.283 2.922 1.574.395.1.8.154 1.208.154 1.66 0 2.838-.803 4.13-1.728.316-.226.78-.57 1.15-.69.372-.121.948-.115 1.337-.118 1.144-.008 2.201-.014 3.29-.445.378-.15.737-.345 1.067-.585 1.343-.976 1.824-2.317 2.326-3.825.122-.369.295-.919.524-1.235.23-.316.7-.65 1.013-.88.92-.679 1.773-1.305 2.399-2.293.218-.345.394-.713.52-1.101.513-1.58.114-2.948-.367-4.462-.117-.37-.301-.917-.301-1.308"/>
        <path d="M4.41 27.798c.473 0 .908-.177 1.251-.473a2.08 2.08 0 0 0 .336-.37 2.222 2.222 0 0 0 .379-1.69c-.088-.475.123-.518.319-.126.143.285.213.615.213.96 0 .473-.145.907-.387 1.261a2.115 2.115 0 0 1-.326.377 1.915 1.915 0 0 1-1.288.503c-.199 0-.391-.027-.571-.088-.503-.17-.499-.354.073-.354m-1.741-.772a1.832 1.832 0 0 1-.32-.398c-.233-.401-.135-.5.231-.15.646.618 1.596.688 2.224.202a1.43 1.43 0 0 0 .338-.365c.006-.008.012-.015.016-.023.191-.315.349-.21.27.126-.007.032-.02.063-.029.095a1.576 1.576 0 0 1-.335.562c-.615.65-1.687.627-2.395-.049M2.6 25.023c.048-.115.11-.221.188-.315.217-.26.32-.227.18.104-.266.638.057 1.32.722 1.524.075.024.152.04.229.049.288.031.262.16-.006.206a1.287 1.287 0 0 1-.592-.043c-.666-.205-.988-.887-.721-1.525m-.87-1.37c-.035-.238.184-1.22.215-1.344.092-.355.2-.712.31-1.077.116-.386.299-.956.292-1.361-.005-.406-.205-.97-.332-1.353-.209-.623-.403-1.224-.53-1.824-.047-.226.04-.297.128-.307.104-.01.18.125.214.297.12.614.318 1.226.53 1.863.124.369.316.913.322 1.303.006.39-.17.94-.282 1.312a24.13 24.13 0 0 0-.335 1.189c-.028.116-.226.812-.225 1.236 0 .27-.28.248-.307.066m.892-7.383c.14-.036.225.214.24.298.116.658.327 1.311.555 1.994.123.37.315.913.321 1.303.006.39-.17.94-.282 1.312a29.28 29.28 0 0 0-.355 1.29c-.032.128-.039.205-.057.333-.023.165-.307.168-.317-.03-.006-.132.035-.262.068-.388.097-.374.203-.75.319-1.135.116-.386.299-.956.293-1.361-.006-.405-.206-.97-.333-1.352-.224-.67-.43-1.311-.555-1.955-.024-.12-.032-.274.103-.309m.815-4.172c.373-.319.773-.614 1.187-.918.324-.24.812-.586 1.05-.914.239-.328.418-.9.545-1.282.207-.624.412-1.22.67-1.776.098-.21.21-.215.287-.17.09.054.07.208-.007.366-.272.563-.48 1.172-.692 1.81-.123.368-.295.918-.525 1.234-.23.316-.7.65-1.013.88-.44.325-.86.64-1.254.982-.305.265-.55.046-.248-.212m4.188-4.483c.054-.11.14-.239.268-.186.135.056.052.306.013.383-.3.596-.524 1.245-.751 1.929-.123.369-.295.919-.525 1.235-.23.316-.7.65-1.012.88-.444.327-.865.648-1.264.99-.32.275-.522.023-.268-.195.382-.33.792-.631 1.216-.944.325-.239.813-.586 1.05-.913.239-.328.418-.9.545-1.282.223-.67.442-1.307.728-1.897m3.425-3.233c.49-.04.987-.044 1.5-.048.404-.003 1.002.003 1.387-.123.386-.126.866-.483 1.193-.719.534-.383 1.05-.746 1.586-1.045.202-.112.295-.051.33.03.042.097-.065.21-.22.294-.55.296-1.076.666-1.621 1.058-.316.227-.779.571-1.15.692-.371.121-.948.116-1.337.12-.546.004-1.072.012-1.592.058-.402.036-.47-.286-.076-.317m6.348-1.166c.077.124-.137.278-.213.317-.594.306-1.156.701-1.74 1.121-.317.227-.779.571-1.15.693-.372.12-.948.115-1.337.118-.55.005-1.08.017-1.604.06-.42.035-.436-.287-.103-.315a20.396 20.396 0 0 1 1.539-.05c.403-.004 1.002.002 1.387-.124s.865-.483 1.193-.718c.573-.412 1.124-.8 1.703-1.11.107-.057.252-.11.325.008m3.358 0c.073-.119.218-.065.326-.007.578.31 1.13.697 1.703 1.109.327.235.807.592 1.193.718.385.126.983.12 1.387.123.527.005 1.036.009 1.538.051.334.028.318.35-.102.315a21.716 21.716 0 0 0-1.604-.06c-.39-.003-.966.003-1.337-.118-.371-.122-.834-.466-1.15-.693-.585-.42-1.146-.815-1.74-1.12-.076-.04-.29-.194-.214-.318m.352-.738c.035-.082.129-.143.33-.03.537.298 1.052.66 1.586 1.044.328.236.808.593 1.193.719.386.126.984.12 1.388.123.513.004 1.01.008 1.5.048.394.031.325.353-.077.317a19.763 19.763 0 0 0-1.592-.059c-.388-.003-.965.002-1.336-.119-.372-.12-.834-.465-1.15-.692-.546-.392-1.071-.762-1.622-1.058-.155-.084-.262-.197-.22-.293M4.903 28.657c.026-.002.052-.007.078-.01a2.786 2.786 0 0 0 1.028-.323 2.795 2.795 0 0 0 .83-.688 2.8 2.8 0 0 0 .59-1.25l.001-.007.002-.008.006-.033.001-.008.001-.008.002-.008.001-.009.001-.008.006-.033v-.008l.002-.008v-.009l.002-.008.001-.008.003-.025.001-.008.001-.008.002-.017.001-.009v-.002l.003-.022v-.009l.004-.042v-.008l.002-.008v-.009l.003-.042v-.011l.001-.012.002-.062v-.008l.002-.069a2.815 2.815 0 0 0-2.816-2.814h-.063a2.943 2.943 0 0 0-.11.005h-.006l-.05.004h-.01l-.046.005h-.005l-.008.001h-.001l-.045.005h-.003l-.009.002-.04.005-.008.001h-.002l-.028.005-.019.003-.015.002-.042.008h-.007l-.013.004-.03.005-.02.005-.007.001-.019.004-.018.004-.013.003-.006.002h-.002l-.017.004-.019.005-.017.004h-.001l-.019.005-.035.01H3.91l-.019.005-.004.002-.03.008-.002.001-.019.006-.004.001-.014.004-.018.006-.018.006-.014.005-.004.001-.018.006-.019.007-.03.01a2.5 2.5 0 0 0-.235.12c-.549.317-1.024.874-1.187 1.704-.054.273-.334.192-.29-.042l-.002.007c.072-.903.59-1.86 1.636-2.288l.05-.167.02-.067.083-.263c.066-.21.134-.42.197-.63l.015-.05a12.477 12.477 0 0 0 .094-.333 7.377 7.377 0 0 0 .072-.297c.021-.095.039-.19.055-.284l.009-.053a4.435 4.435 0 0 0 .053-.622c0-1.709-1.308-3.441-.78-5.066s2.604-2.258 3.609-3.64C8.1 9.854 8.06 7.684 9.442 6.68c1.383-1.004 3.434-.296 5.06-.824 1.624-.528 2.868-2.307 4.576-2.307 1.709 0 2.952 1.78 4.577 2.307 1.625.528 3.677-.18 5.059.824 1.382 1.004 1.343 3.174 2.347 4.557.071.097.148.19.229.281l.018.023.002-.001.037-.03a3.345 3.345 0 0 1 .242-.187c.038-.027.077-.052.117-.078l.037-.025a1.943 1.943 0 0 1-.218-.244c-.23-.316-.402-.866-.524-1.235-.228-.684-.45-1.333-.752-1.93-.038-.076-.121-.326.013-.382.129-.053.215.076.268.186.287.59.506 1.227.728 1.897.128.383.307.954.545 1.282.063.086.145.174.235.261.028-.014.058-.024.087-.038l.126-.055a3.31 3.31 0 0 1 .166-.06c.043-.015.085-.03.128-.043l.044-.015a2.45 2.45 0 0 1-.385-.396c-.23-.316-.402-.866-.525-1.235-.212-.637-.42-1.246-.692-1.809-.077-.158-.097-.312-.007-.366.077-.045.188-.04.286.17.259.555.463 1.152.67 1.776.128.383.307.954.545 1.282.12.166.306.337.501.496l.077-.01c.036-.005.071-.012.107-.015a3.333 3.333 0 0 1 .696.004c-.311-.229-.743-.544-.96-.842-.23-.316-.402-.866-.524-1.235-.362-1.086-.694-2.09-1.44-2.99a4.864 4.864 0 0 0-.886-.835c-1.344-.976-2.768-1.019-4.357-1.03-.388-.003-.965.003-1.337-.117-.37-.12-.834-.465-1.15-.691-.93-.666-1.789-1.283-2.922-1.573a4.855 4.855 0 0 0-1.208-.155c-1.66 0-2.838.803-4.13 1.728-.316.226-.779.57-1.15.69-.371.121-.948.115-1.337.118-1.144.008-2.201.014-3.288.445a4.82 4.82 0 0 0-1.068.585c-1.344.976-1.825 2.317-2.326 3.825-.123.369-.295.92-.525 1.235-.229.316-.7.65-1.012.88-.921.68-1.773 1.306-2.399 2.293a4.857 4.857 0 0 0-.52 1.102c-.513 1.579-.114 2.947.367 4.461.117.37.3.917.3 1.308 0 .39-.183.937-.3 1.307-.346 1.09-.668 2.098-.594 3.265a4.874 4.874 0 0 0 .328 1.479l.009.021c.035.09.073.177.113.262v.002c.042.089.086.175.131.259l.001.001v.001a4.931 4.931 0 0 0 .3.48v.002l.002.001c.053.076.109.15.166.222l.001.002c.057.072.117.143.177.212v.001h.001c.061.07.124.139.188.206.058.069.12.135.185.198l.023.023a2.8 2.8 0 0 0 2.183.77"/>
        <path d="M37.306 25.865a5.367 5.367 0 0 1-.573 1.214c-.662 1.044-1.547 1.707-2.524 2.427-.268.198-.71.505-.905.773-.194.267-.35.783-.455 1.1-.54 1.622-1.065 3.023-2.506 4.07-.363.264-.759.48-1.176.645-1.15.456-2.255.472-3.47.48-.333.002-.871-.01-1.186.093-.314.102-.743.428-1.014.622-1.39.996-2.64 1.82-4.42 1.82-.449 0-.896-.058-1.331-.17-1.198-.306-2.101-.943-3.088-1.65-.272-.194-.7-.52-1.015-.622-.314-.102-.852-.09-1.186-.093-1.71-.012-3.205-.079-4.646-1.125a5.358 5.358 0 0 1-.977-.92c-.789-.952-1.145-1.999-1.528-3.15-.106-.317-.261-.833-.455-1.1-.195-.268-.637-.575-.906-.773a18.4 18.4 0 0 1-1.32-1.043 3.336 3.336 0 0 1-.488-.47 5.45 5.45 0 0 1-1.289-2.128 5.367 5.367 0 0 1-.25-1.318c-.078-1.234.249-2.29.616-3.447.1-.319.278-.827.278-1.157 0-.331-.177-.84-.278-1.157C.698 17.158.299 15.71.848 14.02c.14-.428.333-.835.573-1.214.662-1.044 1.547-1.707 2.524-2.427.27-.198.711-.505.906-.773.194-.267.35-.782.455-1.1.54-1.622 1.065-3.023 2.505-4.07a5.37 5.37 0 0 1 1.177-.645c1.15-.456 2.255-.472 3.469-.48.334-.002.872.01 1.186-.093.315-.102.743-.428 1.015-.622 1.39-.996 2.639-1.82 4.42-1.82.449 0 .896.058 1.33.17 1.198.306 2.102.943 3.089 1.65.271.194.7.52 1.014.622.315.102.853.09 1.187.093 1.71.012 3.205.079 4.645 1.125.364.264.691.574.978.92.788.952 1.145 1.999 1.528 3.15.106.318.26.833.455 1.1.194.268.637.575.905.773 1.377 1.015 2.547 1.947 3.097 3.64.14.428.222.871.25 1.32.078 1.233-.248 2.29-.616 3.447-.1.318-.278.826-.278 1.157 0 .33.178.838.278 1.157.517 1.627.915 3.075.366 4.765m.19-4.941l-.038-.115c-.08-.249-.214-.664-.214-.866 0-.203.134-.618.214-.867l.037-.114c.358-1.129.728-2.295.642-3.66a5.949 5.949 0 0 0-.278-1.462c-.59-1.818-1.793-2.815-3.304-3.93l-.1-.072c-.21-.153-.562-.41-.68-.574-.12-.163-.255-.578-.336-.826l-.038-.115c-.374-1.123-.76-2.285-1.632-3.338a5.944 5.944 0 0 0-1.084-1.02C29.14 2.843 27.58 2.743 25.702 2.73h-.123c-.26 0-.696-.002-.888-.064-.192-.063-.545-.318-.757-.47l-.098-.072c-.963-.69-1.958-1.402-3.283-1.741a5.954 5.954 0 0 0-1.476-.188c-1.912 0-3.232.836-4.758 1.929l-.099.07c-.21.154-.564.41-.756.472-.193.062-.63.063-.89.064h-.121c-1.184.008-2.408.017-3.68.521a5.953 5.953 0 0 0-1.304.716C5.923 5.089 5.346 6.542 4.754 8.323l-.039.117c-.08.247-.216.661-.335.825-.119.163-.47.42-.681.574L3.6 9.91c-.953.702-1.937 1.428-2.67 2.584a5.9 5.9 0 0 0-.635 1.345c-.59 1.818-.203 3.332.365 5.121l.036.116c.08.248.214.663.214.866 0 .202-.133.617-.214.865l-.036.116c-.358 1.128-.729 2.294-.642 3.66.032.502.125.993.277 1.461a6.064 6.064 0 0 0 1.409 2.337c.165.193.35.37.548.527.438.39.925.754 1.348 1.065l.1.073c.21.154.561.41.68.574.119.163.255.578.336.826l.038.115c.373 1.123.76 2.285 1.632 3.338.32.387.685.73 1.083 1.02 1.547 1.123 3.106 1.223 4.984 1.236h.122c.26 0 .696.002.889.064.192.063.545.318.756.47l.1.072c.962.69 1.957 1.402 3.281 1.741a5.95 5.95 0 0 0 1.476.188c1.913 0 3.232-.836 4.759-1.929l.099-.072c.211-.152.564-.407.756-.47.192-.062.629-.063.89-.064h.12c1.185-.008 2.409-.017 3.68-.521a5.935 5.935 0 0 0 1.304-.715c1.547-1.124 2.123-2.576 2.716-4.358l.038-.116c.081-.247.217-.662.336-.825.118-.164.471-.421.682-.575l.098-.072c.952-.702 1.937-1.428 2.67-2.583a5.95 5.95 0 0 0 .634-1.346c.591-1.818.204-3.332-.364-5.121"/>
    </g>
</symbol><symbol id="icon-menu-icon" viewBox="0 0 30 22">
    <path d="M23 2H1a1 1 0 0 1 0-2h22a1 1 0 1 1 0 2m6 10H1a1 1 0 0 1 0-2h28a1 1 0 1 1 0 2M14 22H1a1 1 0 0 1 0-2h13a1 1 0 0 1 0 2" fill-rule="evenodd"/>
</symbol><symbol id="icon-rouble" viewBox="0 0 40 71">
    <g fill-rule="evenodd">
        <text font-family="FrizQuadrataC" font-size="60" letter-spacing="3.488">
            <tspan x="2.456" y="55">&#x420;</tspan>
        </text>
        <path d="M23.22 45.06c2.16 0 2.88-.12 4.26-1.98l3-4.08c-3.54 1.5-4.8 1.62-7.44 1.62H7.32c-2.1 0-2.7-.06-4.26 1.98L0 46.68c3.06-1.32 5.34-1.62 7.44-1.62h15.78z"/>
    </g>
</symbol><symbol id="icon-vk-copy" viewBox="0 0 22 22">
    
    <g fill-rule="evenodd" transform="translate(0 5)">
        <mask id="b">
            <use xlink:href="#a"/>
        </mask>
        <path d="M18.217 6.296S21.107 2.22 21.394.88c.095-.478-.115-.746-.613-.746h-2.506c-.574 0-.785.249-.957.612 0 0-1.356 2.888-3.004 4.708-.53.588-.8.765-1.091.765-.236 0-.345-.196-.345-.727V.842c0-.65-.076-.842-.612-.842H8.248C7.94 0 7.75.178 7.75.42c0 .614.938.752.938 2.412v3.425c0 .69-.039.957-.364.957-.861 0-2.909-2.966-4.057-6.334C4.037.191 3.79 0 3.138 0H.631C.268 0 0 .249 0 .612c0 .67.785 3.77 3.865 7.922C5.932 11.328 8.65 12.84 11.1 12.84c1.492 0 1.856-.249 1.856-.88V9.817c0-.536.21-.766.517-.766.344 0 .952.11 2.372 1.512 1.684 1.607 1.8 2.277 2.718 2.277h2.813c.287 0 .555-.134.555-.612 0-.632-.823-1.76-2.086-3.1-.517-.69-1.359-1.435-1.627-1.78-.382-.402-.268-.631 0-1.052" mask="url(#b)"/>
    </g>
</symbol></svg>